<?xml version="1.0" encoding="utf-8" standalone="no"?>
<!DOCTYPE svg PUBLIC "-//W3C//DTD SVG 1.1//EN"
  "http://www.w3.org/Graphics/SVG/1.1/DTD/svg11.dtd">
<!-- Created with matplotlib (https://matplotlib.org/) -->
<svg height="576pt" version="1.1" viewBox="0 0 864 576" width="864pt" xmlns="http://www.w3.org/2000/svg" xmlns:xlink="http://www.w3.org/1999/xlink">
 <metadata>
  <rdf:RDF xmlns:cc="http://creativecommons.org/ns#" xmlns:dc="http://purl.org/dc/elements/1.1/" xmlns:rdf="http://www.w3.org/1999/02/22-rdf-syntax-ns#">
   <cc:Work>
    <dc:type rdf:resource="http://purl.org/dc/dcmitype/StillImage"/>
    <dc:date>2020-09-16T10:43:36.047280</dc:date>
    <dc:format>image/svg+xml</dc:format>
    <dc:creator>
     <cc:Agent>
      <dc:title>Matplotlib v3.3.1, https://matplotlib.org/</dc:title>
     </cc:Agent>
    </dc:creator>
   </cc:Work>
  </rdf:RDF>
 </metadata>
 <defs>
  <style type="text/css">*{stroke-linecap:butt;stroke-linejoin:round;}</style>
 </defs>
 <g id="figure_1">
  <g id="patch_1">
   <path d="M 0 576 
L 864 576 
L 864 0 
L 0 0 
z
"/>
  </g>
  <g id="axes_1">
   <g id="patch_2">
    <path d="M 108 512.64 
L 777.6 512.64 
L 777.6 69.12 
L 108 69.12 
z
"/>
   </g>
   <g id="matplotlib.axis_1">
    <g id="xtick_1">
     <g id="line2d_1">
      <defs>
       <path d="M 0 0 
L 0 3.5 
" id="m957057d49b" style="stroke:#ffffff;stroke-width:0.8;"/>
      </defs>
      <g>
       <use style="fill:#ffffff;stroke:#ffffff;stroke-width:0.8;" x="138.436364" xlink:href="#m957057d49b" y="512.64"/>
      </g>
     </g>
     <g id="text_1">
      <!-- 500 -->
      <g style="fill:#ffffff;" transform="translate(128.892614 527.238438)scale(0.1 -0.1)">
       <defs>
        <path d="M 10.796875 72.90625 
L 49.515625 72.90625 
L 49.515625 64.59375 
L 19.828125 64.59375 
L 19.828125 46.734375 
Q 21.96875 47.46875 24.109375 47.828125 
Q 26.265625 48.1875 28.421875 48.1875 
Q 40.625 48.1875 47.75 41.5 
Q 54.890625 34.8125 54.890625 23.390625 
Q 54.890625 11.625 47.5625 5.09375 
Q 40.234375 -1.421875 26.90625 -1.421875 
Q 22.3125 -1.421875 17.546875 -0.640625 
Q 12.796875 0.140625 7.71875 1.703125 
L 7.71875 11.625 
Q 12.109375 9.234375 16.796875 8.0625 
Q 21.484375 6.890625 26.703125 6.890625 
Q 35.15625 6.890625 40.078125 11.328125 
Q 45.015625 15.765625 45.015625 23.390625 
Q 45.015625 31 40.078125 35.4375 
Q 35.15625 39.890625 26.703125 39.890625 
Q 22.75 39.890625 18.8125 39.015625 
Q 14.890625 38.140625 10.796875 36.28125 
z
" id="DejaVuSans-53"/>
        <path d="M 31.78125 66.40625 
Q 24.171875 66.40625 20.328125 58.90625 
Q 16.5 51.421875 16.5 36.375 
Q 16.5 21.390625 20.328125 13.890625 
Q 24.171875 6.390625 31.78125 6.390625 
Q 39.453125 6.390625 43.28125 13.890625 
Q 47.125 21.390625 47.125 36.375 
Q 47.125 51.421875 43.28125 58.90625 
Q 39.453125 66.40625 31.78125 66.40625 
z
M 31.78125 74.21875 
Q 44.046875 74.21875 50.515625 64.515625 
Q 56.984375 54.828125 56.984375 36.375 
Q 56.984375 17.96875 50.515625 8.265625 
Q 44.046875 -1.421875 31.78125 -1.421875 
Q 19.53125 -1.421875 13.0625 8.265625 
Q 6.59375 17.96875 6.59375 36.375 
Q 6.59375 54.828125 13.0625 64.515625 
Q 19.53125 74.21875 31.78125 74.21875 
z
" id="DejaVuSans-48"/>
       </defs>
       <use xlink:href="#DejaVuSans-53"/>
       <use x="63.623047" xlink:href="#DejaVuSans-48"/>
       <use x="127.246094" xlink:href="#DejaVuSans-48"/>
      </g>
     </g>
    </g>
    <g id="xtick_2">
     <g id="line2d_2">
      <g>
       <use style="fill:#ffffff;stroke:#ffffff;stroke-width:0.8;" x="199.309091" xlink:href="#m957057d49b" y="512.64"/>
      </g>
     </g>
     <g id="text_2">
      <!-- 550 -->
      <g style="fill:#ffffff;" transform="translate(189.765341 527.238438)scale(0.1 -0.1)">
       <use xlink:href="#DejaVuSans-53"/>
       <use x="63.623047" xlink:href="#DejaVuSans-53"/>
       <use x="127.246094" xlink:href="#DejaVuSans-48"/>
      </g>
     </g>
    </g>
    <g id="xtick_3">
     <g id="line2d_3">
      <g>
       <use style="fill:#ffffff;stroke:#ffffff;stroke-width:0.8;" x="260.181818" xlink:href="#m957057d49b" y="512.64"/>
      </g>
     </g>
     <g id="text_3">
      <!-- 600 -->
      <g style="fill:#ffffff;" transform="translate(250.638068 527.238438)scale(0.1 -0.1)">
       <defs>
        <path d="M 33.015625 40.375 
Q 26.375 40.375 22.484375 35.828125 
Q 18.609375 31.296875 18.609375 23.390625 
Q 18.609375 15.53125 22.484375 10.953125 
Q 26.375 6.390625 33.015625 6.390625 
Q 39.65625 6.390625 43.53125 10.953125 
Q 47.40625 15.53125 47.40625 23.390625 
Q 47.40625 31.296875 43.53125 35.828125 
Q 39.65625 40.375 33.015625 40.375 
z
M 52.59375 71.296875 
L 52.59375 62.3125 
Q 48.875 64.0625 45.09375 64.984375 
Q 41.3125 65.921875 37.59375 65.921875 
Q 27.828125 65.921875 22.671875 59.328125 
Q 17.53125 52.734375 16.796875 39.40625 
Q 19.671875 43.65625 24.015625 45.921875 
Q 28.375 48.1875 33.59375 48.1875 
Q 44.578125 48.1875 50.953125 41.515625 
Q 57.328125 34.859375 57.328125 23.390625 
Q 57.328125 12.15625 50.6875 5.359375 
Q 44.046875 -1.421875 33.015625 -1.421875 
Q 20.359375 -1.421875 13.671875 8.265625 
Q 6.984375 17.96875 6.984375 36.375 
Q 6.984375 53.65625 15.1875 63.9375 
Q 23.390625 74.21875 37.203125 74.21875 
Q 40.921875 74.21875 44.703125 73.484375 
Q 48.484375 72.75 52.59375 71.296875 
z
" id="DejaVuSans-54"/>
       </defs>
       <use xlink:href="#DejaVuSans-54"/>
       <use x="63.623047" xlink:href="#DejaVuSans-48"/>
       <use x="127.246094" xlink:href="#DejaVuSans-48"/>
      </g>
     </g>
    </g>
    <g id="xtick_4">
     <g id="line2d_4">
      <g>
       <use style="fill:#ffffff;stroke:#ffffff;stroke-width:0.8;" x="321.054545" xlink:href="#m957057d49b" y="512.64"/>
      </g>
     </g>
     <g id="text_4">
      <!-- 650 -->
      <g style="fill:#ffffff;" transform="translate(311.510795 527.238438)scale(0.1 -0.1)">
       <use xlink:href="#DejaVuSans-54"/>
       <use x="63.623047" xlink:href="#DejaVuSans-53"/>
       <use x="127.246094" xlink:href="#DejaVuSans-48"/>
      </g>
     </g>
    </g>
    <g id="xtick_5">
     <g id="line2d_5">
      <g>
       <use style="fill:#ffffff;stroke:#ffffff;stroke-width:0.8;" x="381.927273" xlink:href="#m957057d49b" y="512.64"/>
      </g>
     </g>
     <g id="text_5">
      <!-- 700 -->
      <g style="fill:#ffffff;" transform="translate(372.383523 527.238438)scale(0.1 -0.1)">
       <defs>
        <path d="M 8.203125 72.90625 
L 55.078125 72.90625 
L 55.078125 68.703125 
L 28.609375 0 
L 18.3125 0 
L 43.21875 64.59375 
L 8.203125 64.59375 
z
" id="DejaVuSans-55"/>
       </defs>
       <use xlink:href="#DejaVuSans-55"/>
       <use x="63.623047" xlink:href="#DejaVuSans-48"/>
       <use x="127.246094" xlink:href="#DejaVuSans-48"/>
      </g>
     </g>
    </g>
    <g id="xtick_6">
     <g id="line2d_6">
      <g>
       <use style="fill:#ffffff;stroke:#ffffff;stroke-width:0.8;" x="442.8" xlink:href="#m957057d49b" y="512.64"/>
      </g>
     </g>
     <g id="text_6">
      <!-- 750 -->
      <g style="fill:#ffffff;" transform="translate(433.25625 527.238438)scale(0.1 -0.1)">
       <use xlink:href="#DejaVuSans-55"/>
       <use x="63.623047" xlink:href="#DejaVuSans-53"/>
       <use x="127.246094" xlink:href="#DejaVuSans-48"/>
      </g>
     </g>
    </g>
    <g id="xtick_7">
     <g id="line2d_7">
      <g>
       <use style="fill:#ffffff;stroke:#ffffff;stroke-width:0.8;" x="503.672727" xlink:href="#m957057d49b" y="512.64"/>
      </g>
     </g>
     <g id="text_7">
      <!-- 800 -->
      <g style="fill:#ffffff;" transform="translate(494.128977 527.238438)scale(0.1 -0.1)">
       <defs>
        <path d="M 31.78125 34.625 
Q 24.75 34.625 20.71875 30.859375 
Q 16.703125 27.09375 16.703125 20.515625 
Q 16.703125 13.921875 20.71875 10.15625 
Q 24.75 6.390625 31.78125 6.390625 
Q 38.8125 6.390625 42.859375 10.171875 
Q 46.921875 13.96875 46.921875 20.515625 
Q 46.921875 27.09375 42.890625 30.859375 
Q 38.875 34.625 31.78125 34.625 
z
M 21.921875 38.8125 
Q 15.578125 40.375 12.03125 44.71875 
Q 8.5 49.078125 8.5 55.328125 
Q 8.5 64.0625 14.71875 69.140625 
Q 20.953125 74.21875 31.78125 74.21875 
Q 42.671875 74.21875 48.875 69.140625 
Q 55.078125 64.0625 55.078125 55.328125 
Q 55.078125 49.078125 51.53125 44.71875 
Q 48 40.375 41.703125 38.8125 
Q 48.828125 37.15625 52.796875 32.3125 
Q 56.78125 27.484375 56.78125 20.515625 
Q 56.78125 9.90625 50.3125 4.234375 
Q 43.84375 -1.421875 31.78125 -1.421875 
Q 19.734375 -1.421875 13.25 4.234375 
Q 6.78125 9.90625 6.78125 20.515625 
Q 6.78125 27.484375 10.78125 32.3125 
Q 14.796875 37.15625 21.921875 38.8125 
z
M 18.3125 54.390625 
Q 18.3125 48.734375 21.84375 45.5625 
Q 25.390625 42.390625 31.78125 42.390625 
Q 38.140625 42.390625 41.71875 45.5625 
Q 45.3125 48.734375 45.3125 54.390625 
Q 45.3125 60.0625 41.71875 63.234375 
Q 38.140625 66.40625 31.78125 66.40625 
Q 25.390625 66.40625 21.84375 63.234375 
Q 18.3125 60.0625 18.3125 54.390625 
z
" id="DejaVuSans-56"/>
       </defs>
       <use xlink:href="#DejaVuSans-56"/>
       <use x="63.623047" xlink:href="#DejaVuSans-48"/>
       <use x="127.246094" xlink:href="#DejaVuSans-48"/>
      </g>
     </g>
    </g>
    <g id="xtick_8">
     <g id="line2d_8">
      <g>
       <use style="fill:#ffffff;stroke:#ffffff;stroke-width:0.8;" x="564.545455" xlink:href="#m957057d49b" y="512.64"/>
      </g>
     </g>
     <g id="text_8">
      <!-- 850 -->
      <g style="fill:#ffffff;" transform="translate(555.001705 527.238438)scale(0.1 -0.1)">
       <use xlink:href="#DejaVuSans-56"/>
       <use x="63.623047" xlink:href="#DejaVuSans-53"/>
       <use x="127.246094" xlink:href="#DejaVuSans-48"/>
      </g>
     </g>
    </g>
    <g id="xtick_9">
     <g id="line2d_9">
      <g>
       <use style="fill:#ffffff;stroke:#ffffff;stroke-width:0.8;" x="625.418182" xlink:href="#m957057d49b" y="512.64"/>
      </g>
     </g>
     <g id="text_9">
      <!-- 900 -->
      <g style="fill:#ffffff;" transform="translate(615.874432 527.238438)scale(0.1 -0.1)">
       <defs>
        <path d="M 10.984375 1.515625 
L 10.984375 10.5 
Q 14.703125 8.734375 18.5 7.8125 
Q 22.3125 6.890625 25.984375 6.890625 
Q 35.75 6.890625 40.890625 13.453125 
Q 46.046875 20.015625 46.78125 33.40625 
Q 43.953125 29.203125 39.59375 26.953125 
Q 35.25 24.703125 29.984375 24.703125 
Q 19.046875 24.703125 12.671875 31.3125 
Q 6.296875 37.9375 6.296875 49.421875 
Q 6.296875 60.640625 12.9375 67.421875 
Q 19.578125 74.21875 30.609375 74.21875 
Q 43.265625 74.21875 49.921875 64.515625 
Q 56.59375 54.828125 56.59375 36.375 
Q 56.59375 19.140625 48.40625 8.859375 
Q 40.234375 -1.421875 26.421875 -1.421875 
Q 22.703125 -1.421875 18.890625 -0.6875 
Q 15.09375 0.046875 10.984375 1.515625 
z
M 30.609375 32.421875 
Q 37.25 32.421875 41.125 36.953125 
Q 45.015625 41.5 45.015625 49.421875 
Q 45.015625 57.28125 41.125 61.84375 
Q 37.25 66.40625 30.609375 66.40625 
Q 23.96875 66.40625 20.09375 61.84375 
Q 16.21875 57.28125 16.21875 49.421875 
Q 16.21875 41.5 20.09375 36.953125 
Q 23.96875 32.421875 30.609375 32.421875 
z
" id="DejaVuSans-57"/>
       </defs>
       <use xlink:href="#DejaVuSans-57"/>
       <use x="63.623047" xlink:href="#DejaVuSans-48"/>
       <use x="127.246094" xlink:href="#DejaVuSans-48"/>
      </g>
     </g>
    </g>
    <g id="xtick_10">
     <g id="line2d_10">
      <g>
       <use style="fill:#ffffff;stroke:#ffffff;stroke-width:0.8;" x="686.290909" xlink:href="#m957057d49b" y="512.64"/>
      </g>
     </g>
     <g id="text_10">
      <!-- 950 -->
      <g style="fill:#ffffff;" transform="translate(676.747159 527.238438)scale(0.1 -0.1)">
       <use xlink:href="#DejaVuSans-57"/>
       <use x="63.623047" xlink:href="#DejaVuSans-53"/>
       <use x="127.246094" xlink:href="#DejaVuSans-48"/>
      </g>
     </g>
    </g>
    <g id="xtick_11">
     <g id="line2d_11">
      <g>
       <use style="fill:#ffffff;stroke:#ffffff;stroke-width:0.8;" x="747.163636" xlink:href="#m957057d49b" y="512.64"/>
      </g>
     </g>
     <g id="text_11">
      <!-- 1000 -->
      <g style="fill:#ffffff;" transform="translate(734.438636 527.238438)scale(0.1 -0.1)">
       <defs>
        <path d="M 12.40625 8.296875 
L 28.515625 8.296875 
L 28.515625 63.921875 
L 10.984375 60.40625 
L 10.984375 69.390625 
L 28.421875 72.90625 
L 38.28125 72.90625 
L 38.28125 8.296875 
L 54.390625 8.296875 
L 54.390625 0 
L 12.40625 0 
z
" id="DejaVuSans-49"/>
       </defs>
       <use xlink:href="#DejaVuSans-49"/>
       <use x="63.623047" xlink:href="#DejaVuSans-48"/>
       <use x="127.246094" xlink:href="#DejaVuSans-48"/>
       <use x="190.869141" xlink:href="#DejaVuSans-48"/>
      </g>
     </g>
    </g>
    <g id="text_12">
     <!-- Height -->
     <g style="fill:#ffffff;" transform="translate(426.271094 540.916563)scale(0.1 -0.1)">
      <defs>
       <path d="M 9.8125 72.90625 
L 19.671875 72.90625 
L 19.671875 43.015625 
L 55.515625 43.015625 
L 55.515625 72.90625 
L 65.375 72.90625 
L 65.375 0 
L 55.515625 0 
L 55.515625 34.71875 
L 19.671875 34.71875 
L 19.671875 0 
L 9.8125 0 
z
" id="DejaVuSans-72"/>
       <path d="M 56.203125 29.59375 
L 56.203125 25.203125 
L 14.890625 25.203125 
Q 15.484375 15.921875 20.484375 11.0625 
Q 25.484375 6.203125 34.421875 6.203125 
Q 39.59375 6.203125 44.453125 7.46875 
Q 49.3125 8.734375 54.109375 11.28125 
L 54.109375 2.78125 
Q 49.265625 0.734375 44.1875 -0.34375 
Q 39.109375 -1.421875 33.890625 -1.421875 
Q 20.796875 -1.421875 13.15625 6.1875 
Q 5.515625 13.8125 5.515625 26.8125 
Q 5.515625 40.234375 12.765625 48.109375 
Q 20.015625 56 32.328125 56 
Q 43.359375 56 49.78125 48.890625 
Q 56.203125 41.796875 56.203125 29.59375 
z
M 47.21875 32.234375 
Q 47.125 39.59375 43.09375 43.984375 
Q 39.0625 48.390625 32.421875 48.390625 
Q 24.90625 48.390625 20.390625 44.140625 
Q 15.875 39.890625 15.1875 32.171875 
z
" id="DejaVuSans-101"/>
       <path d="M 9.421875 54.6875 
L 18.40625 54.6875 
L 18.40625 0 
L 9.421875 0 
z
M 9.421875 75.984375 
L 18.40625 75.984375 
L 18.40625 64.59375 
L 9.421875 64.59375 
z
" id="DejaVuSans-105"/>
       <path d="M 45.40625 27.984375 
Q 45.40625 37.75 41.375 43.109375 
Q 37.359375 48.484375 30.078125 48.484375 
Q 22.859375 48.484375 18.828125 43.109375 
Q 14.796875 37.75 14.796875 27.984375 
Q 14.796875 18.265625 18.828125 12.890625 
Q 22.859375 7.515625 30.078125 7.515625 
Q 37.359375 7.515625 41.375 12.890625 
Q 45.40625 18.265625 45.40625 27.984375 
z
M 54.390625 6.78125 
Q 54.390625 -7.171875 48.1875 -13.984375 
Q 42 -20.796875 29.203125 -20.796875 
Q 24.46875 -20.796875 20.265625 -20.09375 
Q 16.0625 -19.390625 12.109375 -17.921875 
L 12.109375 -9.1875 
Q 16.0625 -11.328125 19.921875 -12.34375 
Q 23.78125 -13.375 27.78125 -13.375 
Q 36.625 -13.375 41.015625 -8.765625 
Q 45.40625 -4.15625 45.40625 5.171875 
L 45.40625 9.625 
Q 42.625 4.78125 38.28125 2.390625 
Q 33.9375 0 27.875 0 
Q 17.828125 0 11.671875 7.65625 
Q 5.515625 15.328125 5.515625 27.984375 
Q 5.515625 40.671875 11.671875 48.328125 
Q 17.828125 56 27.875 56 
Q 33.9375 56 38.28125 53.609375 
Q 42.625 51.21875 45.40625 46.390625 
L 45.40625 54.6875 
L 54.390625 54.6875 
z
" id="DejaVuSans-103"/>
       <path d="M 54.890625 33.015625 
L 54.890625 0 
L 45.90625 0 
L 45.90625 32.71875 
Q 45.90625 40.484375 42.875 44.328125 
Q 39.84375 48.1875 33.796875 48.1875 
Q 26.515625 48.1875 22.3125 43.546875 
Q 18.109375 38.921875 18.109375 30.90625 
L 18.109375 0 
L 9.078125 0 
L 9.078125 75.984375 
L 18.109375 75.984375 
L 18.109375 46.1875 
Q 21.34375 51.125 25.703125 53.5625 
Q 30.078125 56 35.796875 56 
Q 45.21875 56 50.046875 50.171875 
Q 54.890625 44.34375 54.890625 33.015625 
z
" id="DejaVuSans-104"/>
       <path d="M 18.3125 70.21875 
L 18.3125 54.6875 
L 36.8125 54.6875 
L 36.8125 47.703125 
L 18.3125 47.703125 
L 18.3125 18.015625 
Q 18.3125 11.328125 20.140625 9.421875 
Q 21.96875 7.515625 27.59375 7.515625 
L 36.8125 7.515625 
L 36.8125 0 
L 27.59375 0 
Q 17.1875 0 13.234375 3.875 
Q 9.28125 7.765625 9.28125 18.015625 
L 9.28125 47.703125 
L 2.6875 47.703125 
L 2.6875 54.6875 
L 9.28125 54.6875 
L 9.28125 70.21875 
z
" id="DejaVuSans-116"/>
      </defs>
      <use xlink:href="#DejaVuSans-72"/>
      <use x="75.195312" xlink:href="#DejaVuSans-101"/>
      <use x="136.71875" xlink:href="#DejaVuSans-105"/>
      <use x="164.501953" xlink:href="#DejaVuSans-103"/>
      <use x="227.978516" xlink:href="#DejaVuSans-104"/>
      <use x="291.357422" xlink:href="#DejaVuSans-116"/>
     </g>
    </g>
   </g>
   <g id="matplotlib.axis_2">
    <g id="ytick_1">
     <g id="line2d_12">
      <defs>
       <path d="M 0 0 
L -3.5 0 
" id="m860cdb43a1" style="stroke:#ffffff;stroke-width:0.8;"/>
      </defs>
      <g>
       <use style="fill:#ffffff;stroke:#ffffff;stroke-width:0.8;" x="108" xlink:href="#m860cdb43a1" y="480.836975"/>
      </g>
     </g>
     <g id="text_13">
      <!-- $\mathdefault{10^{-4}}$ -->
      <g style="fill:#ffffff;" transform="translate(77.5 484.636194)scale(0.1 -0.1)">
       <defs>
        <path d="M 10.59375 35.5 
L 73.1875 35.5 
L 73.1875 27.203125 
L 10.59375 27.203125 
z
" id="DejaVuSans-8722"/>
        <path d="M 37.796875 64.3125 
L 12.890625 25.390625 
L 37.796875 25.390625 
z
M 35.203125 72.90625 
L 47.609375 72.90625 
L 47.609375 25.390625 
L 58.015625 25.390625 
L 58.015625 17.1875 
L 47.609375 17.1875 
L 47.609375 0 
L 37.796875 0 
L 37.796875 17.1875 
L 4.890625 17.1875 
L 4.890625 26.703125 
z
" id="DejaVuSans-52"/>
       </defs>
       <use transform="translate(0 0.684375)" xlink:href="#DejaVuSans-49"/>
       <use transform="translate(63.623047 0.684375)" xlink:href="#DejaVuSans-48"/>
       <use transform="translate(128.203125 38.965625)scale(0.7)" xlink:href="#DejaVuSans-8722"/>
       <use transform="translate(186.855469 38.965625)scale(0.7)" xlink:href="#DejaVuSans-52"/>
      </g>
     </g>
    </g>
    <g id="ytick_2">
     <g id="line2d_13">
      <g>
       <use style="fill:#ffffff;stroke:#ffffff;stroke-width:0.8;" x="108" xlink:href="#m860cdb43a1" y="161.85936"/>
      </g>
     </g>
     <g id="text_14">
      <!-- $\mathdefault{10^{-3}}$ -->
      <g style="fill:#ffffff;" transform="translate(77.5 165.658578)scale(0.1 -0.1)">
       <defs>
        <path d="M 40.578125 39.3125 
Q 47.65625 37.796875 51.625 33 
Q 55.609375 28.21875 55.609375 21.1875 
Q 55.609375 10.40625 48.1875 4.484375 
Q 40.765625 -1.421875 27.09375 -1.421875 
Q 22.515625 -1.421875 17.65625 -0.515625 
Q 12.796875 0.390625 7.625 2.203125 
L 7.625 11.71875 
Q 11.71875 9.328125 16.59375 8.109375 
Q 21.484375 6.890625 26.8125 6.890625 
Q 36.078125 6.890625 40.9375 10.546875 
Q 45.796875 14.203125 45.796875 21.1875 
Q 45.796875 27.640625 41.28125 31.265625 
Q 36.765625 34.90625 28.71875 34.90625 
L 20.21875 34.90625 
L 20.21875 43.015625 
L 29.109375 43.015625 
Q 36.375 43.015625 40.234375 45.921875 
Q 44.09375 48.828125 44.09375 54.296875 
Q 44.09375 59.90625 40.109375 62.90625 
Q 36.140625 65.921875 28.71875 65.921875 
Q 24.65625 65.921875 20.015625 65.03125 
Q 15.375 64.15625 9.8125 62.3125 
L 9.8125 71.09375 
Q 15.4375 72.65625 20.34375 73.4375 
Q 25.25 74.21875 29.59375 74.21875 
Q 40.828125 74.21875 47.359375 69.109375 
Q 53.90625 64.015625 53.90625 55.328125 
Q 53.90625 49.265625 50.4375 45.09375 
Q 46.96875 40.921875 40.578125 39.3125 
z
" id="DejaVuSans-51"/>
       </defs>
       <use transform="translate(0 0.765625)" xlink:href="#DejaVuSans-49"/>
       <use transform="translate(63.623047 0.765625)" xlink:href="#DejaVuSans-48"/>
       <use transform="translate(128.203125 39.046875)scale(0.7)" xlink:href="#DejaVuSans-8722"/>
       <use transform="translate(186.855469 39.046875)scale(0.7)" xlink:href="#DejaVuSans-51"/>
      </g>
     </g>
    </g>
    <g id="ytick_3">
     <g id="line2d_14">
      <defs>
       <path d="M 0 0 
L -2 0 
" id="m4dfcd7f0cc" style="stroke:#ffffff;stroke-width:0.6;"/>
      </defs>
      <g>
       <use style="fill:#ffffff;stroke:#ffffff;stroke-width:0.6;" x="108" xlink:href="#m4dfcd7f0cc" y="511.7491"/>
      </g>
     </g>
    </g>
    <g id="ytick_4">
     <g id="line2d_15">
      <g>
       <use style="fill:#ffffff;stroke:#ffffff;stroke-width:0.6;" x="108" xlink:href="#m4dfcd7f0cc" y="495.43259"/>
      </g>
     </g>
    </g>
    <g id="ytick_5">
     <g id="line2d_16">
      <g>
       <use style="fill:#ffffff;stroke:#ffffff;stroke-width:0.6;" x="108" xlink:href="#m4dfcd7f0cc" y="384.815145"/>
      </g>
     </g>
    </g>
    <g id="ytick_6">
     <g id="line2d_17">
      <g>
       <use style="fill:#ffffff;stroke:#ffffff;stroke-width:0.6;" x="108" xlink:href="#m4dfcd7f0cc" y="328.645975"/>
      </g>
     </g>
    </g>
    <g id="ytick_7">
     <g id="line2d_18">
      <g>
       <use style="fill:#ffffff;stroke:#ffffff;stroke-width:0.6;" x="108" xlink:href="#m4dfcd7f0cc" y="288.793315"/>
      </g>
     </g>
    </g>
    <g id="ytick_8">
     <g id="line2d_19">
      <g>
       <use style="fill:#ffffff;stroke:#ffffff;stroke-width:0.6;" x="108" xlink:href="#m4dfcd7f0cc" y="257.88119"/>
      </g>
     </g>
    </g>
    <g id="ytick_9">
     <g id="line2d_20">
      <g>
       <use style="fill:#ffffff;stroke:#ffffff;stroke-width:0.6;" x="108" xlink:href="#m4dfcd7f0cc" y="232.624145"/>
      </g>
     </g>
    </g>
    <g id="ytick_10">
     <g id="line2d_21">
      <g>
       <use style="fill:#ffffff;stroke:#ffffff;stroke-width:0.6;" x="108" xlink:href="#m4dfcd7f0cc" y="211.269617"/>
      </g>
     </g>
    </g>
    <g id="ytick_11">
     <g id="line2d_22">
      <g>
       <use style="fill:#ffffff;stroke:#ffffff;stroke-width:0.6;" x="108" xlink:href="#m4dfcd7f0cc" y="192.771485"/>
      </g>
     </g>
    </g>
    <g id="ytick_12">
     <g id="line2d_23">
      <g>
       <use style="fill:#ffffff;stroke:#ffffff;stroke-width:0.6;" x="108" xlink:href="#m4dfcd7f0cc" y="176.454975"/>
      </g>
     </g>
    </g>
    <g id="text_15">
     <!-- Relative error -->
     <g style="fill:#ffffff;" transform="translate(71.420312 324.735469)rotate(-90)scale(0.1 -0.1)">
      <defs>
       <path d="M 44.390625 34.1875 
Q 47.5625 33.109375 50.5625 29.59375 
Q 53.5625 26.078125 56.59375 19.921875 
L 66.609375 0 
L 56 0 
L 46.6875 18.703125 
Q 43.0625 26.03125 39.671875 28.421875 
Q 36.28125 30.8125 30.421875 30.8125 
L 19.671875 30.8125 
L 19.671875 0 
L 9.8125 0 
L 9.8125 72.90625 
L 32.078125 72.90625 
Q 44.578125 72.90625 50.734375 67.671875 
Q 56.890625 62.453125 56.890625 51.90625 
Q 56.890625 45.015625 53.6875 40.46875 
Q 50.484375 35.9375 44.390625 34.1875 
z
M 19.671875 64.796875 
L 19.671875 38.921875 
L 32.078125 38.921875 
Q 39.203125 38.921875 42.84375 42.21875 
Q 46.484375 45.515625 46.484375 51.90625 
Q 46.484375 58.296875 42.84375 61.546875 
Q 39.203125 64.796875 32.078125 64.796875 
z
" id="DejaVuSans-82"/>
       <path d="M 9.421875 75.984375 
L 18.40625 75.984375 
L 18.40625 0 
L 9.421875 0 
z
" id="DejaVuSans-108"/>
       <path d="M 34.28125 27.484375 
Q 23.390625 27.484375 19.1875 25 
Q 14.984375 22.515625 14.984375 16.5 
Q 14.984375 11.71875 18.140625 8.90625 
Q 21.296875 6.109375 26.703125 6.109375 
Q 34.1875 6.109375 38.703125 11.40625 
Q 43.21875 16.703125 43.21875 25.484375 
L 43.21875 27.484375 
z
M 52.203125 31.203125 
L 52.203125 0 
L 43.21875 0 
L 43.21875 8.296875 
Q 40.140625 3.328125 35.546875 0.953125 
Q 30.953125 -1.421875 24.3125 -1.421875 
Q 15.921875 -1.421875 10.953125 3.296875 
Q 6 8.015625 6 15.921875 
Q 6 25.140625 12.171875 29.828125 
Q 18.359375 34.515625 30.609375 34.515625 
L 43.21875 34.515625 
L 43.21875 35.40625 
Q 43.21875 41.609375 39.140625 45 
Q 35.0625 48.390625 27.6875 48.390625 
Q 23 48.390625 18.546875 47.265625 
Q 14.109375 46.140625 10.015625 43.890625 
L 10.015625 52.203125 
Q 14.9375 54.109375 19.578125 55.046875 
Q 24.21875 56 28.609375 56 
Q 40.484375 56 46.34375 49.84375 
Q 52.203125 43.703125 52.203125 31.203125 
z
" id="DejaVuSans-97"/>
       <path d="M 2.984375 54.6875 
L 12.5 54.6875 
L 29.59375 8.796875 
L 46.6875 54.6875 
L 56.203125 54.6875 
L 35.6875 0 
L 23.484375 0 
z
" id="DejaVuSans-118"/>
       <path id="DejaVuSans-32"/>
       <path d="M 41.109375 46.296875 
Q 39.59375 47.171875 37.8125 47.578125 
Q 36.03125 48 33.890625 48 
Q 26.265625 48 22.1875 43.046875 
Q 18.109375 38.09375 18.109375 28.8125 
L 18.109375 0 
L 9.078125 0 
L 9.078125 54.6875 
L 18.109375 54.6875 
L 18.109375 46.1875 
Q 20.953125 51.171875 25.484375 53.578125 
Q 30.03125 56 36.53125 56 
Q 37.453125 56 38.578125 55.875 
Q 39.703125 55.765625 41.0625 55.515625 
z
" id="DejaVuSans-114"/>
       <path d="M 30.609375 48.390625 
Q 23.390625 48.390625 19.1875 42.75 
Q 14.984375 37.109375 14.984375 27.296875 
Q 14.984375 17.484375 19.15625 11.84375 
Q 23.34375 6.203125 30.609375 6.203125 
Q 37.796875 6.203125 41.984375 11.859375 
Q 46.1875 17.53125 46.1875 27.296875 
Q 46.1875 37.015625 41.984375 42.703125 
Q 37.796875 48.390625 30.609375 48.390625 
z
M 30.609375 56 
Q 42.328125 56 49.015625 48.375 
Q 55.71875 40.765625 55.71875 27.296875 
Q 55.71875 13.875 49.015625 6.21875 
Q 42.328125 -1.421875 30.609375 -1.421875 
Q 18.84375 -1.421875 12.171875 6.21875 
Q 5.515625 13.875 5.515625 27.296875 
Q 5.515625 40.765625 12.171875 48.375 
Q 18.84375 56 30.609375 56 
z
" id="DejaVuSans-111"/>
      </defs>
      <use xlink:href="#DejaVuSans-82"/>
      <use x="64.982422" xlink:href="#DejaVuSans-101"/>
      <use x="126.505859" xlink:href="#DejaVuSans-108"/>
      <use x="154.289062" xlink:href="#DejaVuSans-97"/>
      <use x="215.568359" xlink:href="#DejaVuSans-116"/>
      <use x="254.777344" xlink:href="#DejaVuSans-105"/>
      <use x="282.560547" xlink:href="#DejaVuSans-118"/>
      <use x="341.740234" xlink:href="#DejaVuSans-101"/>
      <use x="403.263672" xlink:href="#DejaVuSans-32"/>
      <use x="435.050781" xlink:href="#DejaVuSans-101"/>
      <use x="496.574219" xlink:href="#DejaVuSans-114"/>
      <use x="535.9375" xlink:href="#DejaVuSans-114"/>
      <use x="574.800781" xlink:href="#DejaVuSans-111"/>
      <use x="635.982422" xlink:href="#DejaVuSans-114"/>
     </g>
    </g>
   </g>
   <g id="line2d_24">
    <path clip-path="url(#p642ae869e2)" d="M 138.436364 89.28 
L 139.653818 92.39761 
L 140.871273 91.553185 
L 142.088727 94.678915 
L 144.523636 93.740512 
L 145.741091 96.170792 
L 146.958545 95.53389 
L 148.176 97.38921 
L 149.393455 95.467558 
L 150.610909 98.232743 
L 151.828364 98.689208 
L 153.045818 98.441473 
L 154.263273 101.797668 
L 155.480727 103.038398 
L 156.698182 101.909564 
L 157.915636 102.379973 
L 159.133091 105.2078 
L 160.350545 103.267724 
L 161.568 103.412075 
L 162.785455 104.753443 
L 164.002909 106.721163 
L 165.220364 106.362469 
L 166.437818 109.528589 
L 167.655273 108.963677 
L 168.872727 109.266721 
L 170.090182 110.806966 
L 172.525091 109.236356 
L 173.742545 110.253347 
L 174.96 113.331742 
L 176.177455 113.803683 
L 177.394909 116.112477 
L 178.612364 114.297396 
L 179.829818 115.13709 
L 181.047273 117.536451 
L 182.264727 114.705958 
L 183.482182 117.102141 
L 184.699636 114.89464 
L 185.917091 120.036319 
L 187.134545 132.528138 
L 188.352 123.605906 
L 189.569455 117.853206 
L 190.786909 117.991293 
L 192.004364 121.665692 
L 193.221818 121.48048 
L 194.439273 122.278658 
L 195.656727 124.7563 
L 196.874182 126.394879 
L 198.091636 126.444835 
L 199.309091 126.863077 
L 200.526545 126.878226 
L 201.744 126.574622 
L 202.961455 128.36116 
L 204.178909 130.708199 
L 205.396364 127.249746 
L 206.613818 129.983914 
L 207.831273 131.781094 
L 209.048727 132.157835 
L 210.266182 131.486122 
L 211.483636 133.687301 
L 212.701091 133.876501 
L 213.918545 136.156879 
L 215.136 134.054831 
L 216.353455 134.618581 
L 217.570909 135.0149 
L 218.788364 136.027441 
L 221.223273 140.213444 
L 222.440727 137.034628 
L 223.658182 138.824507 
L 224.875636 139.487955 
L 227.310545 142.703993 
L 228.528 140.84574 
L 229.745455 143.615425 
L 230.962909 142.962285 
L 232.180364 144.748193 
L 233.397818 146.302619 
L 234.615273 145.530685 
L 237.050182 147.232068 
L 238.267636 147.381817 
L 239.485091 147.394525 
L 240.702545 148.141655 
L 241.92 149.832746 
L 243.137455 148.750322 
L 244.354909 149.101786 
L 245.572364 148.262431 
L 246.789818 152.25274 
L 248.007273 154.137946 
L 249.224727 153.561066 
L 250.442182 155.789078 
L 251.659636 153.157474 
L 254.094545 156.696819 
L 255.312 154.447296 
L 256.529455 156.296739 
L 257.746909 157.474407 
L 258.964364 159.063762 
L 260.181818 156.90355 
L 261.399273 158.538066 
L 262.616727 162.634665 
L 263.834182 161.373731 
L 265.051636 162.439749 
L 266.269091 162.035034 
L 267.486545 162.525302 
L 268.704 162.427481 
L 269.921455 161.817147 
L 271.138909 164.03251 
L 272.356364 165.936908 
L 273.573818 165.697085 
L 274.791273 170.231056 
L 276.008727 168.24964 
L 277.226182 166.93391 
L 278.443636 168.771386 
L 280.878545 169.993629 
L 282.096 169.147821 
L 283.313455 168.92251 
L 284.530909 172.430557 
L 285.748364 173.664258 
L 286.965818 172.286911 
L 288.183273 178.141962 
L 289.400727 179.293402 
L 290.618182 174.38234 
L 291.835636 179.583263 
L 293.053091 174.752095 
L 294.270545 173.007005 
L 295.488 177.971008 
L 296.705455 176.308591 
L 297.922909 182.994774 
L 299.140364 179.088151 
L 300.357818 181.052973 
L 301.575273 179.727714 
L 302.792727 181.749532 
L 304.010182 180.695355 
L 305.227636 181.199792 
L 306.445091 182.42213 
L 307.662545 181.150739 
L 308.88 187.313034 
L 310.097455 185.677168 
L 311.314909 186.126635 
L 312.532364 188.94208 
L 313.749818 189.399355 
L 314.967273 185.698763 
L 316.184727 186.612883 
L 317.402182 187.002471 
L 318.619636 184.640106 
L 319.837091 190.881172 
L 321.054545 195.827597 
L 322.272 194.458074 
L 323.489455 187.987374 
L 324.706909 191.631442 
L 325.924364 192.581671 
L 327.141818 192.942404 
L 328.359273 195.490241 
L 329.576727 197.064924 
L 330.794182 196.494716 
L 332.011636 197.329077 
L 333.229091 197.813821 
L 334.446545 200.864459 
L 335.664 194.782401 
L 336.881455 198.6132 
L 338.098909 200.620834 
L 339.316364 194.390404 
L 340.533818 205.65862 
L 341.751273 199.363906 
L 342.968727 204.353654 
L 344.186182 204.149182 
L 345.403636 206.72166 
L 346.621091 201.203901 
L 347.838545 201.124322 
L 349.056 200.151225 
L 350.273455 199.877572 
L 351.490909 207.597489 
L 352.708364 207.116757 
L 353.925818 217.219994 
L 355.143273 214.898491 
L 356.360727 204.947396 
L 357.578182 203.140245 
L 358.795636 210.21526 
L 360.013091 204.361142 
L 361.230545 216.009422 
L 362.448 212.905107 
L 363.665455 206.307245 
L 364.882909 225.839198 
L 366.100364 224.527036 
L 367.317818 207.414066 
L 368.535273 217.786535 
L 369.752727 207.937181 
L 370.970182 216.653129 
L 372.187636 209.49264 
L 373.405091 227.750945 
L 374.622545 218.000413 
L 375.84 212.415884 
L 378.274909 216.898169 
L 379.492364 222.57994 
L 380.709818 209.226594 
L 381.927273 225.687925 
L 383.144727 220.165971 
L 384.362182 220.654102 
L 385.579636 232.373121 
L 386.797091 227.385954 
L 388.014545 226.013395 
L 389.232 217.39983 
L 390.449455 223.941009 
L 391.666909 207.541405 
L 392.884364 229.580241 
L 394.101818 224.400384 
L 395.319273 228.842991 
L 396.536727 219.558161 
L 397.754182 247.37295 
L 398.971636 228.215792 
L 400.189091 235.791908 
L 401.406545 207.06 
L 402.624 217.810875 
L 403.841455 234.757143 
L 405.058909 199.754117 
L 405.060353 577 
M 407.492377 577 
L 407.493818 200.660636 
L 408.711273 238.083473 
L 409.928727 228.688636 
L 411.146182 216.948137 
L 412.363636 231.727993 
L 413.581091 221.90609 
L 414.798545 254.645234 
L 416.016 228.599128 
L 417.233455 237.581506 
L 418.450909 236.953321 
L 419.668364 244.206927 
L 420.885818 244.589989 
L 422.103273 224.919934 
L 423.320727 236.042523 
L 424.538182 240.281657 
L 425.755636 247.161798 
L 426.973091 251.657409 
L 428.190545 240.828116 
L 429.408 242.309339 
L 430.625455 249.903517 
L 431.842909 244.663773 
L 433.060364 240.918037 
L 434.277818 249.970341 
L 436.712727 240.008904 
L 437.930182 249.367215 
L 439.147636 257.317544 
L 440.365091 243.899433 
L 441.582545 249.905952 
L 442.8 243.063453 
L 444.017455 251.238684 
L 445.234909 254.447647 
L 446.452364 248.796774 
L 447.669818 266.721049 
L 448.887273 250.081655 
L 450.104727 255.738423 
L 451.322182 259.557291 
L 452.539636 252.257163 
L 453.757091 253.906322 
L 454.974545 253.755202 
L 456.192 255.141843 
L 457.409455 253.261463 
L 458.626909 270.168585 
L 459.844364 259.438483 
L 461.061818 261.084438 
L 462.279273 253.52385 
L 463.496727 259.200766 
L 464.714182 263.515261 
L 465.931636 261.594664 
L 467.149091 263.092162 
L 468.366545 265.443523 
L 469.584 265.459822 
L 470.801455 263.194468 
L 472.018909 272.181013 
L 473.236364 263.585835 
L 474.453818 270.868899 
L 475.671273 273.938324 
L 476.888727 267.734112 
L 478.106182 269.915591 
L 479.323636 275.641568 
L 480.541091 270.802409 
L 481.758545 270.006386 
L 482.976 272.165408 
L 484.193455 275.420793 
L 485.410909 275.265275 
L 486.628364 277.839459 
L 487.845818 275.300144 
L 489.063273 275.02329 
L 490.280727 272.633339 
L 491.498182 283.77777 
L 492.715636 280.409974 
L 493.933091 278.051851 
L 495.150545 278.056281 
L 496.368 283.99192 
L 497.585455 285.979858 
L 498.802909 284.678419 
L 500.020364 284.548534 
L 501.237818 287.262559 
L 502.455273 284.560268 
L 503.672727 288.15045 
L 504.890182 282.287801 
L 506.107636 288.706099 
L 507.325091 286.901913 
L 508.542545 286.89966 
L 509.76 291.56654 
L 510.977455 289.220102 
L 512.194909 291.66556 
L 513.412364 289.387683 
L 514.629818 296.237104 
L 515.847273 288.858742 
L 517.064727 295.364575 
L 518.282182 293.833071 
L 519.499636 299.726281 
L 520.717091 296.891171 
L 521.934545 302.648498 
L 523.152 293.739793 
L 524.369455 300.688733 
L 525.586909 299.230181 
L 526.804364 302.436332 
L 528.021818 304.392374 
L 529.239273 302.217278 
L 530.456727 306.059123 
L 531.674182 303.476163 
L 532.891636 304.06111 
L 534.109091 308.463368 
L 535.326545 304.424194 
L 537.761455 310.748148 
L 538.978909 309.124186 
L 540.196364 312.270295 
L 541.413818 311.066211 
L 542.631273 311.792002 
L 543.848727 313.653786 
L 545.066182 313.616526 
L 546.283636 310.58984 
L 547.501091 312.949034 
L 548.718545 317.007392 
L 549.936 327.143354 
L 551.153455 315.689567 
L 552.370909 312.114176 
L 553.588364 321.459647 
L 556.023273 317.771546 
L 557.240727 326.866114 
L 558.458182 318.414456 
L 559.675636 321.672694 
L 560.893091 323.874299 
L 562.110545 324.669003 
L 563.328 325.728161 
L 564.545455 328.925962 
L 565.762909 326.063398 
L 566.980364 324.97422 
L 568.197818 324.145515 
L 569.415273 335.43992 
L 570.632727 331.334508 
L 571.850182 334.763754 
L 573.067636 333.919218 
L 574.285091 334.270346 
L 575.502545 335.269339 
L 576.72 335.653192 
L 577.937455 338.417953 
L 579.154909 334.030087 
L 580.372364 341.120968 
L 581.589818 344.42053 
L 582.807273 339.02644 
L 584.024727 339.803442 
L 585.242182 338.440281 
L 586.459636 342.799932 
L 587.677091 335.364193 
L 588.894545 343.519934 
L 590.112 343.957614 
L 591.329455 345.768103 
L 592.546909 344.513659 
L 593.764364 345.233073 
L 594.981818 345.204221 
L 596.199273 349.115771 
L 597.416727 352.058993 
L 598.634182 345.254384 
L 599.851636 348.218763 
L 601.069091 356.857445 
L 602.286545 356.903137 
L 603.504 350.977912 
L 604.721455 349.793565 
L 605.938909 354.265409 
L 607.156364 359.475721 
L 608.373818 360.172453 
L 609.591273 353.367119 
L 610.808727 360.150689 
L 612.026182 354.37978 
L 613.243636 355.697903 
L 614.461091 361.183108 
L 615.678545 361.43984 
L 616.896 367.407679 
L 618.113455 366.694944 
L 619.330909 362.42506 
L 620.548364 367.422181 
L 621.765818 370.355081 
L 622.983273 380.594342 
L 624.200727 364.785698 
L 625.418182 311.112793 
L 626.635636 367.838533 
L 627.853091 384.561325 
L 629.070545 385.572499 
L 630.288 376.540117 
L 631.505455 368.360403 
L 632.722909 377.002938 
L 633.940364 381.039587 
L 635.157818 376.22707 
L 636.375273 378.986961 
L 637.592727 375.080206 
L 638.810182 374.741773 
L 640.027636 372.693202 
L 641.245091 382.238069 
L 642.462545 385.635633 
L 643.68 390.998352 
L 644.897455 383.240831 
L 646.114909 380.646839 
L 647.332364 382.314793 
L 648.549818 392.987969 
L 649.767273 396.004865 
L 650.984727 394.179084 
L 652.202182 383.051563 
L 653.419636 389.822073 
L 654.637091 395.211396 
L 655.854545 390.138445 
L 657.072 393.221056 
L 658.289455 394.236748 
L 659.506909 400.519249 
L 660.724364 398.208014 
L 661.941818 395.131215 
L 663.159273 402.620811 
L 664.376727 393.885568 
L 665.594182 401.238064 
L 666.811636 399.220901 
L 668.029091 405.263104 
L 669.246545 408.227649 
L 670.464 407.211906 
L 671.681455 404.719312 
L 672.898909 401.862548 
L 674.116364 413.257952 
L 675.333818 413.917931 
L 676.551273 414.183049 
L 677.768727 413.012031 
L 678.986182 417.173312 
L 680.203636 414.172112 
L 681.421091 420.91952 
L 682.638545 412.30118 
L 683.856 409.502202 
L 685.073455 417.572911 
L 686.290909 415.843455 
L 687.508364 423.695471 
L 688.725818 422.579059 
L 689.943273 418.876888 
L 691.160727 422.929529 
L 692.378182 419.546502 
L 693.595636 434.418401 
L 694.813091 435.445634 
L 696.030545 424.961832 
L 697.248 426.114707 
L 698.465455 437.128337 
L 699.682909 429.569407 
L 700.900364 433.362472 
L 702.117818 439.744323 
L 703.335273 428.770717 
L 704.552727 438.109561 
L 705.770182 437.539626 
L 706.987636 439.482832 
L 708.205091 453.083222 
L 709.422545 437.778254 
L 710.64 445.980381 
L 711.857455 445.700272 
L 713.074909 449.562001 
L 714.292364 449.986444 
L 715.509818 452.739189 
L 716.727273 460.816461 
L 717.944727 452.882512 
L 719.162182 454.371836 
L 720.379636 456.595322 
L 721.597091 460.510626 
L 722.814545 461.593844 
L 724.032 465.469451 
L 725.249455 454.99553 
L 726.466909 467.762559 
L 727.684364 472.670768 
L 728.901818 465.481427 
L 730.119273 477.357656 
L 731.336727 475.53617 
L 732.554182 465.56329 
L 733.771636 477.212535 
L 734.989091 458.215494 
L 736.206545 482.841051 
L 737.424 478.97913 
L 738.641455 480.109504 
L 739.858909 481.010364 
L 741.076364 490.709604 
L 742.293818 487.395142 
L 743.511273 476.853627 
L 744.728727 487.680435 
L 745.946182 479.768164 
L 747.163636 492.48 
L 747.163636 492.48 
" style="fill:none;stroke:#ffffff;stroke-linecap:square;stroke-width:1.5;"/>
    <defs>
     <path d="M 0 1.5 
C 0.397805 1.5 0.77937 1.341951 1.06066 1.06066 
C 1.341951 0.77937 1.5 0.397805 1.5 0 
C 1.5 -0.397805 1.341951 -0.77937 1.06066 -1.06066 
C 0.77937 -1.341951 0.397805 -1.5 0 -1.5 
C -0.397805 -1.5 -0.77937 -1.341951 -1.06066 -1.06066 
C -1.341951 -0.77937 -1.5 -0.397805 -1.5 0 
C -1.5 0.397805 -1.341951 0.77937 -1.06066 1.06066 
C -0.77937 1.341951 -0.397805 1.5 0 1.5 
z
" id="m4c5bc3f2dd" style="stroke:#ffffff;"/>
    </defs>
    <g clip-path="url(#p642ae869e2)">
     <use style="fill:#ffffff;stroke:#ffffff;" x="138.436364" xlink:href="#m4c5bc3f2dd" y="89.28"/>
     <use style="fill:#ffffff;stroke:#ffffff;" x="139.653818" xlink:href="#m4c5bc3f2dd" y="92.39761"/>
     <use style="fill:#ffffff;stroke:#ffffff;" x="140.871273" xlink:href="#m4c5bc3f2dd" y="91.553185"/>
     <use style="fill:#ffffff;stroke:#ffffff;" x="142.088727" xlink:href="#m4c5bc3f2dd" y="94.678915"/>
     <use style="fill:#ffffff;stroke:#ffffff;" x="143.306182" xlink:href="#m4c5bc3f2dd" y="94.261447"/>
     <use style="fill:#ffffff;stroke:#ffffff;" x="144.523636" xlink:href="#m4c5bc3f2dd" y="93.740512"/>
     <use style="fill:#ffffff;stroke:#ffffff;" x="145.741091" xlink:href="#m4c5bc3f2dd" y="96.170792"/>
     <use style="fill:#ffffff;stroke:#ffffff;" x="146.958545" xlink:href="#m4c5bc3f2dd" y="95.53389"/>
     <use style="fill:#ffffff;stroke:#ffffff;" x="148.176" xlink:href="#m4c5bc3f2dd" y="97.38921"/>
     <use style="fill:#ffffff;stroke:#ffffff;" x="149.393455" xlink:href="#m4c5bc3f2dd" y="95.467558"/>
     <use style="fill:#ffffff;stroke:#ffffff;" x="150.610909" xlink:href="#m4c5bc3f2dd" y="98.232743"/>
     <use style="fill:#ffffff;stroke:#ffffff;" x="151.828364" xlink:href="#m4c5bc3f2dd" y="98.689208"/>
     <use style="fill:#ffffff;stroke:#ffffff;" x="153.045818" xlink:href="#m4c5bc3f2dd" y="98.441473"/>
     <use style="fill:#ffffff;stroke:#ffffff;" x="154.263273" xlink:href="#m4c5bc3f2dd" y="101.797668"/>
     <use style="fill:#ffffff;stroke:#ffffff;" x="155.480727" xlink:href="#m4c5bc3f2dd" y="103.038398"/>
     <use style="fill:#ffffff;stroke:#ffffff;" x="156.698182" xlink:href="#m4c5bc3f2dd" y="101.909564"/>
     <use style="fill:#ffffff;stroke:#ffffff;" x="157.915636" xlink:href="#m4c5bc3f2dd" y="102.379973"/>
     <use style="fill:#ffffff;stroke:#ffffff;" x="159.133091" xlink:href="#m4c5bc3f2dd" y="105.2078"/>
     <use style="fill:#ffffff;stroke:#ffffff;" x="160.350545" xlink:href="#m4c5bc3f2dd" y="103.267724"/>
     <use style="fill:#ffffff;stroke:#ffffff;" x="161.568" xlink:href="#m4c5bc3f2dd" y="103.412075"/>
     <use style="fill:#ffffff;stroke:#ffffff;" x="162.785455" xlink:href="#m4c5bc3f2dd" y="104.753443"/>
     <use style="fill:#ffffff;stroke:#ffffff;" x="164.002909" xlink:href="#m4c5bc3f2dd" y="106.721163"/>
     <use style="fill:#ffffff;stroke:#ffffff;" x="165.220364" xlink:href="#m4c5bc3f2dd" y="106.362469"/>
     <use style="fill:#ffffff;stroke:#ffffff;" x="166.437818" xlink:href="#m4c5bc3f2dd" y="109.528589"/>
     <use style="fill:#ffffff;stroke:#ffffff;" x="167.655273" xlink:href="#m4c5bc3f2dd" y="108.963677"/>
     <use style="fill:#ffffff;stroke:#ffffff;" x="168.872727" xlink:href="#m4c5bc3f2dd" y="109.266721"/>
     <use style="fill:#ffffff;stroke:#ffffff;" x="170.090182" xlink:href="#m4c5bc3f2dd" y="110.806966"/>
     <use style="fill:#ffffff;stroke:#ffffff;" x="171.307636" xlink:href="#m4c5bc3f2dd" y="109.962215"/>
     <use style="fill:#ffffff;stroke:#ffffff;" x="172.525091" xlink:href="#m4c5bc3f2dd" y="109.236356"/>
     <use style="fill:#ffffff;stroke:#ffffff;" x="173.742545" xlink:href="#m4c5bc3f2dd" y="110.253347"/>
     <use style="fill:#ffffff;stroke:#ffffff;" x="174.96" xlink:href="#m4c5bc3f2dd" y="113.331742"/>
     <use style="fill:#ffffff;stroke:#ffffff;" x="176.177455" xlink:href="#m4c5bc3f2dd" y="113.803683"/>
     <use style="fill:#ffffff;stroke:#ffffff;" x="177.394909" xlink:href="#m4c5bc3f2dd" y="116.112477"/>
     <use style="fill:#ffffff;stroke:#ffffff;" x="178.612364" xlink:href="#m4c5bc3f2dd" y="114.297396"/>
     <use style="fill:#ffffff;stroke:#ffffff;" x="179.829818" xlink:href="#m4c5bc3f2dd" y="115.13709"/>
     <use style="fill:#ffffff;stroke:#ffffff;" x="181.047273" xlink:href="#m4c5bc3f2dd" y="117.536451"/>
     <use style="fill:#ffffff;stroke:#ffffff;" x="182.264727" xlink:href="#m4c5bc3f2dd" y="114.705958"/>
     <use style="fill:#ffffff;stroke:#ffffff;" x="183.482182" xlink:href="#m4c5bc3f2dd" y="117.102141"/>
     <use style="fill:#ffffff;stroke:#ffffff;" x="184.699636" xlink:href="#m4c5bc3f2dd" y="114.89464"/>
     <use style="fill:#ffffff;stroke:#ffffff;" x="185.917091" xlink:href="#m4c5bc3f2dd" y="120.036319"/>
     <use style="fill:#ffffff;stroke:#ffffff;" x="187.134545" xlink:href="#m4c5bc3f2dd" y="132.528138"/>
     <use style="fill:#ffffff;stroke:#ffffff;" x="188.352" xlink:href="#m4c5bc3f2dd" y="123.605906"/>
     <use style="fill:#ffffff;stroke:#ffffff;" x="189.569455" xlink:href="#m4c5bc3f2dd" y="117.853206"/>
     <use style="fill:#ffffff;stroke:#ffffff;" x="190.786909" xlink:href="#m4c5bc3f2dd" y="117.991293"/>
     <use style="fill:#ffffff;stroke:#ffffff;" x="192.004364" xlink:href="#m4c5bc3f2dd" y="121.665692"/>
     <use style="fill:#ffffff;stroke:#ffffff;" x="193.221818" xlink:href="#m4c5bc3f2dd" y="121.48048"/>
     <use style="fill:#ffffff;stroke:#ffffff;" x="194.439273" xlink:href="#m4c5bc3f2dd" y="122.278658"/>
     <use style="fill:#ffffff;stroke:#ffffff;" x="195.656727" xlink:href="#m4c5bc3f2dd" y="124.7563"/>
     <use style="fill:#ffffff;stroke:#ffffff;" x="196.874182" xlink:href="#m4c5bc3f2dd" y="126.394879"/>
     <use style="fill:#ffffff;stroke:#ffffff;" x="198.091636" xlink:href="#m4c5bc3f2dd" y="126.444835"/>
     <use style="fill:#ffffff;stroke:#ffffff;" x="199.309091" xlink:href="#m4c5bc3f2dd" y="126.863077"/>
     <use style="fill:#ffffff;stroke:#ffffff;" x="200.526545" xlink:href="#m4c5bc3f2dd" y="126.878226"/>
     <use style="fill:#ffffff;stroke:#ffffff;" x="201.744" xlink:href="#m4c5bc3f2dd" y="126.574622"/>
     <use style="fill:#ffffff;stroke:#ffffff;" x="202.961455" xlink:href="#m4c5bc3f2dd" y="128.36116"/>
     <use style="fill:#ffffff;stroke:#ffffff;" x="204.178909" xlink:href="#m4c5bc3f2dd" y="130.708199"/>
     <use style="fill:#ffffff;stroke:#ffffff;" x="205.396364" xlink:href="#m4c5bc3f2dd" y="127.249746"/>
     <use style="fill:#ffffff;stroke:#ffffff;" x="206.613818" xlink:href="#m4c5bc3f2dd" y="129.983914"/>
     <use style="fill:#ffffff;stroke:#ffffff;" x="207.831273" xlink:href="#m4c5bc3f2dd" y="131.781094"/>
     <use style="fill:#ffffff;stroke:#ffffff;" x="209.048727" xlink:href="#m4c5bc3f2dd" y="132.157835"/>
     <use style="fill:#ffffff;stroke:#ffffff;" x="210.266182" xlink:href="#m4c5bc3f2dd" y="131.486122"/>
     <use style="fill:#ffffff;stroke:#ffffff;" x="211.483636" xlink:href="#m4c5bc3f2dd" y="133.687301"/>
     <use style="fill:#ffffff;stroke:#ffffff;" x="212.701091" xlink:href="#m4c5bc3f2dd" y="133.876501"/>
     <use style="fill:#ffffff;stroke:#ffffff;" x="213.918545" xlink:href="#m4c5bc3f2dd" y="136.156879"/>
     <use style="fill:#ffffff;stroke:#ffffff;" x="215.136" xlink:href="#m4c5bc3f2dd" y="134.054831"/>
     <use style="fill:#ffffff;stroke:#ffffff;" x="216.353455" xlink:href="#m4c5bc3f2dd" y="134.618581"/>
     <use style="fill:#ffffff;stroke:#ffffff;" x="217.570909" xlink:href="#m4c5bc3f2dd" y="135.0149"/>
     <use style="fill:#ffffff;stroke:#ffffff;" x="218.788364" xlink:href="#m4c5bc3f2dd" y="136.027441"/>
     <use style="fill:#ffffff;stroke:#ffffff;" x="220.005818" xlink:href="#m4c5bc3f2dd" y="138.114668"/>
     <use style="fill:#ffffff;stroke:#ffffff;" x="221.223273" xlink:href="#m4c5bc3f2dd" y="140.213444"/>
     <use style="fill:#ffffff;stroke:#ffffff;" x="222.440727" xlink:href="#m4c5bc3f2dd" y="137.034628"/>
     <use style="fill:#ffffff;stroke:#ffffff;" x="223.658182" xlink:href="#m4c5bc3f2dd" y="138.824507"/>
     <use style="fill:#ffffff;stroke:#ffffff;" x="224.875636" xlink:href="#m4c5bc3f2dd" y="139.487955"/>
     <use style="fill:#ffffff;stroke:#ffffff;" x="226.093091" xlink:href="#m4c5bc3f2dd" y="141.047326"/>
     <use style="fill:#ffffff;stroke:#ffffff;" x="227.310545" xlink:href="#m4c5bc3f2dd" y="142.703993"/>
     <use style="fill:#ffffff;stroke:#ffffff;" x="228.528" xlink:href="#m4c5bc3f2dd" y="140.84574"/>
     <use style="fill:#ffffff;stroke:#ffffff;" x="229.745455" xlink:href="#m4c5bc3f2dd" y="143.615425"/>
     <use style="fill:#ffffff;stroke:#ffffff;" x="230.962909" xlink:href="#m4c5bc3f2dd" y="142.962285"/>
     <use style="fill:#ffffff;stroke:#ffffff;" x="232.180364" xlink:href="#m4c5bc3f2dd" y="144.748193"/>
     <use style="fill:#ffffff;stroke:#ffffff;" x="233.397818" xlink:href="#m4c5bc3f2dd" y="146.302619"/>
     <use style="fill:#ffffff;stroke:#ffffff;" x="234.615273" xlink:href="#m4c5bc3f2dd" y="145.530685"/>
     <use style="fill:#ffffff;stroke:#ffffff;" x="235.832727" xlink:href="#m4c5bc3f2dd" y="146.448"/>
     <use style="fill:#ffffff;stroke:#ffffff;" x="237.050182" xlink:href="#m4c5bc3f2dd" y="147.232068"/>
     <use style="fill:#ffffff;stroke:#ffffff;" x="238.267636" xlink:href="#m4c5bc3f2dd" y="147.381817"/>
     <use style="fill:#ffffff;stroke:#ffffff;" x="239.485091" xlink:href="#m4c5bc3f2dd" y="147.394525"/>
     <use style="fill:#ffffff;stroke:#ffffff;" x="240.702545" xlink:href="#m4c5bc3f2dd" y="148.141655"/>
     <use style="fill:#ffffff;stroke:#ffffff;" x="241.92" xlink:href="#m4c5bc3f2dd" y="149.832746"/>
     <use style="fill:#ffffff;stroke:#ffffff;" x="243.137455" xlink:href="#m4c5bc3f2dd" y="148.750322"/>
     <use style="fill:#ffffff;stroke:#ffffff;" x="244.354909" xlink:href="#m4c5bc3f2dd" y="149.101786"/>
     <use style="fill:#ffffff;stroke:#ffffff;" x="245.572364" xlink:href="#m4c5bc3f2dd" y="148.262431"/>
     <use style="fill:#ffffff;stroke:#ffffff;" x="246.789818" xlink:href="#m4c5bc3f2dd" y="152.25274"/>
     <use style="fill:#ffffff;stroke:#ffffff;" x="248.007273" xlink:href="#m4c5bc3f2dd" y="154.137946"/>
     <use style="fill:#ffffff;stroke:#ffffff;" x="249.224727" xlink:href="#m4c5bc3f2dd" y="153.561066"/>
     <use style="fill:#ffffff;stroke:#ffffff;" x="250.442182" xlink:href="#m4c5bc3f2dd" y="155.789078"/>
     <use style="fill:#ffffff;stroke:#ffffff;" x="251.659636" xlink:href="#m4c5bc3f2dd" y="153.157474"/>
     <use style="fill:#ffffff;stroke:#ffffff;" x="252.877091" xlink:href="#m4c5bc3f2dd" y="154.959742"/>
     <use style="fill:#ffffff;stroke:#ffffff;" x="254.094545" xlink:href="#m4c5bc3f2dd" y="156.696819"/>
     <use style="fill:#ffffff;stroke:#ffffff;" x="255.312" xlink:href="#m4c5bc3f2dd" y="154.447296"/>
     <use style="fill:#ffffff;stroke:#ffffff;" x="256.529455" xlink:href="#m4c5bc3f2dd" y="156.296739"/>
     <use style="fill:#ffffff;stroke:#ffffff;" x="257.746909" xlink:href="#m4c5bc3f2dd" y="157.474407"/>
     <use style="fill:#ffffff;stroke:#ffffff;" x="258.964364" xlink:href="#m4c5bc3f2dd" y="159.063762"/>
     <use style="fill:#ffffff;stroke:#ffffff;" x="260.181818" xlink:href="#m4c5bc3f2dd" y="156.90355"/>
     <use style="fill:#ffffff;stroke:#ffffff;" x="261.399273" xlink:href="#m4c5bc3f2dd" y="158.538066"/>
     <use style="fill:#ffffff;stroke:#ffffff;" x="262.616727" xlink:href="#m4c5bc3f2dd" y="162.634665"/>
     <use style="fill:#ffffff;stroke:#ffffff;" x="263.834182" xlink:href="#m4c5bc3f2dd" y="161.373731"/>
     <use style="fill:#ffffff;stroke:#ffffff;" x="265.051636" xlink:href="#m4c5bc3f2dd" y="162.439749"/>
     <use style="fill:#ffffff;stroke:#ffffff;" x="266.269091" xlink:href="#m4c5bc3f2dd" y="162.035034"/>
     <use style="fill:#ffffff;stroke:#ffffff;" x="267.486545" xlink:href="#m4c5bc3f2dd" y="162.525302"/>
     <use style="fill:#ffffff;stroke:#ffffff;" x="268.704" xlink:href="#m4c5bc3f2dd" y="162.427481"/>
     <use style="fill:#ffffff;stroke:#ffffff;" x="269.921455" xlink:href="#m4c5bc3f2dd" y="161.817147"/>
     <use style="fill:#ffffff;stroke:#ffffff;" x="271.138909" xlink:href="#m4c5bc3f2dd" y="164.03251"/>
     <use style="fill:#ffffff;stroke:#ffffff;" x="272.356364" xlink:href="#m4c5bc3f2dd" y="165.936908"/>
     <use style="fill:#ffffff;stroke:#ffffff;" x="273.573818" xlink:href="#m4c5bc3f2dd" y="165.697085"/>
     <use style="fill:#ffffff;stroke:#ffffff;" x="274.791273" xlink:href="#m4c5bc3f2dd" y="170.231056"/>
     <use style="fill:#ffffff;stroke:#ffffff;" x="276.008727" xlink:href="#m4c5bc3f2dd" y="168.24964"/>
     <use style="fill:#ffffff;stroke:#ffffff;" x="277.226182" xlink:href="#m4c5bc3f2dd" y="166.93391"/>
     <use style="fill:#ffffff;stroke:#ffffff;" x="278.443636" xlink:href="#m4c5bc3f2dd" y="168.771386"/>
     <use style="fill:#ffffff;stroke:#ffffff;" x="279.661091" xlink:href="#m4c5bc3f2dd" y="169.341187"/>
     <use style="fill:#ffffff;stroke:#ffffff;" x="280.878545" xlink:href="#m4c5bc3f2dd" y="169.993629"/>
     <use style="fill:#ffffff;stroke:#ffffff;" x="282.096" xlink:href="#m4c5bc3f2dd" y="169.147821"/>
     <use style="fill:#ffffff;stroke:#ffffff;" x="283.313455" xlink:href="#m4c5bc3f2dd" y="168.92251"/>
     <use style="fill:#ffffff;stroke:#ffffff;" x="284.530909" xlink:href="#m4c5bc3f2dd" y="172.430557"/>
     <use style="fill:#ffffff;stroke:#ffffff;" x="285.748364" xlink:href="#m4c5bc3f2dd" y="173.664258"/>
     <use style="fill:#ffffff;stroke:#ffffff;" x="286.965818" xlink:href="#m4c5bc3f2dd" y="172.286911"/>
     <use style="fill:#ffffff;stroke:#ffffff;" x="288.183273" xlink:href="#m4c5bc3f2dd" y="178.141962"/>
     <use style="fill:#ffffff;stroke:#ffffff;" x="289.400727" xlink:href="#m4c5bc3f2dd" y="179.293402"/>
     <use style="fill:#ffffff;stroke:#ffffff;" x="290.618182" xlink:href="#m4c5bc3f2dd" y="174.38234"/>
     <use style="fill:#ffffff;stroke:#ffffff;" x="291.835636" xlink:href="#m4c5bc3f2dd" y="179.583263"/>
     <use style="fill:#ffffff;stroke:#ffffff;" x="293.053091" xlink:href="#m4c5bc3f2dd" y="174.752095"/>
     <use style="fill:#ffffff;stroke:#ffffff;" x="294.270545" xlink:href="#m4c5bc3f2dd" y="173.007005"/>
     <use style="fill:#ffffff;stroke:#ffffff;" x="295.488" xlink:href="#m4c5bc3f2dd" y="177.971008"/>
     <use style="fill:#ffffff;stroke:#ffffff;" x="296.705455" xlink:href="#m4c5bc3f2dd" y="176.308591"/>
     <use style="fill:#ffffff;stroke:#ffffff;" x="297.922909" xlink:href="#m4c5bc3f2dd" y="182.994774"/>
     <use style="fill:#ffffff;stroke:#ffffff;" x="299.140364" xlink:href="#m4c5bc3f2dd" y="179.088151"/>
     <use style="fill:#ffffff;stroke:#ffffff;" x="300.357818" xlink:href="#m4c5bc3f2dd" y="181.052973"/>
     <use style="fill:#ffffff;stroke:#ffffff;" x="301.575273" xlink:href="#m4c5bc3f2dd" y="179.727714"/>
     <use style="fill:#ffffff;stroke:#ffffff;" x="302.792727" xlink:href="#m4c5bc3f2dd" y="181.749532"/>
     <use style="fill:#ffffff;stroke:#ffffff;" x="304.010182" xlink:href="#m4c5bc3f2dd" y="180.695355"/>
     <use style="fill:#ffffff;stroke:#ffffff;" x="305.227636" xlink:href="#m4c5bc3f2dd" y="181.199792"/>
     <use style="fill:#ffffff;stroke:#ffffff;" x="306.445091" xlink:href="#m4c5bc3f2dd" y="182.42213"/>
     <use style="fill:#ffffff;stroke:#ffffff;" x="307.662545" xlink:href="#m4c5bc3f2dd" y="181.150739"/>
     <use style="fill:#ffffff;stroke:#ffffff;" x="308.88" xlink:href="#m4c5bc3f2dd" y="187.313034"/>
     <use style="fill:#ffffff;stroke:#ffffff;" x="310.097455" xlink:href="#m4c5bc3f2dd" y="185.677168"/>
     <use style="fill:#ffffff;stroke:#ffffff;" x="311.314909" xlink:href="#m4c5bc3f2dd" y="186.126635"/>
     <use style="fill:#ffffff;stroke:#ffffff;" x="312.532364" xlink:href="#m4c5bc3f2dd" y="188.94208"/>
     <use style="fill:#ffffff;stroke:#ffffff;" x="313.749818" xlink:href="#m4c5bc3f2dd" y="189.399355"/>
     <use style="fill:#ffffff;stroke:#ffffff;" x="314.967273" xlink:href="#m4c5bc3f2dd" y="185.698763"/>
     <use style="fill:#ffffff;stroke:#ffffff;" x="316.184727" xlink:href="#m4c5bc3f2dd" y="186.612883"/>
     <use style="fill:#ffffff;stroke:#ffffff;" x="317.402182" xlink:href="#m4c5bc3f2dd" y="187.002471"/>
     <use style="fill:#ffffff;stroke:#ffffff;" x="318.619636" xlink:href="#m4c5bc3f2dd" y="184.640106"/>
     <use style="fill:#ffffff;stroke:#ffffff;" x="319.837091" xlink:href="#m4c5bc3f2dd" y="190.881172"/>
     <use style="fill:#ffffff;stroke:#ffffff;" x="321.054545" xlink:href="#m4c5bc3f2dd" y="195.827597"/>
     <use style="fill:#ffffff;stroke:#ffffff;" x="322.272" xlink:href="#m4c5bc3f2dd" y="194.458074"/>
     <use style="fill:#ffffff;stroke:#ffffff;" x="323.489455" xlink:href="#m4c5bc3f2dd" y="187.987374"/>
     <use style="fill:#ffffff;stroke:#ffffff;" x="324.706909" xlink:href="#m4c5bc3f2dd" y="191.631442"/>
     <use style="fill:#ffffff;stroke:#ffffff;" x="325.924364" xlink:href="#m4c5bc3f2dd" y="192.581671"/>
     <use style="fill:#ffffff;stroke:#ffffff;" x="327.141818" xlink:href="#m4c5bc3f2dd" y="192.942404"/>
     <use style="fill:#ffffff;stroke:#ffffff;" x="328.359273" xlink:href="#m4c5bc3f2dd" y="195.490241"/>
     <use style="fill:#ffffff;stroke:#ffffff;" x="329.576727" xlink:href="#m4c5bc3f2dd" y="197.064924"/>
     <use style="fill:#ffffff;stroke:#ffffff;" x="330.794182" xlink:href="#m4c5bc3f2dd" y="196.494716"/>
     <use style="fill:#ffffff;stroke:#ffffff;" x="332.011636" xlink:href="#m4c5bc3f2dd" y="197.329077"/>
     <use style="fill:#ffffff;stroke:#ffffff;" x="333.229091" xlink:href="#m4c5bc3f2dd" y="197.813821"/>
     <use style="fill:#ffffff;stroke:#ffffff;" x="334.446545" xlink:href="#m4c5bc3f2dd" y="200.864459"/>
     <use style="fill:#ffffff;stroke:#ffffff;" x="335.664" xlink:href="#m4c5bc3f2dd" y="194.782401"/>
     <use style="fill:#ffffff;stroke:#ffffff;" x="336.881455" xlink:href="#m4c5bc3f2dd" y="198.6132"/>
     <use style="fill:#ffffff;stroke:#ffffff;" x="338.098909" xlink:href="#m4c5bc3f2dd" y="200.620834"/>
     <use style="fill:#ffffff;stroke:#ffffff;" x="339.316364" xlink:href="#m4c5bc3f2dd" y="194.390404"/>
     <use style="fill:#ffffff;stroke:#ffffff;" x="340.533818" xlink:href="#m4c5bc3f2dd" y="205.65862"/>
     <use style="fill:#ffffff;stroke:#ffffff;" x="341.751273" xlink:href="#m4c5bc3f2dd" y="199.363906"/>
     <use style="fill:#ffffff;stroke:#ffffff;" x="342.968727" xlink:href="#m4c5bc3f2dd" y="204.353654"/>
     <use style="fill:#ffffff;stroke:#ffffff;" x="344.186182" xlink:href="#m4c5bc3f2dd" y="204.149182"/>
     <use style="fill:#ffffff;stroke:#ffffff;" x="345.403636" xlink:href="#m4c5bc3f2dd" y="206.72166"/>
     <use style="fill:#ffffff;stroke:#ffffff;" x="346.621091" xlink:href="#m4c5bc3f2dd" y="201.203901"/>
     <use style="fill:#ffffff;stroke:#ffffff;" x="347.838545" xlink:href="#m4c5bc3f2dd" y="201.124322"/>
     <use style="fill:#ffffff;stroke:#ffffff;" x="349.056" xlink:href="#m4c5bc3f2dd" y="200.151225"/>
     <use style="fill:#ffffff;stroke:#ffffff;" x="350.273455" xlink:href="#m4c5bc3f2dd" y="199.877572"/>
     <use style="fill:#ffffff;stroke:#ffffff;" x="351.490909" xlink:href="#m4c5bc3f2dd" y="207.597489"/>
     <use style="fill:#ffffff;stroke:#ffffff;" x="352.708364" xlink:href="#m4c5bc3f2dd" y="207.116757"/>
     <use style="fill:#ffffff;stroke:#ffffff;" x="353.925818" xlink:href="#m4c5bc3f2dd" y="217.219994"/>
     <use style="fill:#ffffff;stroke:#ffffff;" x="355.143273" xlink:href="#m4c5bc3f2dd" y="214.898491"/>
     <use style="fill:#ffffff;stroke:#ffffff;" x="356.360727" xlink:href="#m4c5bc3f2dd" y="204.947396"/>
     <use style="fill:#ffffff;stroke:#ffffff;" x="357.578182" xlink:href="#m4c5bc3f2dd" y="203.140245"/>
     <use style="fill:#ffffff;stroke:#ffffff;" x="358.795636" xlink:href="#m4c5bc3f2dd" y="210.21526"/>
     <use style="fill:#ffffff;stroke:#ffffff;" x="360.013091" xlink:href="#m4c5bc3f2dd" y="204.361142"/>
     <use style="fill:#ffffff;stroke:#ffffff;" x="361.230545" xlink:href="#m4c5bc3f2dd" y="216.009422"/>
     <use style="fill:#ffffff;stroke:#ffffff;" x="362.448" xlink:href="#m4c5bc3f2dd" y="212.905107"/>
     <use style="fill:#ffffff;stroke:#ffffff;" x="363.665455" xlink:href="#m4c5bc3f2dd" y="206.307245"/>
     <use style="fill:#ffffff;stroke:#ffffff;" x="364.882909" xlink:href="#m4c5bc3f2dd" y="225.839198"/>
     <use style="fill:#ffffff;stroke:#ffffff;" x="366.100364" xlink:href="#m4c5bc3f2dd" y="224.527036"/>
     <use style="fill:#ffffff;stroke:#ffffff;" x="367.317818" xlink:href="#m4c5bc3f2dd" y="207.414066"/>
     <use style="fill:#ffffff;stroke:#ffffff;" x="368.535273" xlink:href="#m4c5bc3f2dd" y="217.786535"/>
     <use style="fill:#ffffff;stroke:#ffffff;" x="369.752727" xlink:href="#m4c5bc3f2dd" y="207.937181"/>
     <use style="fill:#ffffff;stroke:#ffffff;" x="370.970182" xlink:href="#m4c5bc3f2dd" y="216.653129"/>
     <use style="fill:#ffffff;stroke:#ffffff;" x="372.187636" xlink:href="#m4c5bc3f2dd" y="209.49264"/>
     <use style="fill:#ffffff;stroke:#ffffff;" x="373.405091" xlink:href="#m4c5bc3f2dd" y="227.750945"/>
     <use style="fill:#ffffff;stroke:#ffffff;" x="374.622545" xlink:href="#m4c5bc3f2dd" y="218.000413"/>
     <use style="fill:#ffffff;stroke:#ffffff;" x="375.84" xlink:href="#m4c5bc3f2dd" y="212.415884"/>
     <use style="fill:#ffffff;stroke:#ffffff;" x="377.057455" xlink:href="#m4c5bc3f2dd" y="214.59131"/>
     <use style="fill:#ffffff;stroke:#ffffff;" x="378.274909" xlink:href="#m4c5bc3f2dd" y="216.898169"/>
     <use style="fill:#ffffff;stroke:#ffffff;" x="379.492364" xlink:href="#m4c5bc3f2dd" y="222.57994"/>
     <use style="fill:#ffffff;stroke:#ffffff;" x="380.709818" xlink:href="#m4c5bc3f2dd" y="209.226594"/>
     <use style="fill:#ffffff;stroke:#ffffff;" x="381.927273" xlink:href="#m4c5bc3f2dd" y="225.687925"/>
     <use style="fill:#ffffff;stroke:#ffffff;" x="383.144727" xlink:href="#m4c5bc3f2dd" y="220.165971"/>
     <use style="fill:#ffffff;stroke:#ffffff;" x="384.362182" xlink:href="#m4c5bc3f2dd" y="220.654102"/>
     <use style="fill:#ffffff;stroke:#ffffff;" x="385.579636" xlink:href="#m4c5bc3f2dd" y="232.373121"/>
     <use style="fill:#ffffff;stroke:#ffffff;" x="386.797091" xlink:href="#m4c5bc3f2dd" y="227.385954"/>
     <use style="fill:#ffffff;stroke:#ffffff;" x="388.014545" xlink:href="#m4c5bc3f2dd" y="226.013395"/>
     <use style="fill:#ffffff;stroke:#ffffff;" x="389.232" xlink:href="#m4c5bc3f2dd" y="217.39983"/>
     <use style="fill:#ffffff;stroke:#ffffff;" x="390.449455" xlink:href="#m4c5bc3f2dd" y="223.941009"/>
     <use style="fill:#ffffff;stroke:#ffffff;" x="391.666909" xlink:href="#m4c5bc3f2dd" y="207.541405"/>
     <use style="fill:#ffffff;stroke:#ffffff;" x="392.884364" xlink:href="#m4c5bc3f2dd" y="229.580241"/>
     <use style="fill:#ffffff;stroke:#ffffff;" x="394.101818" xlink:href="#m4c5bc3f2dd" y="224.400384"/>
     <use style="fill:#ffffff;stroke:#ffffff;" x="395.319273" xlink:href="#m4c5bc3f2dd" y="228.842991"/>
     <use style="fill:#ffffff;stroke:#ffffff;" x="396.536727" xlink:href="#m4c5bc3f2dd" y="219.558161"/>
     <use style="fill:#ffffff;stroke:#ffffff;" x="397.754182" xlink:href="#m4c5bc3f2dd" y="247.37295"/>
     <use style="fill:#ffffff;stroke:#ffffff;" x="398.971636" xlink:href="#m4c5bc3f2dd" y="228.215792"/>
     <use style="fill:#ffffff;stroke:#ffffff;" x="400.189091" xlink:href="#m4c5bc3f2dd" y="235.791908"/>
     <use style="fill:#ffffff;stroke:#ffffff;" x="401.406545" xlink:href="#m4c5bc3f2dd" y="207.06"/>
     <use style="fill:#ffffff;stroke:#ffffff;" x="402.624" xlink:href="#m4c5bc3f2dd" y="217.810875"/>
     <use style="fill:#ffffff;stroke:#ffffff;" x="403.841455" xlink:href="#m4c5bc3f2dd" y="234.757143"/>
     <use style="fill:#ffffff;stroke:#ffffff;" x="405.058909" xlink:href="#m4c5bc3f2dd" y="199.754117"/>
     <use style="fill:#ffffff;stroke:#ffffff;" x="405.216931" xlink:href="#m4c5bc3f2dd" y="41473"/>
     <use style="fill:#ffffff;stroke:#ffffff;" x="407.335799" xlink:href="#m4c5bc3f2dd" y="41473"/>
     <use style="fill:#ffffff;stroke:#ffffff;" x="407.493818" xlink:href="#m4c5bc3f2dd" y="200.660636"/>
     <use style="fill:#ffffff;stroke:#ffffff;" x="408.711273" xlink:href="#m4c5bc3f2dd" y="238.083473"/>
     <use style="fill:#ffffff;stroke:#ffffff;" x="409.928727" xlink:href="#m4c5bc3f2dd" y="228.688636"/>
     <use style="fill:#ffffff;stroke:#ffffff;" x="411.146182" xlink:href="#m4c5bc3f2dd" y="216.948137"/>
     <use style="fill:#ffffff;stroke:#ffffff;" x="412.363636" xlink:href="#m4c5bc3f2dd" y="231.727993"/>
     <use style="fill:#ffffff;stroke:#ffffff;" x="413.581091" xlink:href="#m4c5bc3f2dd" y="221.90609"/>
     <use style="fill:#ffffff;stroke:#ffffff;" x="414.798545" xlink:href="#m4c5bc3f2dd" y="254.645234"/>
     <use style="fill:#ffffff;stroke:#ffffff;" x="416.016" xlink:href="#m4c5bc3f2dd" y="228.599128"/>
     <use style="fill:#ffffff;stroke:#ffffff;" x="417.233455" xlink:href="#m4c5bc3f2dd" y="237.581506"/>
     <use style="fill:#ffffff;stroke:#ffffff;" x="418.450909" xlink:href="#m4c5bc3f2dd" y="236.953321"/>
     <use style="fill:#ffffff;stroke:#ffffff;" x="419.668364" xlink:href="#m4c5bc3f2dd" y="244.206927"/>
     <use style="fill:#ffffff;stroke:#ffffff;" x="420.885818" xlink:href="#m4c5bc3f2dd" y="244.589989"/>
     <use style="fill:#ffffff;stroke:#ffffff;" x="422.103273" xlink:href="#m4c5bc3f2dd" y="224.919934"/>
     <use style="fill:#ffffff;stroke:#ffffff;" x="423.320727" xlink:href="#m4c5bc3f2dd" y="236.042523"/>
     <use style="fill:#ffffff;stroke:#ffffff;" x="424.538182" xlink:href="#m4c5bc3f2dd" y="240.281657"/>
     <use style="fill:#ffffff;stroke:#ffffff;" x="425.755636" xlink:href="#m4c5bc3f2dd" y="247.161798"/>
     <use style="fill:#ffffff;stroke:#ffffff;" x="426.973091" xlink:href="#m4c5bc3f2dd" y="251.657409"/>
     <use style="fill:#ffffff;stroke:#ffffff;" x="428.190545" xlink:href="#m4c5bc3f2dd" y="240.828116"/>
     <use style="fill:#ffffff;stroke:#ffffff;" x="429.408" xlink:href="#m4c5bc3f2dd" y="242.309339"/>
     <use style="fill:#ffffff;stroke:#ffffff;" x="430.625455" xlink:href="#m4c5bc3f2dd" y="249.903517"/>
     <use style="fill:#ffffff;stroke:#ffffff;" x="431.842909" xlink:href="#m4c5bc3f2dd" y="244.663773"/>
     <use style="fill:#ffffff;stroke:#ffffff;" x="433.060364" xlink:href="#m4c5bc3f2dd" y="240.918037"/>
     <use style="fill:#ffffff;stroke:#ffffff;" x="434.277818" xlink:href="#m4c5bc3f2dd" y="249.970341"/>
     <use style="fill:#ffffff;stroke:#ffffff;" x="435.495273" xlink:href="#m4c5bc3f2dd" y="244.893108"/>
     <use style="fill:#ffffff;stroke:#ffffff;" x="436.712727" xlink:href="#m4c5bc3f2dd" y="240.008904"/>
     <use style="fill:#ffffff;stroke:#ffffff;" x="437.930182" xlink:href="#m4c5bc3f2dd" y="249.367215"/>
     <use style="fill:#ffffff;stroke:#ffffff;" x="439.147636" xlink:href="#m4c5bc3f2dd" y="257.317544"/>
     <use style="fill:#ffffff;stroke:#ffffff;" x="440.365091" xlink:href="#m4c5bc3f2dd" y="243.899433"/>
     <use style="fill:#ffffff;stroke:#ffffff;" x="441.582545" xlink:href="#m4c5bc3f2dd" y="249.905952"/>
     <use style="fill:#ffffff;stroke:#ffffff;" x="442.8" xlink:href="#m4c5bc3f2dd" y="243.063453"/>
     <use style="fill:#ffffff;stroke:#ffffff;" x="444.017455" xlink:href="#m4c5bc3f2dd" y="251.238684"/>
     <use style="fill:#ffffff;stroke:#ffffff;" x="445.234909" xlink:href="#m4c5bc3f2dd" y="254.447647"/>
     <use style="fill:#ffffff;stroke:#ffffff;" x="446.452364" xlink:href="#m4c5bc3f2dd" y="248.796774"/>
     <use style="fill:#ffffff;stroke:#ffffff;" x="447.669818" xlink:href="#m4c5bc3f2dd" y="266.721049"/>
     <use style="fill:#ffffff;stroke:#ffffff;" x="448.887273" xlink:href="#m4c5bc3f2dd" y="250.081655"/>
     <use style="fill:#ffffff;stroke:#ffffff;" x="450.104727" xlink:href="#m4c5bc3f2dd" y="255.738423"/>
     <use style="fill:#ffffff;stroke:#ffffff;" x="451.322182" xlink:href="#m4c5bc3f2dd" y="259.557291"/>
     <use style="fill:#ffffff;stroke:#ffffff;" x="452.539636" xlink:href="#m4c5bc3f2dd" y="252.257163"/>
     <use style="fill:#ffffff;stroke:#ffffff;" x="453.757091" xlink:href="#m4c5bc3f2dd" y="253.906322"/>
     <use style="fill:#ffffff;stroke:#ffffff;" x="454.974545" xlink:href="#m4c5bc3f2dd" y="253.755202"/>
     <use style="fill:#ffffff;stroke:#ffffff;" x="456.192" xlink:href="#m4c5bc3f2dd" y="255.141843"/>
     <use style="fill:#ffffff;stroke:#ffffff;" x="457.409455" xlink:href="#m4c5bc3f2dd" y="253.261463"/>
     <use style="fill:#ffffff;stroke:#ffffff;" x="458.626909" xlink:href="#m4c5bc3f2dd" y="270.168585"/>
     <use style="fill:#ffffff;stroke:#ffffff;" x="459.844364" xlink:href="#m4c5bc3f2dd" y="259.438483"/>
     <use style="fill:#ffffff;stroke:#ffffff;" x="461.061818" xlink:href="#m4c5bc3f2dd" y="261.084438"/>
     <use style="fill:#ffffff;stroke:#ffffff;" x="462.279273" xlink:href="#m4c5bc3f2dd" y="253.52385"/>
     <use style="fill:#ffffff;stroke:#ffffff;" x="463.496727" xlink:href="#m4c5bc3f2dd" y="259.200766"/>
     <use style="fill:#ffffff;stroke:#ffffff;" x="464.714182" xlink:href="#m4c5bc3f2dd" y="263.515261"/>
     <use style="fill:#ffffff;stroke:#ffffff;" x="465.931636" xlink:href="#m4c5bc3f2dd" y="261.594664"/>
     <use style="fill:#ffffff;stroke:#ffffff;" x="467.149091" xlink:href="#m4c5bc3f2dd" y="263.092162"/>
     <use style="fill:#ffffff;stroke:#ffffff;" x="468.366545" xlink:href="#m4c5bc3f2dd" y="265.443523"/>
     <use style="fill:#ffffff;stroke:#ffffff;" x="469.584" xlink:href="#m4c5bc3f2dd" y="265.459822"/>
     <use style="fill:#ffffff;stroke:#ffffff;" x="470.801455" xlink:href="#m4c5bc3f2dd" y="263.194468"/>
     <use style="fill:#ffffff;stroke:#ffffff;" x="472.018909" xlink:href="#m4c5bc3f2dd" y="272.181013"/>
     <use style="fill:#ffffff;stroke:#ffffff;" x="473.236364" xlink:href="#m4c5bc3f2dd" y="263.585835"/>
     <use style="fill:#ffffff;stroke:#ffffff;" x="474.453818" xlink:href="#m4c5bc3f2dd" y="270.868899"/>
     <use style="fill:#ffffff;stroke:#ffffff;" x="475.671273" xlink:href="#m4c5bc3f2dd" y="273.938324"/>
     <use style="fill:#ffffff;stroke:#ffffff;" x="476.888727" xlink:href="#m4c5bc3f2dd" y="267.734112"/>
     <use style="fill:#ffffff;stroke:#ffffff;" x="478.106182" xlink:href="#m4c5bc3f2dd" y="269.915591"/>
     <use style="fill:#ffffff;stroke:#ffffff;" x="479.323636" xlink:href="#m4c5bc3f2dd" y="275.641568"/>
     <use style="fill:#ffffff;stroke:#ffffff;" x="480.541091" xlink:href="#m4c5bc3f2dd" y="270.802409"/>
     <use style="fill:#ffffff;stroke:#ffffff;" x="481.758545" xlink:href="#m4c5bc3f2dd" y="270.006386"/>
     <use style="fill:#ffffff;stroke:#ffffff;" x="482.976" xlink:href="#m4c5bc3f2dd" y="272.165408"/>
     <use style="fill:#ffffff;stroke:#ffffff;" x="484.193455" xlink:href="#m4c5bc3f2dd" y="275.420793"/>
     <use style="fill:#ffffff;stroke:#ffffff;" x="485.410909" xlink:href="#m4c5bc3f2dd" y="275.265275"/>
     <use style="fill:#ffffff;stroke:#ffffff;" x="486.628364" xlink:href="#m4c5bc3f2dd" y="277.839459"/>
     <use style="fill:#ffffff;stroke:#ffffff;" x="487.845818" xlink:href="#m4c5bc3f2dd" y="275.300144"/>
     <use style="fill:#ffffff;stroke:#ffffff;" x="489.063273" xlink:href="#m4c5bc3f2dd" y="275.02329"/>
     <use style="fill:#ffffff;stroke:#ffffff;" x="490.280727" xlink:href="#m4c5bc3f2dd" y="272.633339"/>
     <use style="fill:#ffffff;stroke:#ffffff;" x="491.498182" xlink:href="#m4c5bc3f2dd" y="283.77777"/>
     <use style="fill:#ffffff;stroke:#ffffff;" x="492.715636" xlink:href="#m4c5bc3f2dd" y="280.409974"/>
     <use style="fill:#ffffff;stroke:#ffffff;" x="493.933091" xlink:href="#m4c5bc3f2dd" y="278.051851"/>
     <use style="fill:#ffffff;stroke:#ffffff;" x="495.150545" xlink:href="#m4c5bc3f2dd" y="278.056281"/>
     <use style="fill:#ffffff;stroke:#ffffff;" x="496.368" xlink:href="#m4c5bc3f2dd" y="283.99192"/>
     <use style="fill:#ffffff;stroke:#ffffff;" x="497.585455" xlink:href="#m4c5bc3f2dd" y="285.979858"/>
     <use style="fill:#ffffff;stroke:#ffffff;" x="498.802909" xlink:href="#m4c5bc3f2dd" y="284.678419"/>
     <use style="fill:#ffffff;stroke:#ffffff;" x="500.020364" xlink:href="#m4c5bc3f2dd" y="284.548534"/>
     <use style="fill:#ffffff;stroke:#ffffff;" x="501.237818" xlink:href="#m4c5bc3f2dd" y="287.262559"/>
     <use style="fill:#ffffff;stroke:#ffffff;" x="502.455273" xlink:href="#m4c5bc3f2dd" y="284.560268"/>
     <use style="fill:#ffffff;stroke:#ffffff;" x="503.672727" xlink:href="#m4c5bc3f2dd" y="288.15045"/>
     <use style="fill:#ffffff;stroke:#ffffff;" x="504.890182" xlink:href="#m4c5bc3f2dd" y="282.287801"/>
     <use style="fill:#ffffff;stroke:#ffffff;" x="506.107636" xlink:href="#m4c5bc3f2dd" y="288.706099"/>
     <use style="fill:#ffffff;stroke:#ffffff;" x="507.325091" xlink:href="#m4c5bc3f2dd" y="286.901913"/>
     <use style="fill:#ffffff;stroke:#ffffff;" x="508.542545" xlink:href="#m4c5bc3f2dd" y="286.89966"/>
     <use style="fill:#ffffff;stroke:#ffffff;" x="509.76" xlink:href="#m4c5bc3f2dd" y="291.56654"/>
     <use style="fill:#ffffff;stroke:#ffffff;" x="510.977455" xlink:href="#m4c5bc3f2dd" y="289.220102"/>
     <use style="fill:#ffffff;stroke:#ffffff;" x="512.194909" xlink:href="#m4c5bc3f2dd" y="291.66556"/>
     <use style="fill:#ffffff;stroke:#ffffff;" x="513.412364" xlink:href="#m4c5bc3f2dd" y="289.387683"/>
     <use style="fill:#ffffff;stroke:#ffffff;" x="514.629818" xlink:href="#m4c5bc3f2dd" y="296.237104"/>
     <use style="fill:#ffffff;stroke:#ffffff;" x="515.847273" xlink:href="#m4c5bc3f2dd" y="288.858742"/>
     <use style="fill:#ffffff;stroke:#ffffff;" x="517.064727" xlink:href="#m4c5bc3f2dd" y="295.364575"/>
     <use style="fill:#ffffff;stroke:#ffffff;" x="518.282182" xlink:href="#m4c5bc3f2dd" y="293.833071"/>
     <use style="fill:#ffffff;stroke:#ffffff;" x="519.499636" xlink:href="#m4c5bc3f2dd" y="299.726281"/>
     <use style="fill:#ffffff;stroke:#ffffff;" x="520.717091" xlink:href="#m4c5bc3f2dd" y="296.891171"/>
     <use style="fill:#ffffff;stroke:#ffffff;" x="521.934545" xlink:href="#m4c5bc3f2dd" y="302.648498"/>
     <use style="fill:#ffffff;stroke:#ffffff;" x="523.152" xlink:href="#m4c5bc3f2dd" y="293.739793"/>
     <use style="fill:#ffffff;stroke:#ffffff;" x="524.369455" xlink:href="#m4c5bc3f2dd" y="300.688733"/>
     <use style="fill:#ffffff;stroke:#ffffff;" x="525.586909" xlink:href="#m4c5bc3f2dd" y="299.230181"/>
     <use style="fill:#ffffff;stroke:#ffffff;" x="526.804364" xlink:href="#m4c5bc3f2dd" y="302.436332"/>
     <use style="fill:#ffffff;stroke:#ffffff;" x="528.021818" xlink:href="#m4c5bc3f2dd" y="304.392374"/>
     <use style="fill:#ffffff;stroke:#ffffff;" x="529.239273" xlink:href="#m4c5bc3f2dd" y="302.217278"/>
     <use style="fill:#ffffff;stroke:#ffffff;" x="530.456727" xlink:href="#m4c5bc3f2dd" y="306.059123"/>
     <use style="fill:#ffffff;stroke:#ffffff;" x="531.674182" xlink:href="#m4c5bc3f2dd" y="303.476163"/>
     <use style="fill:#ffffff;stroke:#ffffff;" x="532.891636" xlink:href="#m4c5bc3f2dd" y="304.06111"/>
     <use style="fill:#ffffff;stroke:#ffffff;" x="534.109091" xlink:href="#m4c5bc3f2dd" y="308.463368"/>
     <use style="fill:#ffffff;stroke:#ffffff;" x="535.326545" xlink:href="#m4c5bc3f2dd" y="304.424194"/>
     <use style="fill:#ffffff;stroke:#ffffff;" x="536.544" xlink:href="#m4c5bc3f2dd" y="307.448954"/>
     <use style="fill:#ffffff;stroke:#ffffff;" x="537.761455" xlink:href="#m4c5bc3f2dd" y="310.748148"/>
     <use style="fill:#ffffff;stroke:#ffffff;" x="538.978909" xlink:href="#m4c5bc3f2dd" y="309.124186"/>
     <use style="fill:#ffffff;stroke:#ffffff;" x="540.196364" xlink:href="#m4c5bc3f2dd" y="312.270295"/>
     <use style="fill:#ffffff;stroke:#ffffff;" x="541.413818" xlink:href="#m4c5bc3f2dd" y="311.066211"/>
     <use style="fill:#ffffff;stroke:#ffffff;" x="542.631273" xlink:href="#m4c5bc3f2dd" y="311.792002"/>
     <use style="fill:#ffffff;stroke:#ffffff;" x="543.848727" xlink:href="#m4c5bc3f2dd" y="313.653786"/>
     <use style="fill:#ffffff;stroke:#ffffff;" x="545.066182" xlink:href="#m4c5bc3f2dd" y="313.616526"/>
     <use style="fill:#ffffff;stroke:#ffffff;" x="546.283636" xlink:href="#m4c5bc3f2dd" y="310.58984"/>
     <use style="fill:#ffffff;stroke:#ffffff;" x="547.501091" xlink:href="#m4c5bc3f2dd" y="312.949034"/>
     <use style="fill:#ffffff;stroke:#ffffff;" x="548.718545" xlink:href="#m4c5bc3f2dd" y="317.007392"/>
     <use style="fill:#ffffff;stroke:#ffffff;" x="549.936" xlink:href="#m4c5bc3f2dd" y="327.143354"/>
     <use style="fill:#ffffff;stroke:#ffffff;" x="551.153455" xlink:href="#m4c5bc3f2dd" y="315.689567"/>
     <use style="fill:#ffffff;stroke:#ffffff;" x="552.370909" xlink:href="#m4c5bc3f2dd" y="312.114176"/>
     <use style="fill:#ffffff;stroke:#ffffff;" x="553.588364" xlink:href="#m4c5bc3f2dd" y="321.459647"/>
     <use style="fill:#ffffff;stroke:#ffffff;" x="554.805818" xlink:href="#m4c5bc3f2dd" y="319.551335"/>
     <use style="fill:#ffffff;stroke:#ffffff;" x="556.023273" xlink:href="#m4c5bc3f2dd" y="317.771546"/>
     <use style="fill:#ffffff;stroke:#ffffff;" x="557.240727" xlink:href="#m4c5bc3f2dd" y="326.866114"/>
     <use style="fill:#ffffff;stroke:#ffffff;" x="558.458182" xlink:href="#m4c5bc3f2dd" y="318.414456"/>
     <use style="fill:#ffffff;stroke:#ffffff;" x="559.675636" xlink:href="#m4c5bc3f2dd" y="321.672694"/>
     <use style="fill:#ffffff;stroke:#ffffff;" x="560.893091" xlink:href="#m4c5bc3f2dd" y="323.874299"/>
     <use style="fill:#ffffff;stroke:#ffffff;" x="562.110545" xlink:href="#m4c5bc3f2dd" y="324.669003"/>
     <use style="fill:#ffffff;stroke:#ffffff;" x="563.328" xlink:href="#m4c5bc3f2dd" y="325.728161"/>
     <use style="fill:#ffffff;stroke:#ffffff;" x="564.545455" xlink:href="#m4c5bc3f2dd" y="328.925962"/>
     <use style="fill:#ffffff;stroke:#ffffff;" x="565.762909" xlink:href="#m4c5bc3f2dd" y="326.063398"/>
     <use style="fill:#ffffff;stroke:#ffffff;" x="566.980364" xlink:href="#m4c5bc3f2dd" y="324.97422"/>
     <use style="fill:#ffffff;stroke:#ffffff;" x="568.197818" xlink:href="#m4c5bc3f2dd" y="324.145515"/>
     <use style="fill:#ffffff;stroke:#ffffff;" x="569.415273" xlink:href="#m4c5bc3f2dd" y="335.43992"/>
     <use style="fill:#ffffff;stroke:#ffffff;" x="570.632727" xlink:href="#m4c5bc3f2dd" y="331.334508"/>
     <use style="fill:#ffffff;stroke:#ffffff;" x="571.850182" xlink:href="#m4c5bc3f2dd" y="334.763754"/>
     <use style="fill:#ffffff;stroke:#ffffff;" x="573.067636" xlink:href="#m4c5bc3f2dd" y="333.919218"/>
     <use style="fill:#ffffff;stroke:#ffffff;" x="574.285091" xlink:href="#m4c5bc3f2dd" y="334.270346"/>
     <use style="fill:#ffffff;stroke:#ffffff;" x="575.502545" xlink:href="#m4c5bc3f2dd" y="335.269339"/>
     <use style="fill:#ffffff;stroke:#ffffff;" x="576.72" xlink:href="#m4c5bc3f2dd" y="335.653192"/>
     <use style="fill:#ffffff;stroke:#ffffff;" x="577.937455" xlink:href="#m4c5bc3f2dd" y="338.417953"/>
     <use style="fill:#ffffff;stroke:#ffffff;" x="579.154909" xlink:href="#m4c5bc3f2dd" y="334.030087"/>
     <use style="fill:#ffffff;stroke:#ffffff;" x="580.372364" xlink:href="#m4c5bc3f2dd" y="341.120968"/>
     <use style="fill:#ffffff;stroke:#ffffff;" x="581.589818" xlink:href="#m4c5bc3f2dd" y="344.42053"/>
     <use style="fill:#ffffff;stroke:#ffffff;" x="582.807273" xlink:href="#m4c5bc3f2dd" y="339.02644"/>
     <use style="fill:#ffffff;stroke:#ffffff;" x="584.024727" xlink:href="#m4c5bc3f2dd" y="339.803442"/>
     <use style="fill:#ffffff;stroke:#ffffff;" x="585.242182" xlink:href="#m4c5bc3f2dd" y="338.440281"/>
     <use style="fill:#ffffff;stroke:#ffffff;" x="586.459636" xlink:href="#m4c5bc3f2dd" y="342.799932"/>
     <use style="fill:#ffffff;stroke:#ffffff;" x="587.677091" xlink:href="#m4c5bc3f2dd" y="335.364193"/>
     <use style="fill:#ffffff;stroke:#ffffff;" x="588.894545" xlink:href="#m4c5bc3f2dd" y="343.519934"/>
     <use style="fill:#ffffff;stroke:#ffffff;" x="590.112" xlink:href="#m4c5bc3f2dd" y="343.957614"/>
     <use style="fill:#ffffff;stroke:#ffffff;" x="591.329455" xlink:href="#m4c5bc3f2dd" y="345.768103"/>
     <use style="fill:#ffffff;stroke:#ffffff;" x="592.546909" xlink:href="#m4c5bc3f2dd" y="344.513659"/>
     <use style="fill:#ffffff;stroke:#ffffff;" x="593.764364" xlink:href="#m4c5bc3f2dd" y="345.233073"/>
     <use style="fill:#ffffff;stroke:#ffffff;" x="594.981818" xlink:href="#m4c5bc3f2dd" y="345.204221"/>
     <use style="fill:#ffffff;stroke:#ffffff;" x="596.199273" xlink:href="#m4c5bc3f2dd" y="349.115771"/>
     <use style="fill:#ffffff;stroke:#ffffff;" x="597.416727" xlink:href="#m4c5bc3f2dd" y="352.058993"/>
     <use style="fill:#ffffff;stroke:#ffffff;" x="598.634182" xlink:href="#m4c5bc3f2dd" y="345.254384"/>
     <use style="fill:#ffffff;stroke:#ffffff;" x="599.851636" xlink:href="#m4c5bc3f2dd" y="348.218763"/>
     <use style="fill:#ffffff;stroke:#ffffff;" x="601.069091" xlink:href="#m4c5bc3f2dd" y="356.857445"/>
     <use style="fill:#ffffff;stroke:#ffffff;" x="602.286545" xlink:href="#m4c5bc3f2dd" y="356.903137"/>
     <use style="fill:#ffffff;stroke:#ffffff;" x="603.504" xlink:href="#m4c5bc3f2dd" y="350.977912"/>
     <use style="fill:#ffffff;stroke:#ffffff;" x="604.721455" xlink:href="#m4c5bc3f2dd" y="349.793565"/>
     <use style="fill:#ffffff;stroke:#ffffff;" x="605.938909" xlink:href="#m4c5bc3f2dd" y="354.265409"/>
     <use style="fill:#ffffff;stroke:#ffffff;" x="607.156364" xlink:href="#m4c5bc3f2dd" y="359.475721"/>
     <use style="fill:#ffffff;stroke:#ffffff;" x="608.373818" xlink:href="#m4c5bc3f2dd" y="360.172453"/>
     <use style="fill:#ffffff;stroke:#ffffff;" x="609.591273" xlink:href="#m4c5bc3f2dd" y="353.367119"/>
     <use style="fill:#ffffff;stroke:#ffffff;" x="610.808727" xlink:href="#m4c5bc3f2dd" y="360.150689"/>
     <use style="fill:#ffffff;stroke:#ffffff;" x="612.026182" xlink:href="#m4c5bc3f2dd" y="354.37978"/>
     <use style="fill:#ffffff;stroke:#ffffff;" x="613.243636" xlink:href="#m4c5bc3f2dd" y="355.697903"/>
     <use style="fill:#ffffff;stroke:#ffffff;" x="614.461091" xlink:href="#m4c5bc3f2dd" y="361.183108"/>
     <use style="fill:#ffffff;stroke:#ffffff;" x="615.678545" xlink:href="#m4c5bc3f2dd" y="361.43984"/>
     <use style="fill:#ffffff;stroke:#ffffff;" x="616.896" xlink:href="#m4c5bc3f2dd" y="367.407679"/>
     <use style="fill:#ffffff;stroke:#ffffff;" x="618.113455" xlink:href="#m4c5bc3f2dd" y="366.694944"/>
     <use style="fill:#ffffff;stroke:#ffffff;" x="619.330909" xlink:href="#m4c5bc3f2dd" y="362.42506"/>
     <use style="fill:#ffffff;stroke:#ffffff;" x="620.548364" xlink:href="#m4c5bc3f2dd" y="367.422181"/>
     <use style="fill:#ffffff;stroke:#ffffff;" x="621.765818" xlink:href="#m4c5bc3f2dd" y="370.355081"/>
     <use style="fill:#ffffff;stroke:#ffffff;" x="622.983273" xlink:href="#m4c5bc3f2dd" y="380.594342"/>
     <use style="fill:#ffffff;stroke:#ffffff;" x="624.200727" xlink:href="#m4c5bc3f2dd" y="364.785698"/>
     <use style="fill:#ffffff;stroke:#ffffff;" x="625.418182" xlink:href="#m4c5bc3f2dd" y="311.112793"/>
     <use style="fill:#ffffff;stroke:#ffffff;" x="626.635636" xlink:href="#m4c5bc3f2dd" y="367.838533"/>
     <use style="fill:#ffffff;stroke:#ffffff;" x="627.853091" xlink:href="#m4c5bc3f2dd" y="384.561325"/>
     <use style="fill:#ffffff;stroke:#ffffff;" x="629.070545" xlink:href="#m4c5bc3f2dd" y="385.572499"/>
     <use style="fill:#ffffff;stroke:#ffffff;" x="630.288" xlink:href="#m4c5bc3f2dd" y="376.540117"/>
     <use style="fill:#ffffff;stroke:#ffffff;" x="631.505455" xlink:href="#m4c5bc3f2dd" y="368.360403"/>
     <use style="fill:#ffffff;stroke:#ffffff;" x="632.722909" xlink:href="#m4c5bc3f2dd" y="377.002938"/>
     <use style="fill:#ffffff;stroke:#ffffff;" x="633.940364" xlink:href="#m4c5bc3f2dd" y="381.039587"/>
     <use style="fill:#ffffff;stroke:#ffffff;" x="635.157818" xlink:href="#m4c5bc3f2dd" y="376.22707"/>
     <use style="fill:#ffffff;stroke:#ffffff;" x="636.375273" xlink:href="#m4c5bc3f2dd" y="378.986961"/>
     <use style="fill:#ffffff;stroke:#ffffff;" x="637.592727" xlink:href="#m4c5bc3f2dd" y="375.080206"/>
     <use style="fill:#ffffff;stroke:#ffffff;" x="638.810182" xlink:href="#m4c5bc3f2dd" y="374.741773"/>
     <use style="fill:#ffffff;stroke:#ffffff;" x="640.027636" xlink:href="#m4c5bc3f2dd" y="372.693202"/>
     <use style="fill:#ffffff;stroke:#ffffff;" x="641.245091" xlink:href="#m4c5bc3f2dd" y="382.238069"/>
     <use style="fill:#ffffff;stroke:#ffffff;" x="642.462545" xlink:href="#m4c5bc3f2dd" y="385.635633"/>
     <use style="fill:#ffffff;stroke:#ffffff;" x="643.68" xlink:href="#m4c5bc3f2dd" y="390.998352"/>
     <use style="fill:#ffffff;stroke:#ffffff;" x="644.897455" xlink:href="#m4c5bc3f2dd" y="383.240831"/>
     <use style="fill:#ffffff;stroke:#ffffff;" x="646.114909" xlink:href="#m4c5bc3f2dd" y="380.646839"/>
     <use style="fill:#ffffff;stroke:#ffffff;" x="647.332364" xlink:href="#m4c5bc3f2dd" y="382.314793"/>
     <use style="fill:#ffffff;stroke:#ffffff;" x="648.549818" xlink:href="#m4c5bc3f2dd" y="392.987969"/>
     <use style="fill:#ffffff;stroke:#ffffff;" x="649.767273" xlink:href="#m4c5bc3f2dd" y="396.004865"/>
     <use style="fill:#ffffff;stroke:#ffffff;" x="650.984727" xlink:href="#m4c5bc3f2dd" y="394.179084"/>
     <use style="fill:#ffffff;stroke:#ffffff;" x="652.202182" xlink:href="#m4c5bc3f2dd" y="383.051563"/>
     <use style="fill:#ffffff;stroke:#ffffff;" x="653.419636" xlink:href="#m4c5bc3f2dd" y="389.822073"/>
     <use style="fill:#ffffff;stroke:#ffffff;" x="654.637091" xlink:href="#m4c5bc3f2dd" y="395.211396"/>
     <use style="fill:#ffffff;stroke:#ffffff;" x="655.854545" xlink:href="#m4c5bc3f2dd" y="390.138445"/>
     <use style="fill:#ffffff;stroke:#ffffff;" x="657.072" xlink:href="#m4c5bc3f2dd" y="393.221056"/>
     <use style="fill:#ffffff;stroke:#ffffff;" x="658.289455" xlink:href="#m4c5bc3f2dd" y="394.236748"/>
     <use style="fill:#ffffff;stroke:#ffffff;" x="659.506909" xlink:href="#m4c5bc3f2dd" y="400.519249"/>
     <use style="fill:#ffffff;stroke:#ffffff;" x="660.724364" xlink:href="#m4c5bc3f2dd" y="398.208014"/>
     <use style="fill:#ffffff;stroke:#ffffff;" x="661.941818" xlink:href="#m4c5bc3f2dd" y="395.131215"/>
     <use style="fill:#ffffff;stroke:#ffffff;" x="663.159273" xlink:href="#m4c5bc3f2dd" y="402.620811"/>
     <use style="fill:#ffffff;stroke:#ffffff;" x="664.376727" xlink:href="#m4c5bc3f2dd" y="393.885568"/>
     <use style="fill:#ffffff;stroke:#ffffff;" x="665.594182" xlink:href="#m4c5bc3f2dd" y="401.238064"/>
     <use style="fill:#ffffff;stroke:#ffffff;" x="666.811636" xlink:href="#m4c5bc3f2dd" y="399.220901"/>
     <use style="fill:#ffffff;stroke:#ffffff;" x="668.029091" xlink:href="#m4c5bc3f2dd" y="405.263104"/>
     <use style="fill:#ffffff;stroke:#ffffff;" x="669.246545" xlink:href="#m4c5bc3f2dd" y="408.227649"/>
     <use style="fill:#ffffff;stroke:#ffffff;" x="670.464" xlink:href="#m4c5bc3f2dd" y="407.211906"/>
     <use style="fill:#ffffff;stroke:#ffffff;" x="671.681455" xlink:href="#m4c5bc3f2dd" y="404.719312"/>
     <use style="fill:#ffffff;stroke:#ffffff;" x="672.898909" xlink:href="#m4c5bc3f2dd" y="401.862548"/>
     <use style="fill:#ffffff;stroke:#ffffff;" x="674.116364" xlink:href="#m4c5bc3f2dd" y="413.257952"/>
     <use style="fill:#ffffff;stroke:#ffffff;" x="675.333818" xlink:href="#m4c5bc3f2dd" y="413.917931"/>
     <use style="fill:#ffffff;stroke:#ffffff;" x="676.551273" xlink:href="#m4c5bc3f2dd" y="414.183049"/>
     <use style="fill:#ffffff;stroke:#ffffff;" x="677.768727" xlink:href="#m4c5bc3f2dd" y="413.012031"/>
     <use style="fill:#ffffff;stroke:#ffffff;" x="678.986182" xlink:href="#m4c5bc3f2dd" y="417.173312"/>
     <use style="fill:#ffffff;stroke:#ffffff;" x="680.203636" xlink:href="#m4c5bc3f2dd" y="414.172112"/>
     <use style="fill:#ffffff;stroke:#ffffff;" x="681.421091" xlink:href="#m4c5bc3f2dd" y="420.91952"/>
     <use style="fill:#ffffff;stroke:#ffffff;" x="682.638545" xlink:href="#m4c5bc3f2dd" y="412.30118"/>
     <use style="fill:#ffffff;stroke:#ffffff;" x="683.856" xlink:href="#m4c5bc3f2dd" y="409.502202"/>
     <use style="fill:#ffffff;stroke:#ffffff;" x="685.073455" xlink:href="#m4c5bc3f2dd" y="417.572911"/>
     <use style="fill:#ffffff;stroke:#ffffff;" x="686.290909" xlink:href="#m4c5bc3f2dd" y="415.843455"/>
     <use style="fill:#ffffff;stroke:#ffffff;" x="687.508364" xlink:href="#m4c5bc3f2dd" y="423.695471"/>
     <use style="fill:#ffffff;stroke:#ffffff;" x="688.725818" xlink:href="#m4c5bc3f2dd" y="422.579059"/>
     <use style="fill:#ffffff;stroke:#ffffff;" x="689.943273" xlink:href="#m4c5bc3f2dd" y="418.876888"/>
     <use style="fill:#ffffff;stroke:#ffffff;" x="691.160727" xlink:href="#m4c5bc3f2dd" y="422.929529"/>
     <use style="fill:#ffffff;stroke:#ffffff;" x="692.378182" xlink:href="#m4c5bc3f2dd" y="419.546502"/>
     <use style="fill:#ffffff;stroke:#ffffff;" x="693.595636" xlink:href="#m4c5bc3f2dd" y="434.418401"/>
     <use style="fill:#ffffff;stroke:#ffffff;" x="694.813091" xlink:href="#m4c5bc3f2dd" y="435.445634"/>
     <use style="fill:#ffffff;stroke:#ffffff;" x="696.030545" xlink:href="#m4c5bc3f2dd" y="424.961832"/>
     <use style="fill:#ffffff;stroke:#ffffff;" x="697.248" xlink:href="#m4c5bc3f2dd" y="426.114707"/>
     <use style="fill:#ffffff;stroke:#ffffff;" x="698.465455" xlink:href="#m4c5bc3f2dd" y="437.128337"/>
     <use style="fill:#ffffff;stroke:#ffffff;" x="699.682909" xlink:href="#m4c5bc3f2dd" y="429.569407"/>
     <use style="fill:#ffffff;stroke:#ffffff;" x="700.900364" xlink:href="#m4c5bc3f2dd" y="433.362472"/>
     <use style="fill:#ffffff;stroke:#ffffff;" x="702.117818" xlink:href="#m4c5bc3f2dd" y="439.744323"/>
     <use style="fill:#ffffff;stroke:#ffffff;" x="703.335273" xlink:href="#m4c5bc3f2dd" y="428.770717"/>
     <use style="fill:#ffffff;stroke:#ffffff;" x="704.552727" xlink:href="#m4c5bc3f2dd" y="438.109561"/>
     <use style="fill:#ffffff;stroke:#ffffff;" x="705.770182" xlink:href="#m4c5bc3f2dd" y="437.539626"/>
     <use style="fill:#ffffff;stroke:#ffffff;" x="706.987636" xlink:href="#m4c5bc3f2dd" y="439.482832"/>
     <use style="fill:#ffffff;stroke:#ffffff;" x="708.205091" xlink:href="#m4c5bc3f2dd" y="453.083222"/>
     <use style="fill:#ffffff;stroke:#ffffff;" x="709.422545" xlink:href="#m4c5bc3f2dd" y="437.778254"/>
     <use style="fill:#ffffff;stroke:#ffffff;" x="710.64" xlink:href="#m4c5bc3f2dd" y="445.980381"/>
     <use style="fill:#ffffff;stroke:#ffffff;" x="711.857455" xlink:href="#m4c5bc3f2dd" y="445.700272"/>
     <use style="fill:#ffffff;stroke:#ffffff;" x="713.074909" xlink:href="#m4c5bc3f2dd" y="449.562001"/>
     <use style="fill:#ffffff;stroke:#ffffff;" x="714.292364" xlink:href="#m4c5bc3f2dd" y="449.986444"/>
     <use style="fill:#ffffff;stroke:#ffffff;" x="715.509818" xlink:href="#m4c5bc3f2dd" y="452.739189"/>
     <use style="fill:#ffffff;stroke:#ffffff;" x="716.727273" xlink:href="#m4c5bc3f2dd" y="460.816461"/>
     <use style="fill:#ffffff;stroke:#ffffff;" x="717.944727" xlink:href="#m4c5bc3f2dd" y="452.882512"/>
     <use style="fill:#ffffff;stroke:#ffffff;" x="719.162182" xlink:href="#m4c5bc3f2dd" y="454.371836"/>
     <use style="fill:#ffffff;stroke:#ffffff;" x="720.379636" xlink:href="#m4c5bc3f2dd" y="456.595322"/>
     <use style="fill:#ffffff;stroke:#ffffff;" x="721.597091" xlink:href="#m4c5bc3f2dd" y="460.510626"/>
     <use style="fill:#ffffff;stroke:#ffffff;" x="722.814545" xlink:href="#m4c5bc3f2dd" y="461.593844"/>
     <use style="fill:#ffffff;stroke:#ffffff;" x="724.032" xlink:href="#m4c5bc3f2dd" y="465.469451"/>
     <use style="fill:#ffffff;stroke:#ffffff;" x="725.249455" xlink:href="#m4c5bc3f2dd" y="454.99553"/>
     <use style="fill:#ffffff;stroke:#ffffff;" x="726.466909" xlink:href="#m4c5bc3f2dd" y="467.762559"/>
     <use style="fill:#ffffff;stroke:#ffffff;" x="727.684364" xlink:href="#m4c5bc3f2dd" y="472.670768"/>
     <use style="fill:#ffffff;stroke:#ffffff;" x="728.901818" xlink:href="#m4c5bc3f2dd" y="465.481427"/>
     <use style="fill:#ffffff;stroke:#ffffff;" x="730.119273" xlink:href="#m4c5bc3f2dd" y="477.357656"/>
     <use style="fill:#ffffff;stroke:#ffffff;" x="731.336727" xlink:href="#m4c5bc3f2dd" y="475.53617"/>
     <use style="fill:#ffffff;stroke:#ffffff;" x="732.554182" xlink:href="#m4c5bc3f2dd" y="465.56329"/>
     <use style="fill:#ffffff;stroke:#ffffff;" x="733.771636" xlink:href="#m4c5bc3f2dd" y="477.212535"/>
     <use style="fill:#ffffff;stroke:#ffffff;" x="734.989091" xlink:href="#m4c5bc3f2dd" y="458.215494"/>
     <use style="fill:#ffffff;stroke:#ffffff;" x="736.206545" xlink:href="#m4c5bc3f2dd" y="482.841051"/>
     <use style="fill:#ffffff;stroke:#ffffff;" x="737.424" xlink:href="#m4c5bc3f2dd" y="478.97913"/>
     <use style="fill:#ffffff;stroke:#ffffff;" x="738.641455" xlink:href="#m4c5bc3f2dd" y="480.109504"/>
     <use style="fill:#ffffff;stroke:#ffffff;" x="739.858909" xlink:href="#m4c5bc3f2dd" y="481.010364"/>
     <use style="fill:#ffffff;stroke:#ffffff;" x="741.076364" xlink:href="#m4c5bc3f2dd" y="490.709604"/>
     <use style="fill:#ffffff;stroke:#ffffff;" x="742.293818" xlink:href="#m4c5bc3f2dd" y="487.395142"/>
     <use style="fill:#ffffff;stroke:#ffffff;" x="743.511273" xlink:href="#m4c5bc3f2dd" y="476.853627"/>
     <use style="fill:#ffffff;stroke:#ffffff;" x="744.728727" xlink:href="#m4c5bc3f2dd" y="487.680435"/>
     <use style="fill:#ffffff;stroke:#ffffff;" x="745.946182" xlink:href="#m4c5bc3f2dd" y="479.768164"/>
     <use style="fill:#ffffff;stroke:#ffffff;" x="747.163636" xlink:href="#m4c5bc3f2dd" y="492.48"/>
    </g>
   </g>
   <g id="patch_3">
    <path d="M 108 512.64 
L 108 69.12 
" style="fill:none;stroke:#ffffff;stroke-linecap:square;stroke-linejoin:miter;stroke-width:0.8;"/>
   </g>
   <g id="patch_4">
    <path d="M 777.6 512.64 
L 777.6 69.12 
" style="fill:none;stroke:#ffffff;stroke-linecap:square;stroke-linejoin:miter;stroke-width:0.8;"/>
   </g>
   <g id="patch_5">
    <path d="M 108 512.64 
L 777.6 512.64 
" style="fill:none;stroke:#ffffff;stroke-linecap:square;stroke-linejoin:miter;stroke-width:0.8;"/>
   </g>
   <g id="patch_6">
    <path d="M 108 69.12 
L 777.6 69.12 
" style="fill:none;stroke:#ffffff;stroke-linecap:square;stroke-linejoin:miter;stroke-width:0.8;"/>
   </g>
   <g id="text_16">
    <!-- f_0_Bilinear_ar_1.78_steps_1 -->
    <g style="fill:#ffffff;" transform="translate(356.690625 63.12)scale(0.12 -0.12)">
     <defs>
      <path d="M 37.109375 75.984375 
L 37.109375 68.5 
L 28.515625 68.5 
Q 23.6875 68.5 21.796875 66.546875 
Q 19.921875 64.59375 19.921875 59.515625 
L 19.921875 54.6875 
L 34.71875 54.6875 
L 34.71875 47.703125 
L 19.921875 47.703125 
L 19.921875 0 
L 10.890625 0 
L 10.890625 47.703125 
L 2.296875 47.703125 
L 2.296875 54.6875 
L 10.890625 54.6875 
L 10.890625 58.5 
Q 10.890625 67.625 15.140625 71.796875 
Q 19.390625 75.984375 28.609375 75.984375 
z
" id="DejaVuSans-102"/>
      <path d="M 50.984375 -16.609375 
L 50.984375 -23.578125 
L -0.984375 -23.578125 
L -0.984375 -16.609375 
z
" id="DejaVuSans-95"/>
      <path d="M 19.671875 34.8125 
L 19.671875 8.109375 
L 35.5 8.109375 
Q 43.453125 8.109375 47.28125 11.40625 
Q 51.125 14.703125 51.125 21.484375 
Q 51.125 28.328125 47.28125 31.5625 
Q 43.453125 34.8125 35.5 34.8125 
z
M 19.671875 64.796875 
L 19.671875 42.828125 
L 34.28125 42.828125 
Q 41.5 42.828125 45.03125 45.53125 
Q 48.578125 48.25 48.578125 53.8125 
Q 48.578125 59.328125 45.03125 62.0625 
Q 41.5 64.796875 34.28125 64.796875 
z
M 9.8125 72.90625 
L 35.015625 72.90625 
Q 46.296875 72.90625 52.390625 68.21875 
Q 58.5 63.53125 58.5 54.890625 
Q 58.5 48.1875 55.375 44.234375 
Q 52.25 40.28125 46.1875 39.3125 
Q 53.46875 37.75 57.5 32.78125 
Q 61.53125 27.828125 61.53125 20.40625 
Q 61.53125 10.640625 54.890625 5.3125 
Q 48.25 0 35.984375 0 
L 9.8125 0 
z
" id="DejaVuSans-66"/>
      <path d="M 54.890625 33.015625 
L 54.890625 0 
L 45.90625 0 
L 45.90625 32.71875 
Q 45.90625 40.484375 42.875 44.328125 
Q 39.84375 48.1875 33.796875 48.1875 
Q 26.515625 48.1875 22.3125 43.546875 
Q 18.109375 38.921875 18.109375 30.90625 
L 18.109375 0 
L 9.078125 0 
L 9.078125 54.6875 
L 18.109375 54.6875 
L 18.109375 46.1875 
Q 21.34375 51.125 25.703125 53.5625 
Q 30.078125 56 35.796875 56 
Q 45.21875 56 50.046875 50.171875 
Q 54.890625 44.34375 54.890625 33.015625 
z
" id="DejaVuSans-110"/>
      <path d="M 10.6875 12.40625 
L 21 12.40625 
L 21 0 
L 10.6875 0 
z
" id="DejaVuSans-46"/>
      <path d="M 44.28125 53.078125 
L 44.28125 44.578125 
Q 40.484375 46.53125 36.375 47.5 
Q 32.28125 48.484375 27.875 48.484375 
Q 21.1875 48.484375 17.84375 46.4375 
Q 14.5 44.390625 14.5 40.28125 
Q 14.5 37.15625 16.890625 35.375 
Q 19.28125 33.59375 26.515625 31.984375 
L 29.59375 31.296875 
Q 39.15625 29.25 43.1875 25.515625 
Q 47.21875 21.78125 47.21875 15.09375 
Q 47.21875 7.46875 41.1875 3.015625 
Q 35.15625 -1.421875 24.609375 -1.421875 
Q 20.21875 -1.421875 15.453125 -0.5625 
Q 10.6875 0.296875 5.421875 2 
L 5.421875 11.28125 
Q 10.40625 8.6875 15.234375 7.390625 
Q 20.0625 6.109375 24.8125 6.109375 
Q 31.15625 6.109375 34.5625 8.28125 
Q 37.984375 10.453125 37.984375 14.40625 
Q 37.984375 18.0625 35.515625 20.015625 
Q 33.0625 21.96875 24.703125 23.78125 
L 21.578125 24.515625 
Q 13.234375 26.265625 9.515625 29.90625 
Q 5.8125 33.546875 5.8125 39.890625 
Q 5.8125 47.609375 11.28125 51.796875 
Q 16.75 56 26.8125 56 
Q 31.78125 56 36.171875 55.265625 
Q 40.578125 54.546875 44.28125 53.078125 
z
" id="DejaVuSans-115"/>
      <path d="M 18.109375 8.203125 
L 18.109375 -20.796875 
L 9.078125 -20.796875 
L 9.078125 54.6875 
L 18.109375 54.6875 
L 18.109375 46.390625 
Q 20.953125 51.265625 25.265625 53.625 
Q 29.59375 56 35.59375 56 
Q 45.5625 56 51.78125 48.09375 
Q 58.015625 40.1875 58.015625 27.296875 
Q 58.015625 14.40625 51.78125 6.484375 
Q 45.5625 -1.421875 35.59375 -1.421875 
Q 29.59375 -1.421875 25.265625 0.953125 
Q 20.953125 3.328125 18.109375 8.203125 
z
M 48.6875 27.296875 
Q 48.6875 37.203125 44.609375 42.84375 
Q 40.53125 48.484375 33.40625 48.484375 
Q 26.265625 48.484375 22.1875 42.84375 
Q 18.109375 37.203125 18.109375 27.296875 
Q 18.109375 17.390625 22.1875 11.75 
Q 26.265625 6.109375 33.40625 6.109375 
Q 40.53125 6.109375 44.609375 11.75 
Q 48.6875 17.390625 48.6875 27.296875 
z
" id="DejaVuSans-112"/>
     </defs>
     <use xlink:href="#DejaVuSans-102"/>
     <use x="35.205078" xlink:href="#DejaVuSans-95"/>
     <use x="85.205078" xlink:href="#DejaVuSans-48"/>
     <use x="148.828125" xlink:href="#DejaVuSans-95"/>
     <use x="198.828125" xlink:href="#DejaVuSans-66"/>
     <use x="267.431641" xlink:href="#DejaVuSans-105"/>
     <use x="295.214844" xlink:href="#DejaVuSans-108"/>
     <use x="322.998047" xlink:href="#DejaVuSans-105"/>
     <use x="350.78125" xlink:href="#DejaVuSans-110"/>
     <use x="414.160156" xlink:href="#DejaVuSans-101"/>
     <use x="475.683594" xlink:href="#DejaVuSans-97"/>
     <use x="536.962891" xlink:href="#DejaVuSans-114"/>
     <use x="578.076172" xlink:href="#DejaVuSans-95"/>
     <use x="628.076172" xlink:href="#DejaVuSans-97"/>
     <use x="689.355469" xlink:href="#DejaVuSans-114"/>
     <use x="730.46875" xlink:href="#DejaVuSans-95"/>
     <use x="780.46875" xlink:href="#DejaVuSans-49"/>
     <use x="844.091797" xlink:href="#DejaVuSans-46"/>
     <use x="875.878906" xlink:href="#DejaVuSans-55"/>
     <use x="939.501953" xlink:href="#DejaVuSans-56"/>
     <use x="1003.125" xlink:href="#DejaVuSans-95"/>
     <use x="1053.125" xlink:href="#DejaVuSans-115"/>
     <use x="1105.224609" xlink:href="#DejaVuSans-116"/>
     <use x="1144.433594" xlink:href="#DejaVuSans-101"/>
     <use x="1205.957031" xlink:href="#DejaVuSans-112"/>
     <use x="1269.433594" xlink:href="#DejaVuSans-115"/>
     <use x="1321.533203" xlink:href="#DejaVuSans-95"/>
     <use x="1371.533203" xlink:href="#DejaVuSans-49"/>
    </g>
   </g>
  </g>
 </g>
 <defs>
  <clipPath id="p642ae869e2">
   <rect height="443.52" width="669.6" x="108" y="69.12"/>
  </clipPath>
 </defs>
</svg>
