<?xml version="1.0" encoding="utf-8" standalone="no"?>
<!DOCTYPE svg PUBLIC "-//W3C//DTD SVG 1.1//EN"
  "http://www.w3.org/Graphics/SVG/1.1/DTD/svg11.dtd">
<!-- Created with matplotlib (https://matplotlib.org/) -->
<svg height="576pt" version="1.1" viewBox="0 0 864 576" width="864pt" xmlns="http://www.w3.org/2000/svg" xmlns:xlink="http://www.w3.org/1999/xlink">
 <metadata>
  <rdf:RDF xmlns:cc="http://creativecommons.org/ns#" xmlns:dc="http://purl.org/dc/elements/1.1/" xmlns:rdf="http://www.w3.org/1999/02/22-rdf-syntax-ns#">
   <cc:Work>
    <dc:type rdf:resource="http://purl.org/dc/dcmitype/StillImage"/>
    <dc:date>2020-09-16T10:49:18.752889</dc:date>
    <dc:format>image/svg+xml</dc:format>
    <dc:creator>
     <cc:Agent>
      <dc:title>Matplotlib v3.3.1, https://matplotlib.org/</dc:title>
     </cc:Agent>
    </dc:creator>
   </cc:Work>
  </rdf:RDF>
 </metadata>
 <defs>
  <style type="text/css">*{stroke-linecap:butt;stroke-linejoin:round;}</style>
 </defs>
 <g id="figure_1">
  <g id="patch_1">
   <path d="M 0 576 
L 864 576 
L 864 0 
L 0 0 
z
"/>
  </g>
  <g id="axes_1">
   <g id="patch_2">
    <path d="M 108 512.64 
L 777.6 512.64 
L 777.6 69.12 
L 108 69.12 
z
"/>
   </g>
   <g id="matplotlib.axis_1">
    <g id="xtick_1">
     <g id="line2d_1">
      <defs>
       <path d="M 0 0 
L 0 3.5 
" id="mf81c3f0e31" style="stroke:#ffffff;stroke-width:0.8;"/>
      </defs>
      <g>
       <use style="fill:#ffffff;stroke:#ffffff;stroke-width:0.8;" x="138.436364" xlink:href="#mf81c3f0e31" y="512.64"/>
      </g>
     </g>
     <g id="text_1">
      <!-- 500 -->
      <g style="fill:#ffffff;" transform="translate(128.892614 527.238438)scale(0.1 -0.1)">
       <defs>
        <path d="M 10.796875 72.90625 
L 49.515625 72.90625 
L 49.515625 64.59375 
L 19.828125 64.59375 
L 19.828125 46.734375 
Q 21.96875 47.46875 24.109375 47.828125 
Q 26.265625 48.1875 28.421875 48.1875 
Q 40.625 48.1875 47.75 41.5 
Q 54.890625 34.8125 54.890625 23.390625 
Q 54.890625 11.625 47.5625 5.09375 
Q 40.234375 -1.421875 26.90625 -1.421875 
Q 22.3125 -1.421875 17.546875 -0.640625 
Q 12.796875 0.140625 7.71875 1.703125 
L 7.71875 11.625 
Q 12.109375 9.234375 16.796875 8.0625 
Q 21.484375 6.890625 26.703125 6.890625 
Q 35.15625 6.890625 40.078125 11.328125 
Q 45.015625 15.765625 45.015625 23.390625 
Q 45.015625 31 40.078125 35.4375 
Q 35.15625 39.890625 26.703125 39.890625 
Q 22.75 39.890625 18.8125 39.015625 
Q 14.890625 38.140625 10.796875 36.28125 
z
" id="DejaVuSans-53"/>
        <path d="M 31.78125 66.40625 
Q 24.171875 66.40625 20.328125 58.90625 
Q 16.5 51.421875 16.5 36.375 
Q 16.5 21.390625 20.328125 13.890625 
Q 24.171875 6.390625 31.78125 6.390625 
Q 39.453125 6.390625 43.28125 13.890625 
Q 47.125 21.390625 47.125 36.375 
Q 47.125 51.421875 43.28125 58.90625 
Q 39.453125 66.40625 31.78125 66.40625 
z
M 31.78125 74.21875 
Q 44.046875 74.21875 50.515625 64.515625 
Q 56.984375 54.828125 56.984375 36.375 
Q 56.984375 17.96875 50.515625 8.265625 
Q 44.046875 -1.421875 31.78125 -1.421875 
Q 19.53125 -1.421875 13.0625 8.265625 
Q 6.59375 17.96875 6.59375 36.375 
Q 6.59375 54.828125 13.0625 64.515625 
Q 19.53125 74.21875 31.78125 74.21875 
z
" id="DejaVuSans-48"/>
       </defs>
       <use xlink:href="#DejaVuSans-53"/>
       <use x="63.623047" xlink:href="#DejaVuSans-48"/>
       <use x="127.246094" xlink:href="#DejaVuSans-48"/>
      </g>
     </g>
    </g>
    <g id="xtick_2">
     <g id="line2d_2">
      <g>
       <use style="fill:#ffffff;stroke:#ffffff;stroke-width:0.8;" x="199.309091" xlink:href="#mf81c3f0e31" y="512.64"/>
      </g>
     </g>
     <g id="text_2">
      <!-- 550 -->
      <g style="fill:#ffffff;" transform="translate(189.765341 527.238438)scale(0.1 -0.1)">
       <use xlink:href="#DejaVuSans-53"/>
       <use x="63.623047" xlink:href="#DejaVuSans-53"/>
       <use x="127.246094" xlink:href="#DejaVuSans-48"/>
      </g>
     </g>
    </g>
    <g id="xtick_3">
     <g id="line2d_3">
      <g>
       <use style="fill:#ffffff;stroke:#ffffff;stroke-width:0.8;" x="260.181818" xlink:href="#mf81c3f0e31" y="512.64"/>
      </g>
     </g>
     <g id="text_3">
      <!-- 600 -->
      <g style="fill:#ffffff;" transform="translate(250.638068 527.238438)scale(0.1 -0.1)">
       <defs>
        <path d="M 33.015625 40.375 
Q 26.375 40.375 22.484375 35.828125 
Q 18.609375 31.296875 18.609375 23.390625 
Q 18.609375 15.53125 22.484375 10.953125 
Q 26.375 6.390625 33.015625 6.390625 
Q 39.65625 6.390625 43.53125 10.953125 
Q 47.40625 15.53125 47.40625 23.390625 
Q 47.40625 31.296875 43.53125 35.828125 
Q 39.65625 40.375 33.015625 40.375 
z
M 52.59375 71.296875 
L 52.59375 62.3125 
Q 48.875 64.0625 45.09375 64.984375 
Q 41.3125 65.921875 37.59375 65.921875 
Q 27.828125 65.921875 22.671875 59.328125 
Q 17.53125 52.734375 16.796875 39.40625 
Q 19.671875 43.65625 24.015625 45.921875 
Q 28.375 48.1875 33.59375 48.1875 
Q 44.578125 48.1875 50.953125 41.515625 
Q 57.328125 34.859375 57.328125 23.390625 
Q 57.328125 12.15625 50.6875 5.359375 
Q 44.046875 -1.421875 33.015625 -1.421875 
Q 20.359375 -1.421875 13.671875 8.265625 
Q 6.984375 17.96875 6.984375 36.375 
Q 6.984375 53.65625 15.1875 63.9375 
Q 23.390625 74.21875 37.203125 74.21875 
Q 40.921875 74.21875 44.703125 73.484375 
Q 48.484375 72.75 52.59375 71.296875 
z
" id="DejaVuSans-54"/>
       </defs>
       <use xlink:href="#DejaVuSans-54"/>
       <use x="63.623047" xlink:href="#DejaVuSans-48"/>
       <use x="127.246094" xlink:href="#DejaVuSans-48"/>
      </g>
     </g>
    </g>
    <g id="xtick_4">
     <g id="line2d_4">
      <g>
       <use style="fill:#ffffff;stroke:#ffffff;stroke-width:0.8;" x="321.054545" xlink:href="#mf81c3f0e31" y="512.64"/>
      </g>
     </g>
     <g id="text_4">
      <!-- 650 -->
      <g style="fill:#ffffff;" transform="translate(311.510795 527.238438)scale(0.1 -0.1)">
       <use xlink:href="#DejaVuSans-54"/>
       <use x="63.623047" xlink:href="#DejaVuSans-53"/>
       <use x="127.246094" xlink:href="#DejaVuSans-48"/>
      </g>
     </g>
    </g>
    <g id="xtick_5">
     <g id="line2d_5">
      <g>
       <use style="fill:#ffffff;stroke:#ffffff;stroke-width:0.8;" x="381.927273" xlink:href="#mf81c3f0e31" y="512.64"/>
      </g>
     </g>
     <g id="text_5">
      <!-- 700 -->
      <g style="fill:#ffffff;" transform="translate(372.383523 527.238438)scale(0.1 -0.1)">
       <defs>
        <path d="M 8.203125 72.90625 
L 55.078125 72.90625 
L 55.078125 68.703125 
L 28.609375 0 
L 18.3125 0 
L 43.21875 64.59375 
L 8.203125 64.59375 
z
" id="DejaVuSans-55"/>
       </defs>
       <use xlink:href="#DejaVuSans-55"/>
       <use x="63.623047" xlink:href="#DejaVuSans-48"/>
       <use x="127.246094" xlink:href="#DejaVuSans-48"/>
      </g>
     </g>
    </g>
    <g id="xtick_6">
     <g id="line2d_6">
      <g>
       <use style="fill:#ffffff;stroke:#ffffff;stroke-width:0.8;" x="442.8" xlink:href="#mf81c3f0e31" y="512.64"/>
      </g>
     </g>
     <g id="text_6">
      <!-- 750 -->
      <g style="fill:#ffffff;" transform="translate(433.25625 527.238438)scale(0.1 -0.1)">
       <use xlink:href="#DejaVuSans-55"/>
       <use x="63.623047" xlink:href="#DejaVuSans-53"/>
       <use x="127.246094" xlink:href="#DejaVuSans-48"/>
      </g>
     </g>
    </g>
    <g id="xtick_7">
     <g id="line2d_7">
      <g>
       <use style="fill:#ffffff;stroke:#ffffff;stroke-width:0.8;" x="503.672727" xlink:href="#mf81c3f0e31" y="512.64"/>
      </g>
     </g>
     <g id="text_7">
      <!-- 800 -->
      <g style="fill:#ffffff;" transform="translate(494.128977 527.238438)scale(0.1 -0.1)">
       <defs>
        <path d="M 31.78125 34.625 
Q 24.75 34.625 20.71875 30.859375 
Q 16.703125 27.09375 16.703125 20.515625 
Q 16.703125 13.921875 20.71875 10.15625 
Q 24.75 6.390625 31.78125 6.390625 
Q 38.8125 6.390625 42.859375 10.171875 
Q 46.921875 13.96875 46.921875 20.515625 
Q 46.921875 27.09375 42.890625 30.859375 
Q 38.875 34.625 31.78125 34.625 
z
M 21.921875 38.8125 
Q 15.578125 40.375 12.03125 44.71875 
Q 8.5 49.078125 8.5 55.328125 
Q 8.5 64.0625 14.71875 69.140625 
Q 20.953125 74.21875 31.78125 74.21875 
Q 42.671875 74.21875 48.875 69.140625 
Q 55.078125 64.0625 55.078125 55.328125 
Q 55.078125 49.078125 51.53125 44.71875 
Q 48 40.375 41.703125 38.8125 
Q 48.828125 37.15625 52.796875 32.3125 
Q 56.78125 27.484375 56.78125 20.515625 
Q 56.78125 9.90625 50.3125 4.234375 
Q 43.84375 -1.421875 31.78125 -1.421875 
Q 19.734375 -1.421875 13.25 4.234375 
Q 6.78125 9.90625 6.78125 20.515625 
Q 6.78125 27.484375 10.78125 32.3125 
Q 14.796875 37.15625 21.921875 38.8125 
z
M 18.3125 54.390625 
Q 18.3125 48.734375 21.84375 45.5625 
Q 25.390625 42.390625 31.78125 42.390625 
Q 38.140625 42.390625 41.71875 45.5625 
Q 45.3125 48.734375 45.3125 54.390625 
Q 45.3125 60.0625 41.71875 63.234375 
Q 38.140625 66.40625 31.78125 66.40625 
Q 25.390625 66.40625 21.84375 63.234375 
Q 18.3125 60.0625 18.3125 54.390625 
z
" id="DejaVuSans-56"/>
       </defs>
       <use xlink:href="#DejaVuSans-56"/>
       <use x="63.623047" xlink:href="#DejaVuSans-48"/>
       <use x="127.246094" xlink:href="#DejaVuSans-48"/>
      </g>
     </g>
    </g>
    <g id="xtick_8">
     <g id="line2d_8">
      <g>
       <use style="fill:#ffffff;stroke:#ffffff;stroke-width:0.8;" x="564.545455" xlink:href="#mf81c3f0e31" y="512.64"/>
      </g>
     </g>
     <g id="text_8">
      <!-- 850 -->
      <g style="fill:#ffffff;" transform="translate(555.001705 527.238438)scale(0.1 -0.1)">
       <use xlink:href="#DejaVuSans-56"/>
       <use x="63.623047" xlink:href="#DejaVuSans-53"/>
       <use x="127.246094" xlink:href="#DejaVuSans-48"/>
      </g>
     </g>
    </g>
    <g id="xtick_9">
     <g id="line2d_9">
      <g>
       <use style="fill:#ffffff;stroke:#ffffff;stroke-width:0.8;" x="625.418182" xlink:href="#mf81c3f0e31" y="512.64"/>
      </g>
     </g>
     <g id="text_9">
      <!-- 900 -->
      <g style="fill:#ffffff;" transform="translate(615.874432 527.238438)scale(0.1 -0.1)">
       <defs>
        <path d="M 10.984375 1.515625 
L 10.984375 10.5 
Q 14.703125 8.734375 18.5 7.8125 
Q 22.3125 6.890625 25.984375 6.890625 
Q 35.75 6.890625 40.890625 13.453125 
Q 46.046875 20.015625 46.78125 33.40625 
Q 43.953125 29.203125 39.59375 26.953125 
Q 35.25 24.703125 29.984375 24.703125 
Q 19.046875 24.703125 12.671875 31.3125 
Q 6.296875 37.9375 6.296875 49.421875 
Q 6.296875 60.640625 12.9375 67.421875 
Q 19.578125 74.21875 30.609375 74.21875 
Q 43.265625 74.21875 49.921875 64.515625 
Q 56.59375 54.828125 56.59375 36.375 
Q 56.59375 19.140625 48.40625 8.859375 
Q 40.234375 -1.421875 26.421875 -1.421875 
Q 22.703125 -1.421875 18.890625 -0.6875 
Q 15.09375 0.046875 10.984375 1.515625 
z
M 30.609375 32.421875 
Q 37.25 32.421875 41.125 36.953125 
Q 45.015625 41.5 45.015625 49.421875 
Q 45.015625 57.28125 41.125 61.84375 
Q 37.25 66.40625 30.609375 66.40625 
Q 23.96875 66.40625 20.09375 61.84375 
Q 16.21875 57.28125 16.21875 49.421875 
Q 16.21875 41.5 20.09375 36.953125 
Q 23.96875 32.421875 30.609375 32.421875 
z
" id="DejaVuSans-57"/>
       </defs>
       <use xlink:href="#DejaVuSans-57"/>
       <use x="63.623047" xlink:href="#DejaVuSans-48"/>
       <use x="127.246094" xlink:href="#DejaVuSans-48"/>
      </g>
     </g>
    </g>
    <g id="xtick_10">
     <g id="line2d_10">
      <g>
       <use style="fill:#ffffff;stroke:#ffffff;stroke-width:0.8;" x="686.290909" xlink:href="#mf81c3f0e31" y="512.64"/>
      </g>
     </g>
     <g id="text_10">
      <!-- 950 -->
      <g style="fill:#ffffff;" transform="translate(676.747159 527.238438)scale(0.1 -0.1)">
       <use xlink:href="#DejaVuSans-57"/>
       <use x="63.623047" xlink:href="#DejaVuSans-53"/>
       <use x="127.246094" xlink:href="#DejaVuSans-48"/>
      </g>
     </g>
    </g>
    <g id="xtick_11">
     <g id="line2d_11">
      <g>
       <use style="fill:#ffffff;stroke:#ffffff;stroke-width:0.8;" x="747.163636" xlink:href="#mf81c3f0e31" y="512.64"/>
      </g>
     </g>
     <g id="text_11">
      <!-- 1000 -->
      <g style="fill:#ffffff;" transform="translate(734.438636 527.238438)scale(0.1 -0.1)">
       <defs>
        <path d="M 12.40625 8.296875 
L 28.515625 8.296875 
L 28.515625 63.921875 
L 10.984375 60.40625 
L 10.984375 69.390625 
L 28.421875 72.90625 
L 38.28125 72.90625 
L 38.28125 8.296875 
L 54.390625 8.296875 
L 54.390625 0 
L 12.40625 0 
z
" id="DejaVuSans-49"/>
       </defs>
       <use xlink:href="#DejaVuSans-49"/>
       <use x="63.623047" xlink:href="#DejaVuSans-48"/>
       <use x="127.246094" xlink:href="#DejaVuSans-48"/>
       <use x="190.869141" xlink:href="#DejaVuSans-48"/>
      </g>
     </g>
    </g>
    <g id="text_12">
     <!-- Height -->
     <g style="fill:#ffffff;" transform="translate(426.271094 540.916563)scale(0.1 -0.1)">
      <defs>
       <path d="M 9.8125 72.90625 
L 19.671875 72.90625 
L 19.671875 43.015625 
L 55.515625 43.015625 
L 55.515625 72.90625 
L 65.375 72.90625 
L 65.375 0 
L 55.515625 0 
L 55.515625 34.71875 
L 19.671875 34.71875 
L 19.671875 0 
L 9.8125 0 
z
" id="DejaVuSans-72"/>
       <path d="M 56.203125 29.59375 
L 56.203125 25.203125 
L 14.890625 25.203125 
Q 15.484375 15.921875 20.484375 11.0625 
Q 25.484375 6.203125 34.421875 6.203125 
Q 39.59375 6.203125 44.453125 7.46875 
Q 49.3125 8.734375 54.109375 11.28125 
L 54.109375 2.78125 
Q 49.265625 0.734375 44.1875 -0.34375 
Q 39.109375 -1.421875 33.890625 -1.421875 
Q 20.796875 -1.421875 13.15625 6.1875 
Q 5.515625 13.8125 5.515625 26.8125 
Q 5.515625 40.234375 12.765625 48.109375 
Q 20.015625 56 32.328125 56 
Q 43.359375 56 49.78125 48.890625 
Q 56.203125 41.796875 56.203125 29.59375 
z
M 47.21875 32.234375 
Q 47.125 39.59375 43.09375 43.984375 
Q 39.0625 48.390625 32.421875 48.390625 
Q 24.90625 48.390625 20.390625 44.140625 
Q 15.875 39.890625 15.1875 32.171875 
z
" id="DejaVuSans-101"/>
       <path d="M 9.421875 54.6875 
L 18.40625 54.6875 
L 18.40625 0 
L 9.421875 0 
z
M 9.421875 75.984375 
L 18.40625 75.984375 
L 18.40625 64.59375 
L 9.421875 64.59375 
z
" id="DejaVuSans-105"/>
       <path d="M 45.40625 27.984375 
Q 45.40625 37.75 41.375 43.109375 
Q 37.359375 48.484375 30.078125 48.484375 
Q 22.859375 48.484375 18.828125 43.109375 
Q 14.796875 37.75 14.796875 27.984375 
Q 14.796875 18.265625 18.828125 12.890625 
Q 22.859375 7.515625 30.078125 7.515625 
Q 37.359375 7.515625 41.375 12.890625 
Q 45.40625 18.265625 45.40625 27.984375 
z
M 54.390625 6.78125 
Q 54.390625 -7.171875 48.1875 -13.984375 
Q 42 -20.796875 29.203125 -20.796875 
Q 24.46875 -20.796875 20.265625 -20.09375 
Q 16.0625 -19.390625 12.109375 -17.921875 
L 12.109375 -9.1875 
Q 16.0625 -11.328125 19.921875 -12.34375 
Q 23.78125 -13.375 27.78125 -13.375 
Q 36.625 -13.375 41.015625 -8.765625 
Q 45.40625 -4.15625 45.40625 5.171875 
L 45.40625 9.625 
Q 42.625 4.78125 38.28125 2.390625 
Q 33.9375 0 27.875 0 
Q 17.828125 0 11.671875 7.65625 
Q 5.515625 15.328125 5.515625 27.984375 
Q 5.515625 40.671875 11.671875 48.328125 
Q 17.828125 56 27.875 56 
Q 33.9375 56 38.28125 53.609375 
Q 42.625 51.21875 45.40625 46.390625 
L 45.40625 54.6875 
L 54.390625 54.6875 
z
" id="DejaVuSans-103"/>
       <path d="M 54.890625 33.015625 
L 54.890625 0 
L 45.90625 0 
L 45.90625 32.71875 
Q 45.90625 40.484375 42.875 44.328125 
Q 39.84375 48.1875 33.796875 48.1875 
Q 26.515625 48.1875 22.3125 43.546875 
Q 18.109375 38.921875 18.109375 30.90625 
L 18.109375 0 
L 9.078125 0 
L 9.078125 75.984375 
L 18.109375 75.984375 
L 18.109375 46.1875 
Q 21.34375 51.125 25.703125 53.5625 
Q 30.078125 56 35.796875 56 
Q 45.21875 56 50.046875 50.171875 
Q 54.890625 44.34375 54.890625 33.015625 
z
" id="DejaVuSans-104"/>
       <path d="M 18.3125 70.21875 
L 18.3125 54.6875 
L 36.8125 54.6875 
L 36.8125 47.703125 
L 18.3125 47.703125 
L 18.3125 18.015625 
Q 18.3125 11.328125 20.140625 9.421875 
Q 21.96875 7.515625 27.59375 7.515625 
L 36.8125 7.515625 
L 36.8125 0 
L 27.59375 0 
Q 17.1875 0 13.234375 3.875 
Q 9.28125 7.765625 9.28125 18.015625 
L 9.28125 47.703125 
L 2.6875 47.703125 
L 2.6875 54.6875 
L 9.28125 54.6875 
L 9.28125 70.21875 
z
" id="DejaVuSans-116"/>
      </defs>
      <use xlink:href="#DejaVuSans-72"/>
      <use x="75.195312" xlink:href="#DejaVuSans-101"/>
      <use x="136.71875" xlink:href="#DejaVuSans-105"/>
      <use x="164.501953" xlink:href="#DejaVuSans-103"/>
      <use x="227.978516" xlink:href="#DejaVuSans-104"/>
      <use x="291.357422" xlink:href="#DejaVuSans-116"/>
     </g>
    </g>
   </g>
   <g id="matplotlib.axis_2">
    <g id="ytick_1">
     <g id="line2d_12">
      <defs>
       <path d="M 0 0 
L -3.5 0 
" id="md65c217baf" style="stroke:#ffffff;stroke-width:0.8;"/>
      </defs>
      <g>
       <use style="fill:#ffffff;stroke:#ffffff;stroke-width:0.8;" x="108" xlink:href="#md65c217baf" y="476.322861"/>
      </g>
     </g>
     <g id="text_13">
      <!-- $\mathdefault{10^{-4}}$ -->
      <g style="fill:#ffffff;" transform="translate(77.5 480.12208)scale(0.1 -0.1)">
       <defs>
        <path d="M 10.59375 35.5 
L 73.1875 35.5 
L 73.1875 27.203125 
L 10.59375 27.203125 
z
" id="DejaVuSans-8722"/>
        <path d="M 37.796875 64.3125 
L 12.890625 25.390625 
L 37.796875 25.390625 
z
M 35.203125 72.90625 
L 47.609375 72.90625 
L 47.609375 25.390625 
L 58.015625 25.390625 
L 58.015625 17.1875 
L 47.609375 17.1875 
L 47.609375 0 
L 37.796875 0 
L 37.796875 17.1875 
L 4.890625 17.1875 
L 4.890625 26.703125 
z
" id="DejaVuSans-52"/>
       </defs>
       <use transform="translate(0 0.684375)" xlink:href="#DejaVuSans-49"/>
       <use transform="translate(63.623047 0.684375)" xlink:href="#DejaVuSans-48"/>
       <use transform="translate(128.203125 38.965625)scale(0.7)" xlink:href="#DejaVuSans-8722"/>
       <use transform="translate(186.855469 38.965625)scale(0.7)" xlink:href="#DejaVuSans-52"/>
      </g>
     </g>
    </g>
    <g id="ytick_2">
     <g id="line2d_13">
      <g>
       <use style="fill:#ffffff;stroke:#ffffff;stroke-width:0.8;" x="108" xlink:href="#md65c217baf" y="151.484114"/>
      </g>
     </g>
     <g id="text_14">
      <!-- $\mathdefault{10^{-3}}$ -->
      <g style="fill:#ffffff;" transform="translate(77.5 155.283332)scale(0.1 -0.1)">
       <defs>
        <path d="M 40.578125 39.3125 
Q 47.65625 37.796875 51.625 33 
Q 55.609375 28.21875 55.609375 21.1875 
Q 55.609375 10.40625 48.1875 4.484375 
Q 40.765625 -1.421875 27.09375 -1.421875 
Q 22.515625 -1.421875 17.65625 -0.515625 
Q 12.796875 0.390625 7.625 2.203125 
L 7.625 11.71875 
Q 11.71875 9.328125 16.59375 8.109375 
Q 21.484375 6.890625 26.8125 6.890625 
Q 36.078125 6.890625 40.9375 10.546875 
Q 45.796875 14.203125 45.796875 21.1875 
Q 45.796875 27.640625 41.28125 31.265625 
Q 36.765625 34.90625 28.71875 34.90625 
L 20.21875 34.90625 
L 20.21875 43.015625 
L 29.109375 43.015625 
Q 36.375 43.015625 40.234375 45.921875 
Q 44.09375 48.828125 44.09375 54.296875 
Q 44.09375 59.90625 40.109375 62.90625 
Q 36.140625 65.921875 28.71875 65.921875 
Q 24.65625 65.921875 20.015625 65.03125 
Q 15.375 64.15625 9.8125 62.3125 
L 9.8125 71.09375 
Q 15.4375 72.65625 20.34375 73.4375 
Q 25.25 74.21875 29.59375 74.21875 
Q 40.828125 74.21875 47.359375 69.109375 
Q 53.90625 64.015625 53.90625 55.328125 
Q 53.90625 49.265625 50.4375 45.09375 
Q 46.96875 40.921875 40.578125 39.3125 
z
" id="DejaVuSans-51"/>
       </defs>
       <use transform="translate(0 0.765625)" xlink:href="#DejaVuSans-49"/>
       <use transform="translate(63.623047 0.765625)" xlink:href="#DejaVuSans-48"/>
       <use transform="translate(128.203125 39.046875)scale(0.7)" xlink:href="#DejaVuSans-8722"/>
       <use transform="translate(186.855469 39.046875)scale(0.7)" xlink:href="#DejaVuSans-51"/>
      </g>
     </g>
    </g>
    <g id="ytick_3">
     <g id="line2d_14">
      <defs>
       <path d="M 0 0 
L -2 0 
" id="m2b3dab86ea" style="stroke:#ffffff;stroke-width:0.6;"/>
      </defs>
      <g>
       <use style="fill:#ffffff;stroke:#ffffff;stroke-width:0.6;" x="108" xlink:href="#m2b3dab86ea" y="507.802988"/>
      </g>
     </g>
    </g>
    <g id="ytick_4">
     <g id="line2d_15">
      <g>
       <use style="fill:#ffffff;stroke:#ffffff;stroke-width:0.6;" x="108" xlink:href="#m2b3dab86ea" y="491.186667"/>
      </g>
     </g>
    </g>
    <g id="ytick_5">
     <g id="line2d_16">
      <g>
       <use style="fill:#ffffff;stroke:#ffffff;stroke-width:0.6;" x="108" xlink:href="#m2b3dab86ea" y="378.536654"/>
      </g>
     </g>
    </g>
    <g id="ytick_6">
     <g id="line2d_17">
      <g>
       <use style="fill:#ffffff;stroke:#ffffff;stroke-width:0.6;" x="108" xlink:href="#m2b3dab86ea" y="321.33539"/>
      </g>
     </g>
    </g>
    <g id="ytick_7">
     <g id="line2d_18">
      <g>
       <use style="fill:#ffffff;stroke:#ffffff;stroke-width:0.6;" x="108" xlink:href="#m2b3dab86ea" y="280.750447"/>
      </g>
     </g>
    </g>
    <g id="ytick_8">
     <g id="line2d_19">
      <g>
       <use style="fill:#ffffff;stroke:#ffffff;stroke-width:0.6;" x="108" xlink:href="#m2b3dab86ea" y="249.27032"/>
      </g>
     </g>
    </g>
    <g id="ytick_9">
     <g id="line2d_20">
      <g>
       <use style="fill:#ffffff;stroke:#ffffff;stroke-width:0.6;" x="108" xlink:href="#m2b3dab86ea" y="223.549183"/>
      </g>
     </g>
    </g>
    <g id="ytick_10">
     <g id="line2d_21">
      <g>
       <use style="fill:#ffffff;stroke:#ffffff;stroke-width:0.6;" x="108" xlink:href="#m2b3dab86ea" y="201.802272"/>
      </g>
     </g>
    </g>
    <g id="ytick_11">
     <g id="line2d_22">
      <g>
       <use style="fill:#ffffff;stroke:#ffffff;stroke-width:0.6;" x="108" xlink:href="#m2b3dab86ea" y="182.964241"/>
      </g>
     </g>
    </g>
    <g id="ytick_12">
     <g id="line2d_23">
      <g>
       <use style="fill:#ffffff;stroke:#ffffff;stroke-width:0.6;" x="108" xlink:href="#m2b3dab86ea" y="166.347919"/>
      </g>
     </g>
    </g>
    <g id="text_15">
     <!-- Relative error -->
     <g style="fill:#ffffff;" transform="translate(71.420312 324.735469)rotate(-90)scale(0.1 -0.1)">
      <defs>
       <path d="M 44.390625 34.1875 
Q 47.5625 33.109375 50.5625 29.59375 
Q 53.5625 26.078125 56.59375 19.921875 
L 66.609375 0 
L 56 0 
L 46.6875 18.703125 
Q 43.0625 26.03125 39.671875 28.421875 
Q 36.28125 30.8125 30.421875 30.8125 
L 19.671875 30.8125 
L 19.671875 0 
L 9.8125 0 
L 9.8125 72.90625 
L 32.078125 72.90625 
Q 44.578125 72.90625 50.734375 67.671875 
Q 56.890625 62.453125 56.890625 51.90625 
Q 56.890625 45.015625 53.6875 40.46875 
Q 50.484375 35.9375 44.390625 34.1875 
z
M 19.671875 64.796875 
L 19.671875 38.921875 
L 32.078125 38.921875 
Q 39.203125 38.921875 42.84375 42.21875 
Q 46.484375 45.515625 46.484375 51.90625 
Q 46.484375 58.296875 42.84375 61.546875 
Q 39.203125 64.796875 32.078125 64.796875 
z
" id="DejaVuSans-82"/>
       <path d="M 9.421875 75.984375 
L 18.40625 75.984375 
L 18.40625 0 
L 9.421875 0 
z
" id="DejaVuSans-108"/>
       <path d="M 34.28125 27.484375 
Q 23.390625 27.484375 19.1875 25 
Q 14.984375 22.515625 14.984375 16.5 
Q 14.984375 11.71875 18.140625 8.90625 
Q 21.296875 6.109375 26.703125 6.109375 
Q 34.1875 6.109375 38.703125 11.40625 
Q 43.21875 16.703125 43.21875 25.484375 
L 43.21875 27.484375 
z
M 52.203125 31.203125 
L 52.203125 0 
L 43.21875 0 
L 43.21875 8.296875 
Q 40.140625 3.328125 35.546875 0.953125 
Q 30.953125 -1.421875 24.3125 -1.421875 
Q 15.921875 -1.421875 10.953125 3.296875 
Q 6 8.015625 6 15.921875 
Q 6 25.140625 12.171875 29.828125 
Q 18.359375 34.515625 30.609375 34.515625 
L 43.21875 34.515625 
L 43.21875 35.40625 
Q 43.21875 41.609375 39.140625 45 
Q 35.0625 48.390625 27.6875 48.390625 
Q 23 48.390625 18.546875 47.265625 
Q 14.109375 46.140625 10.015625 43.890625 
L 10.015625 52.203125 
Q 14.9375 54.109375 19.578125 55.046875 
Q 24.21875 56 28.609375 56 
Q 40.484375 56 46.34375 49.84375 
Q 52.203125 43.703125 52.203125 31.203125 
z
" id="DejaVuSans-97"/>
       <path d="M 2.984375 54.6875 
L 12.5 54.6875 
L 29.59375 8.796875 
L 46.6875 54.6875 
L 56.203125 54.6875 
L 35.6875 0 
L 23.484375 0 
z
" id="DejaVuSans-118"/>
       <path id="DejaVuSans-32"/>
       <path d="M 41.109375 46.296875 
Q 39.59375 47.171875 37.8125 47.578125 
Q 36.03125 48 33.890625 48 
Q 26.265625 48 22.1875 43.046875 
Q 18.109375 38.09375 18.109375 28.8125 
L 18.109375 0 
L 9.078125 0 
L 9.078125 54.6875 
L 18.109375 54.6875 
L 18.109375 46.1875 
Q 20.953125 51.171875 25.484375 53.578125 
Q 30.03125 56 36.53125 56 
Q 37.453125 56 38.578125 55.875 
Q 39.703125 55.765625 41.0625 55.515625 
z
" id="DejaVuSans-114"/>
       <path d="M 30.609375 48.390625 
Q 23.390625 48.390625 19.1875 42.75 
Q 14.984375 37.109375 14.984375 27.296875 
Q 14.984375 17.484375 19.15625 11.84375 
Q 23.34375 6.203125 30.609375 6.203125 
Q 37.796875 6.203125 41.984375 11.859375 
Q 46.1875 17.53125 46.1875 27.296875 
Q 46.1875 37.015625 41.984375 42.703125 
Q 37.796875 48.390625 30.609375 48.390625 
z
M 30.609375 56 
Q 42.328125 56 49.015625 48.375 
Q 55.71875 40.765625 55.71875 27.296875 
Q 55.71875 13.875 49.015625 6.21875 
Q 42.328125 -1.421875 30.609375 -1.421875 
Q 18.84375 -1.421875 12.171875 6.21875 
Q 5.515625 13.875 5.515625 27.296875 
Q 5.515625 40.765625 12.171875 48.375 
Q 18.84375 56 30.609375 56 
z
" id="DejaVuSans-111"/>
      </defs>
      <use xlink:href="#DejaVuSans-82"/>
      <use x="64.982422" xlink:href="#DejaVuSans-101"/>
      <use x="126.505859" xlink:href="#DejaVuSans-108"/>
      <use x="154.289062" xlink:href="#DejaVuSans-97"/>
      <use x="215.568359" xlink:href="#DejaVuSans-116"/>
      <use x="254.777344" xlink:href="#DejaVuSans-105"/>
      <use x="282.560547" xlink:href="#DejaVuSans-118"/>
      <use x="341.740234" xlink:href="#DejaVuSans-101"/>
      <use x="403.263672" xlink:href="#DejaVuSans-32"/>
      <use x="435.050781" xlink:href="#DejaVuSans-101"/>
      <use x="496.574219" xlink:href="#DejaVuSans-114"/>
      <use x="535.9375" xlink:href="#DejaVuSans-114"/>
      <use x="574.800781" xlink:href="#DejaVuSans-111"/>
      <use x="635.982422" xlink:href="#DejaVuSans-114"/>
     </g>
    </g>
   </g>
   <g id="line2d_24">
    <path clip-path="url(#pbfbab2c726)" d="M 138.436364 89.28 
L 139.653818 93.719125 
L 140.871273 93.092862 
L 142.088727 94.805453 
L 143.306182 95.874804 
L 144.523636 94.385067 
L 145.741091 96.706264 
L 146.958545 96.664329 
L 148.176 97.379151 
L 149.393455 97.391344 
L 150.610909 99.25724 
L 151.828364 101.36261 
L 153.045818 101.716223 
L 154.263273 102.338908 
L 155.480727 104.279875 
L 156.698182 103.689064 
L 157.915636 103.90522 
L 159.133091 105.81315 
L 160.350545 104.507225 
L 161.568 106.347687 
L 162.785455 107.694968 
L 164.002909 109.987548 
L 165.220364 108.807593 
L 166.437818 109.579139 
L 167.655273 111.773211 
L 168.872727 111.300682 
L 170.090182 112.474457 
L 171.307636 112.223154 
L 172.525091 114.296174 
L 173.742545 115.488719 
L 174.96 115.431058 
L 176.177455 116.030952 
L 181.047273 120.972707 
L 182.264727 119.202249 
L 184.699636 122.733074 
L 185.917091 123.225087 
L 187.134545 116.597748 
L 188.352 125.82992 
L 189.569455 125.50157 
L 190.786909 125.453701 
L 192.004364 126.184408 
L 193.221818 127.587257 
L 194.439273 128.421157 
L 195.656727 129.392372 
L 198.091636 129.731088 
L 199.309091 130.439217 
L 200.526545 132.752208 
L 201.744 132.553256 
L 202.961455 134.148594 
L 204.178909 134.039626 
L 205.396364 135.040118 
L 206.613818 135.665392 
L 207.831273 135.47543 
L 209.048727 138.809483 
L 210.266182 138.711867 
L 211.483636 140.292581 
L 212.701091 139.99068 
L 213.918545 139.095068 
L 215.136 140.27819 
L 216.353455 140.55774 
L 217.570909 140.659385 
L 218.788364 143.524162 
L 220.005818 143.198515 
L 221.223273 145.087969 
L 223.658182 145.302628 
L 224.875636 146.106724 
L 226.093091 147.279713 
L 227.310545 148.987394 
L 228.528 148.504348 
L 230.962909 149.129308 
L 232.180364 150.98458 
L 233.397818 151.181842 
L 234.615273 152.647939 
L 235.832727 151.78819 
L 237.050182 153.916973 
L 238.267636 154.402415 
L 239.485091 154.400582 
L 240.702545 156.523296 
L 241.92 155.104942 
L 243.137455 157.049149 
L 244.354909 156.701881 
L 246.789818 158.517836 
L 248.007273 159.028768 
L 249.224727 161.355145 
L 250.442182 161.567778 
L 251.659636 163.422167 
L 252.877091 159.777253 
L 254.094545 163.950995 
L 255.312 159.923749 
L 257.746909 164.755019 
L 258.964364 165.06227 
L 260.181818 166.519325 
L 261.399273 164.548963 
L 262.616727 169.15588 
L 263.834182 166.713581 
L 265.051636 171.812299 
L 266.269091 168.495928 
L 267.486545 168.922966 
L 268.704 169.194778 
L 269.921455 167.117613 
L 271.138909 171.736582 
L 273.573818 173.845776 
L 274.791273 174.294818 
L 276.008727 172.514007 
L 277.226182 172.193062 
L 278.443636 173.011439 
L 279.661091 175.793165 
L 280.878545 175.358554 
L 282.096 177.339746 
L 283.313455 176.313165 
L 284.530909 177.506659 
L 285.748364 177.076678 
L 286.965818 181.001136 
L 288.183273 180.256062 
L 289.400727 181.395069 
L 290.618182 180.362207 
L 293.053091 181.282668 
L 294.270545 179.370577 
L 295.488 186.233202 
L 296.705455 180.7972 
L 297.922909 184.6209 
L 299.140364 184.996676 
L 300.357818 185.60356 
L 301.575273 184.310061 
L 302.792727 184.707323 
L 304.010182 186.730918 
L 305.227636 184.967218 
L 306.445091 188.531735 
L 307.662545 186.343636 
L 308.88 188.959517 
L 310.097455 190.372167 
L 312.532364 191.326503 
L 313.749818 190.817156 
L 314.967273 189.837368 
L 316.184727 190.315698 
L 317.402182 191.535387 
L 318.619636 193.658335 
L 319.837091 194.295802 
L 321.054545 195.361373 
L 322.272 196.248183 
L 323.489455 194.710209 
L 324.706909 193.783654 
L 325.924364 194.897841 
L 327.141818 195.022958 
L 328.359273 196.369804 
L 329.576727 197.155058 
L 330.794182 196.148126 
L 332.011636 198.335935 
L 333.229091 196.626174 
L 334.446545 201.24214 
L 335.664 198.183145 
L 336.881455 200.187303 
L 338.098909 203.2449 
L 339.316364 199.259668 
L 340.533818 200.676475 
L 341.751273 203.684233 
L 342.968727 202.687513 
L 344.186182 202.674271 
L 345.403636 205.746792 
L 346.621091 201.804497 
L 347.838545 205.38939 
L 349.056 200.949531 
L 350.273455 205.888671 
L 351.490909 206.915072 
L 352.708364 204.810018 
L 353.925818 212.07112 
L 355.143273 209.970935 
L 356.360727 208.182272 
L 357.578182 206.107749 
L 358.795636 209.533498 
L 360.013091 208.994909 
L 361.230545 210.391699 
L 362.448 210.813348 
L 363.665455 210.731436 
L 364.882909 213.900822 
L 366.100364 213.531563 
L 367.317818 210.289862 
L 368.535273 214.130235 
L 369.752727 211.588612 
L 370.970182 212.939474 
L 372.187636 213.726179 
L 373.405091 216.443285 
L 374.622545 217.898326 
L 375.84 213.172706 
L 377.057455 213.501865 
L 378.274909 215.178842 
L 379.492364 215.970938 
L 380.709818 216.405558 
L 381.927273 219.197771 
L 383.144727 222.991037 
L 384.362182 218.512381 
L 385.579636 222.231362 
L 386.797091 220.71334 
L 388.014545 220.037019 
L 389.232 220.404751 
L 390.449455 218.973192 
L 391.666909 217.123235 
L 392.884364 226.127418 
L 394.101818 222.385372 
L 395.319273 226.229781 
L 396.536727 224.398224 
L 397.754182 230.319977 
L 398.971636 222.667428 
L 400.189091 225.473238 
L 401.406545 219.460157 
L 402.624 223.123326 
L 403.841455 231.092065 
L 405.058909 218.72611 
L 406.276364 260.24389 
L 407.493818 219.717556 
L 408.711273 234.333208 
L 409.928727 228.780806 
L 411.146182 224.727503 
L 412.363636 226.320469 
L 413.581091 227.543167 
L 414.798545 239.550269 
L 416.016 232.09233 
L 417.233455 236.475609 
L 418.450909 232.042717 
L 419.668364 237.760066 
L 420.885818 237.905478 
L 422.103273 229.176623 
L 423.320727 232.280894 
L 424.538182 236.047392 
L 425.755636 237.120235 
L 426.973091 241.313177 
L 428.190545 237.58752 
L 429.408 242.0192 
L 430.625455 242.989733 
L 431.842909 239.913259 
L 433.060364 237.948063 
L 434.277818 242.750546 
L 435.495273 242.033836 
L 436.712727 239.8159 
L 437.930182 243.138582 
L 439.147636 249.216212 
L 440.365091 240.69081 
L 441.582545 247.228438 
L 442.8 242.822844 
L 445.234909 248.323906 
L 446.452364 245.882809 
L 447.669818 253.874385 
L 448.887273 244.477009 
L 450.104727 250.809026 
L 451.322182 252.253643 
L 452.539636 247.903787 
L 453.757091 248.816811 
L 454.974545 250.267695 
L 456.192 252.339805 
L 457.409455 251.366609 
L 458.626909 261.691525 
L 459.844364 252.741482 
L 461.061818 257.02893 
L 462.279273 255.80378 
L 463.496727 250.936027 
L 464.714182 254.329833 
L 465.931636 256.433165 
L 467.149091 260.779715 
L 468.366545 263.015504 
L 469.584 262.214468 
L 470.801455 261.038277 
L 472.018909 263.657568 
L 473.236364 258.570312 
L 474.453818 267.594488 
L 475.671273 269.175464 
L 476.888727 260.820501 
L 478.106182 266.970478 
L 479.323636 268.512338 
L 480.541091 267.829458 
L 481.758545 270.790629 
L 482.976 270.592742 
L 484.193455 267.422081 
L 485.410909 267.958144 
L 486.628364 271.676663 
L 487.845818 270.429461 
L 489.063273 274.738961 
L 490.280727 272.893717 
L 491.498182 276.884691 
L 492.715636 274.282025 
L 493.933091 276.525095 
L 495.150545 277.17218 
L 496.368 275.500658 
L 497.585455 277.283694 
L 498.802909 276.989447 
L 500.020364 283.903642 
L 501.237818 283.394009 
L 502.455273 280.977222 
L 503.672727 284.440551 
L 504.890182 278.999114 
L 506.107636 283.742823 
L 507.325091 283.097655 
L 508.542545 285.053634 
L 509.76 284.526267 
L 510.977455 288.235569 
L 512.194909 289.69068 
L 513.412364 288.9712 
L 514.629818 289.81395 
L 515.847273 289.490237 
L 517.064727 292.758826 
L 518.282182 287.096866 
L 519.499636 290.902302 
L 520.717091 293.691054 
L 521.934545 297.577523 
L 523.152 294.580527 
L 524.369455 300.772523 
L 525.586909 295.902106 
L 526.804364 298.51112 
L 528.021818 299.704586 
L 529.239273 297.889316 
L 530.456727 301.110382 
L 531.674182 300.951882 
L 534.109091 304.824086 
L 535.326545 302.754219 
L 536.544 303.100772 
L 537.761455 306.06201 
L 538.978909 306.081436 
L 540.196364 309.79656 
L 541.413818 310.47666 
L 542.631273 308.36499 
L 543.848727 305.6423 
L 545.066182 308.856204 
L 546.283636 311.753071 
L 547.501091 314.307255 
L 548.718545 310.650624 
L 549.936 316.590623 
L 551.153455 316.516848 
L 552.370909 319.445384 
L 553.588364 318.122299 
L 554.805818 318.474836 
L 556.023273 319.957373 
L 557.240727 314.061121 
L 558.458182 322.253726 
L 559.675636 318.96315 
L 560.893091 320.327565 
L 562.110545 325.820392 
L 563.328 325.53699 
L 564.545455 327.694034 
L 565.762909 325.930554 
L 566.980364 329.102071 
L 568.197818 326.831413 
L 569.415273 324.862485 
L 570.632727 325.057426 
L 571.850182 329.795713 
L 573.067636 330.995576 
L 574.285091 332.589256 
L 575.502545 331.802199 
L 576.72 335.766547 
L 577.937455 332.790768 
L 579.154909 335.321601 
L 580.372364 336.341461 
L 581.589818 332.314293 
L 582.807273 341.577247 
L 584.024727 338.415519 
L 585.242182 338.333744 
L 586.459636 339.917187 
L 587.677091 338.950633 
L 588.894545 344.818578 
L 590.112 339.111526 
L 591.329455 346.220672 
L 592.546909 347.454181 
L 593.764364 342.390765 
L 594.981818 343.533023 
L 596.199273 344.236714 
L 597.416727 347.664989 
L 598.634182 346.122603 
L 599.851636 353.003642 
L 601.069091 351.010028 
L 602.286545 347.815264 
L 603.504 349.805086 
L 604.721455 355.84534 
L 605.938909 353.479558 
L 607.156364 355.268402 
L 608.373818 356.195521 
L 609.591273 357.532005 
L 610.808727 353.475429 
L 612.026182 354.378556 
L 613.243636 357.004767 
L 614.461091 355.421431 
L 615.678545 361.798053 
L 616.896 361.466867 
L 618.113455 360.314227 
L 619.330909 367.848028 
L 620.548364 359.772027 
L 621.765818 365.106682 
L 622.983273 361.297632 
L 624.200727 367.198591 
L 625.418182 370.623815 
L 626.635636 366.85276 
L 627.853091 368.715525 
L 629.070545 369.857559 
L 630.288 373.078721 
L 631.505455 366.273976 
L 632.722909 375.616893 
L 633.940364 372.48454 
L 635.157818 372.732015 
L 636.375273 373.608863 
L 638.810182 374.325043 
L 640.027636 373.448212 
L 641.245091 374.839384 
L 642.462545 382.090832 
L 643.68 377.781953 
L 644.897455 380.946409 
L 646.114909 383.256591 
L 647.332364 378.779278 
L 648.549818 384.652406 
L 649.767273 386.669957 
L 650.984727 388.462428 
L 652.202182 384.71644 
L 654.637091 389.37569 
L 655.854545 385.416476 
L 657.072 387.120941 
L 658.289455 392.272864 
L 659.506909 395.512708 
L 660.724364 393.423057 
L 661.941818 393.588432 
L 663.159273 394.934541 
L 664.376727 388.492455 
L 665.594182 396.985268 
L 666.811636 395.163787 
L 668.029091 401.308556 
L 669.246545 405.503937 
L 670.464 404.811634 
L 671.681455 400.870852 
L 672.898909 397.58467 
L 674.116364 409.374934 
L 675.333818 405.007304 
L 676.551273 407.954846 
L 678.986182 409.160317 
L 680.203636 410.375836 
L 681.421091 415.398537 
L 682.638545 409.953429 
L 683.856 405.33928 
L 685.073455 413.127129 
L 686.290909 413.210154 
L 687.508364 420.465885 
L 688.725818 417.428515 
L 689.943273 416.102638 
L 691.160727 420.639196 
L 692.378182 413.50368 
L 693.595636 434.15237 
L 694.813091 429.852295 
L 696.030545 419.843137 
L 697.248 424.255193 
L 698.465455 430.45962 
L 699.682909 426.933298 
L 700.900364 430.761675 
L 702.117818 435.455997 
L 703.335273 428.927486 
L 704.552727 432.254786 
L 705.770182 431.598855 
L 706.987636 435.408341 
L 708.205091 443.561312 
L 709.422545 433.914863 
L 710.64 444.868305 
L 711.857455 442.085531 
L 713.074909 446.332557 
L 714.292364 446.621892 
L 715.509818 444.545117 
L 716.727273 452.210113 
L 717.944727 451.373569 
L 719.162182 450.952039 
L 720.379636 453.499501 
L 721.597091 455.267126 
L 722.814545 457.744085 
L 724.032 463.826915 
L 725.249455 451.936219 
L 726.466909 466.774193 
L 727.684364 471.222166 
L 728.901818 462.526562 
L 730.119273 472.019508 
L 731.336727 474.244047 
L 732.554182 462.724256 
L 733.771636 471.184341 
L 734.989091 472.093473 
L 736.206545 477.711192 
L 737.424 474.152409 
L 738.641455 475.666162 
L 739.858909 480.026936 
L 741.076364 489.286437 
L 742.293818 489.046386 
L 743.511273 478.401416 
L 744.728727 488.747005 
L 745.946182 482.188853 
L 747.163636 492.48 
L 747.163636 492.48 
" style="fill:none;stroke:#ffffff;stroke-linecap:square;stroke-width:1.5;"/>
    <defs>
     <path d="M 0 1.5 
C 0.397805 1.5 0.77937 1.341951 1.06066 1.06066 
C 1.341951 0.77937 1.5 0.397805 1.5 0 
C 1.5 -0.397805 1.341951 -0.77937 1.06066 -1.06066 
C 0.77937 -1.341951 0.397805 -1.5 0 -1.5 
C -0.397805 -1.5 -0.77937 -1.341951 -1.06066 -1.06066 
C -1.341951 -0.77937 -1.5 -0.397805 -1.5 0 
C -1.5 0.397805 -1.341951 0.77937 -1.06066 1.06066 
C -0.77937 1.341951 -0.397805 1.5 0 1.5 
z
" id="m9f0f8a9e83" style="stroke:#ffffff;"/>
    </defs>
    <g clip-path="url(#pbfbab2c726)">
     <use style="fill:#ffffff;stroke:#ffffff;" x="138.436364" xlink:href="#m9f0f8a9e83" y="89.28"/>
     <use style="fill:#ffffff;stroke:#ffffff;" x="139.653818" xlink:href="#m9f0f8a9e83" y="93.719125"/>
     <use style="fill:#ffffff;stroke:#ffffff;" x="140.871273" xlink:href="#m9f0f8a9e83" y="93.092862"/>
     <use style="fill:#ffffff;stroke:#ffffff;" x="142.088727" xlink:href="#m9f0f8a9e83" y="94.805453"/>
     <use style="fill:#ffffff;stroke:#ffffff;" x="143.306182" xlink:href="#m9f0f8a9e83" y="95.874804"/>
     <use style="fill:#ffffff;stroke:#ffffff;" x="144.523636" xlink:href="#m9f0f8a9e83" y="94.385067"/>
     <use style="fill:#ffffff;stroke:#ffffff;" x="145.741091" xlink:href="#m9f0f8a9e83" y="96.706264"/>
     <use style="fill:#ffffff;stroke:#ffffff;" x="146.958545" xlink:href="#m9f0f8a9e83" y="96.664329"/>
     <use style="fill:#ffffff;stroke:#ffffff;" x="148.176" xlink:href="#m9f0f8a9e83" y="97.379151"/>
     <use style="fill:#ffffff;stroke:#ffffff;" x="149.393455" xlink:href="#m9f0f8a9e83" y="97.391344"/>
     <use style="fill:#ffffff;stroke:#ffffff;" x="150.610909" xlink:href="#m9f0f8a9e83" y="99.25724"/>
     <use style="fill:#ffffff;stroke:#ffffff;" x="151.828364" xlink:href="#m9f0f8a9e83" y="101.36261"/>
     <use style="fill:#ffffff;stroke:#ffffff;" x="153.045818" xlink:href="#m9f0f8a9e83" y="101.716223"/>
     <use style="fill:#ffffff;stroke:#ffffff;" x="154.263273" xlink:href="#m9f0f8a9e83" y="102.338908"/>
     <use style="fill:#ffffff;stroke:#ffffff;" x="155.480727" xlink:href="#m9f0f8a9e83" y="104.279875"/>
     <use style="fill:#ffffff;stroke:#ffffff;" x="156.698182" xlink:href="#m9f0f8a9e83" y="103.689064"/>
     <use style="fill:#ffffff;stroke:#ffffff;" x="157.915636" xlink:href="#m9f0f8a9e83" y="103.90522"/>
     <use style="fill:#ffffff;stroke:#ffffff;" x="159.133091" xlink:href="#m9f0f8a9e83" y="105.81315"/>
     <use style="fill:#ffffff;stroke:#ffffff;" x="160.350545" xlink:href="#m9f0f8a9e83" y="104.507225"/>
     <use style="fill:#ffffff;stroke:#ffffff;" x="161.568" xlink:href="#m9f0f8a9e83" y="106.347687"/>
     <use style="fill:#ffffff;stroke:#ffffff;" x="162.785455" xlink:href="#m9f0f8a9e83" y="107.694968"/>
     <use style="fill:#ffffff;stroke:#ffffff;" x="164.002909" xlink:href="#m9f0f8a9e83" y="109.987548"/>
     <use style="fill:#ffffff;stroke:#ffffff;" x="165.220364" xlink:href="#m9f0f8a9e83" y="108.807593"/>
     <use style="fill:#ffffff;stroke:#ffffff;" x="166.437818" xlink:href="#m9f0f8a9e83" y="109.579139"/>
     <use style="fill:#ffffff;stroke:#ffffff;" x="167.655273" xlink:href="#m9f0f8a9e83" y="111.773211"/>
     <use style="fill:#ffffff;stroke:#ffffff;" x="168.872727" xlink:href="#m9f0f8a9e83" y="111.300682"/>
     <use style="fill:#ffffff;stroke:#ffffff;" x="170.090182" xlink:href="#m9f0f8a9e83" y="112.474457"/>
     <use style="fill:#ffffff;stroke:#ffffff;" x="171.307636" xlink:href="#m9f0f8a9e83" y="112.223154"/>
     <use style="fill:#ffffff;stroke:#ffffff;" x="172.525091" xlink:href="#m9f0f8a9e83" y="114.296174"/>
     <use style="fill:#ffffff;stroke:#ffffff;" x="173.742545" xlink:href="#m9f0f8a9e83" y="115.488719"/>
     <use style="fill:#ffffff;stroke:#ffffff;" x="174.96" xlink:href="#m9f0f8a9e83" y="115.431058"/>
     <use style="fill:#ffffff;stroke:#ffffff;" x="176.177455" xlink:href="#m9f0f8a9e83" y="116.030952"/>
     <use style="fill:#ffffff;stroke:#ffffff;" x="177.394909" xlink:href="#m9f0f8a9e83" y="117.229333"/>
     <use style="fill:#ffffff;stroke:#ffffff;" x="178.612364" xlink:href="#m9f0f8a9e83" y="118.42625"/>
     <use style="fill:#ffffff;stroke:#ffffff;" x="179.829818" xlink:href="#m9f0f8a9e83" y="119.487382"/>
     <use style="fill:#ffffff;stroke:#ffffff;" x="181.047273" xlink:href="#m9f0f8a9e83" y="120.972707"/>
     <use style="fill:#ffffff;stroke:#ffffff;" x="182.264727" xlink:href="#m9f0f8a9e83" y="119.202249"/>
     <use style="fill:#ffffff;stroke:#ffffff;" x="183.482182" xlink:href="#m9f0f8a9e83" y="121.067557"/>
     <use style="fill:#ffffff;stroke:#ffffff;" x="184.699636" xlink:href="#m9f0f8a9e83" y="122.733074"/>
     <use style="fill:#ffffff;stroke:#ffffff;" x="185.917091" xlink:href="#m9f0f8a9e83" y="123.225087"/>
     <use style="fill:#ffffff;stroke:#ffffff;" x="187.134545" xlink:href="#m9f0f8a9e83" y="116.597748"/>
     <use style="fill:#ffffff;stroke:#ffffff;" x="188.352" xlink:href="#m9f0f8a9e83" y="125.82992"/>
     <use style="fill:#ffffff;stroke:#ffffff;" x="189.569455" xlink:href="#m9f0f8a9e83" y="125.50157"/>
     <use style="fill:#ffffff;stroke:#ffffff;" x="190.786909" xlink:href="#m9f0f8a9e83" y="125.453701"/>
     <use style="fill:#ffffff;stroke:#ffffff;" x="192.004364" xlink:href="#m9f0f8a9e83" y="126.184408"/>
     <use style="fill:#ffffff;stroke:#ffffff;" x="193.221818" xlink:href="#m9f0f8a9e83" y="127.587257"/>
     <use style="fill:#ffffff;stroke:#ffffff;" x="194.439273" xlink:href="#m9f0f8a9e83" y="128.421157"/>
     <use style="fill:#ffffff;stroke:#ffffff;" x="195.656727" xlink:href="#m9f0f8a9e83" y="129.392372"/>
     <use style="fill:#ffffff;stroke:#ffffff;" x="196.874182" xlink:href="#m9f0f8a9e83" y="129.579597"/>
     <use style="fill:#ffffff;stroke:#ffffff;" x="198.091636" xlink:href="#m9f0f8a9e83" y="129.731088"/>
     <use style="fill:#ffffff;stroke:#ffffff;" x="199.309091" xlink:href="#m9f0f8a9e83" y="130.439217"/>
     <use style="fill:#ffffff;stroke:#ffffff;" x="200.526545" xlink:href="#m9f0f8a9e83" y="132.752208"/>
     <use style="fill:#ffffff;stroke:#ffffff;" x="201.744" xlink:href="#m9f0f8a9e83" y="132.553256"/>
     <use style="fill:#ffffff;stroke:#ffffff;" x="202.961455" xlink:href="#m9f0f8a9e83" y="134.148594"/>
     <use style="fill:#ffffff;stroke:#ffffff;" x="204.178909" xlink:href="#m9f0f8a9e83" y="134.039626"/>
     <use style="fill:#ffffff;stroke:#ffffff;" x="205.396364" xlink:href="#m9f0f8a9e83" y="135.040118"/>
     <use style="fill:#ffffff;stroke:#ffffff;" x="206.613818" xlink:href="#m9f0f8a9e83" y="135.665392"/>
     <use style="fill:#ffffff;stroke:#ffffff;" x="207.831273" xlink:href="#m9f0f8a9e83" y="135.47543"/>
     <use style="fill:#ffffff;stroke:#ffffff;" x="209.048727" xlink:href="#m9f0f8a9e83" y="138.809483"/>
     <use style="fill:#ffffff;stroke:#ffffff;" x="210.266182" xlink:href="#m9f0f8a9e83" y="138.711867"/>
     <use style="fill:#ffffff;stroke:#ffffff;" x="211.483636" xlink:href="#m9f0f8a9e83" y="140.292581"/>
     <use style="fill:#ffffff;stroke:#ffffff;" x="212.701091" xlink:href="#m9f0f8a9e83" y="139.99068"/>
     <use style="fill:#ffffff;stroke:#ffffff;" x="213.918545" xlink:href="#m9f0f8a9e83" y="139.095068"/>
     <use style="fill:#ffffff;stroke:#ffffff;" x="215.136" xlink:href="#m9f0f8a9e83" y="140.27819"/>
     <use style="fill:#ffffff;stroke:#ffffff;" x="216.353455" xlink:href="#m9f0f8a9e83" y="140.55774"/>
     <use style="fill:#ffffff;stroke:#ffffff;" x="217.570909" xlink:href="#m9f0f8a9e83" y="140.659385"/>
     <use style="fill:#ffffff;stroke:#ffffff;" x="218.788364" xlink:href="#m9f0f8a9e83" y="143.524162"/>
     <use style="fill:#ffffff;stroke:#ffffff;" x="220.005818" xlink:href="#m9f0f8a9e83" y="143.198515"/>
     <use style="fill:#ffffff;stroke:#ffffff;" x="221.223273" xlink:href="#m9f0f8a9e83" y="145.087969"/>
     <use style="fill:#ffffff;stroke:#ffffff;" x="222.440727" xlink:href="#m9f0f8a9e83" y="145.182544"/>
     <use style="fill:#ffffff;stroke:#ffffff;" x="223.658182" xlink:href="#m9f0f8a9e83" y="145.302628"/>
     <use style="fill:#ffffff;stroke:#ffffff;" x="224.875636" xlink:href="#m9f0f8a9e83" y="146.106724"/>
     <use style="fill:#ffffff;stroke:#ffffff;" x="226.093091" xlink:href="#m9f0f8a9e83" y="147.279713"/>
     <use style="fill:#ffffff;stroke:#ffffff;" x="227.310545" xlink:href="#m9f0f8a9e83" y="148.987394"/>
     <use style="fill:#ffffff;stroke:#ffffff;" x="228.528" xlink:href="#m9f0f8a9e83" y="148.504348"/>
     <use style="fill:#ffffff;stroke:#ffffff;" x="229.745455" xlink:href="#m9f0f8a9e83" y="148.832451"/>
     <use style="fill:#ffffff;stroke:#ffffff;" x="230.962909" xlink:href="#m9f0f8a9e83" y="149.129308"/>
     <use style="fill:#ffffff;stroke:#ffffff;" x="232.180364" xlink:href="#m9f0f8a9e83" y="150.98458"/>
     <use style="fill:#ffffff;stroke:#ffffff;" x="233.397818" xlink:href="#m9f0f8a9e83" y="151.181842"/>
     <use style="fill:#ffffff;stroke:#ffffff;" x="234.615273" xlink:href="#m9f0f8a9e83" y="152.647939"/>
     <use style="fill:#ffffff;stroke:#ffffff;" x="235.832727" xlink:href="#m9f0f8a9e83" y="151.78819"/>
     <use style="fill:#ffffff;stroke:#ffffff;" x="237.050182" xlink:href="#m9f0f8a9e83" y="153.916973"/>
     <use style="fill:#ffffff;stroke:#ffffff;" x="238.267636" xlink:href="#m9f0f8a9e83" y="154.402415"/>
     <use style="fill:#ffffff;stroke:#ffffff;" x="239.485091" xlink:href="#m9f0f8a9e83" y="154.400582"/>
     <use style="fill:#ffffff;stroke:#ffffff;" x="240.702545" xlink:href="#m9f0f8a9e83" y="156.523296"/>
     <use style="fill:#ffffff;stroke:#ffffff;" x="241.92" xlink:href="#m9f0f8a9e83" y="155.104942"/>
     <use style="fill:#ffffff;stroke:#ffffff;" x="243.137455" xlink:href="#m9f0f8a9e83" y="157.049149"/>
     <use style="fill:#ffffff;stroke:#ffffff;" x="244.354909" xlink:href="#m9f0f8a9e83" y="156.701881"/>
     <use style="fill:#ffffff;stroke:#ffffff;" x="245.572364" xlink:href="#m9f0f8a9e83" y="157.665325"/>
     <use style="fill:#ffffff;stroke:#ffffff;" x="246.789818" xlink:href="#m9f0f8a9e83" y="158.517836"/>
     <use style="fill:#ffffff;stroke:#ffffff;" x="248.007273" xlink:href="#m9f0f8a9e83" y="159.028768"/>
     <use style="fill:#ffffff;stroke:#ffffff;" x="249.224727" xlink:href="#m9f0f8a9e83" y="161.355145"/>
     <use style="fill:#ffffff;stroke:#ffffff;" x="250.442182" xlink:href="#m9f0f8a9e83" y="161.567778"/>
     <use style="fill:#ffffff;stroke:#ffffff;" x="251.659636" xlink:href="#m9f0f8a9e83" y="163.422167"/>
     <use style="fill:#ffffff;stroke:#ffffff;" x="252.877091" xlink:href="#m9f0f8a9e83" y="159.777253"/>
     <use style="fill:#ffffff;stroke:#ffffff;" x="254.094545" xlink:href="#m9f0f8a9e83" y="163.950995"/>
     <use style="fill:#ffffff;stroke:#ffffff;" x="255.312" xlink:href="#m9f0f8a9e83" y="159.923749"/>
     <use style="fill:#ffffff;stroke:#ffffff;" x="256.529455" xlink:href="#m9f0f8a9e83" y="162.325936"/>
     <use style="fill:#ffffff;stroke:#ffffff;" x="257.746909" xlink:href="#m9f0f8a9e83" y="164.755019"/>
     <use style="fill:#ffffff;stroke:#ffffff;" x="258.964364" xlink:href="#m9f0f8a9e83" y="165.06227"/>
     <use style="fill:#ffffff;stroke:#ffffff;" x="260.181818" xlink:href="#m9f0f8a9e83" y="166.519325"/>
     <use style="fill:#ffffff;stroke:#ffffff;" x="261.399273" xlink:href="#m9f0f8a9e83" y="164.548963"/>
     <use style="fill:#ffffff;stroke:#ffffff;" x="262.616727" xlink:href="#m9f0f8a9e83" y="169.15588"/>
     <use style="fill:#ffffff;stroke:#ffffff;" x="263.834182" xlink:href="#m9f0f8a9e83" y="166.713581"/>
     <use style="fill:#ffffff;stroke:#ffffff;" x="265.051636" xlink:href="#m9f0f8a9e83" y="171.812299"/>
     <use style="fill:#ffffff;stroke:#ffffff;" x="266.269091" xlink:href="#m9f0f8a9e83" y="168.495928"/>
     <use style="fill:#ffffff;stroke:#ffffff;" x="267.486545" xlink:href="#m9f0f8a9e83" y="168.922966"/>
     <use style="fill:#ffffff;stroke:#ffffff;" x="268.704" xlink:href="#m9f0f8a9e83" y="169.194778"/>
     <use style="fill:#ffffff;stroke:#ffffff;" x="269.921455" xlink:href="#m9f0f8a9e83" y="167.117613"/>
     <use style="fill:#ffffff;stroke:#ffffff;" x="271.138909" xlink:href="#m9f0f8a9e83" y="171.736582"/>
     <use style="fill:#ffffff;stroke:#ffffff;" x="272.356364" xlink:href="#m9f0f8a9e83" y="172.7981"/>
     <use style="fill:#ffffff;stroke:#ffffff;" x="273.573818" xlink:href="#m9f0f8a9e83" y="173.845776"/>
     <use style="fill:#ffffff;stroke:#ffffff;" x="274.791273" xlink:href="#m9f0f8a9e83" y="174.294818"/>
     <use style="fill:#ffffff;stroke:#ffffff;" x="276.008727" xlink:href="#m9f0f8a9e83" y="172.514007"/>
     <use style="fill:#ffffff;stroke:#ffffff;" x="277.226182" xlink:href="#m9f0f8a9e83" y="172.193062"/>
     <use style="fill:#ffffff;stroke:#ffffff;" x="278.443636" xlink:href="#m9f0f8a9e83" y="173.011439"/>
     <use style="fill:#ffffff;stroke:#ffffff;" x="279.661091" xlink:href="#m9f0f8a9e83" y="175.793165"/>
     <use style="fill:#ffffff;stroke:#ffffff;" x="280.878545" xlink:href="#m9f0f8a9e83" y="175.358554"/>
     <use style="fill:#ffffff;stroke:#ffffff;" x="282.096" xlink:href="#m9f0f8a9e83" y="177.339746"/>
     <use style="fill:#ffffff;stroke:#ffffff;" x="283.313455" xlink:href="#m9f0f8a9e83" y="176.313165"/>
     <use style="fill:#ffffff;stroke:#ffffff;" x="284.530909" xlink:href="#m9f0f8a9e83" y="177.506659"/>
     <use style="fill:#ffffff;stroke:#ffffff;" x="285.748364" xlink:href="#m9f0f8a9e83" y="177.076678"/>
     <use style="fill:#ffffff;stroke:#ffffff;" x="286.965818" xlink:href="#m9f0f8a9e83" y="181.001136"/>
     <use style="fill:#ffffff;stroke:#ffffff;" x="288.183273" xlink:href="#m9f0f8a9e83" y="180.256062"/>
     <use style="fill:#ffffff;stroke:#ffffff;" x="289.400727" xlink:href="#m9f0f8a9e83" y="181.395069"/>
     <use style="fill:#ffffff;stroke:#ffffff;" x="290.618182" xlink:href="#m9f0f8a9e83" y="180.362207"/>
     <use style="fill:#ffffff;stroke:#ffffff;" x="291.835636" xlink:href="#m9f0f8a9e83" y="180.839215"/>
     <use style="fill:#ffffff;stroke:#ffffff;" x="293.053091" xlink:href="#m9f0f8a9e83" y="181.282668"/>
     <use style="fill:#ffffff;stroke:#ffffff;" x="294.270545" xlink:href="#m9f0f8a9e83" y="179.370577"/>
     <use style="fill:#ffffff;stroke:#ffffff;" x="295.488" xlink:href="#m9f0f8a9e83" y="186.233202"/>
     <use style="fill:#ffffff;stroke:#ffffff;" x="296.705455" xlink:href="#m9f0f8a9e83" y="180.7972"/>
     <use style="fill:#ffffff;stroke:#ffffff;" x="297.922909" xlink:href="#m9f0f8a9e83" y="184.6209"/>
     <use style="fill:#ffffff;stroke:#ffffff;" x="299.140364" xlink:href="#m9f0f8a9e83" y="184.996676"/>
     <use style="fill:#ffffff;stroke:#ffffff;" x="300.357818" xlink:href="#m9f0f8a9e83" y="185.60356"/>
     <use style="fill:#ffffff;stroke:#ffffff;" x="301.575273" xlink:href="#m9f0f8a9e83" y="184.310061"/>
     <use style="fill:#ffffff;stroke:#ffffff;" x="302.792727" xlink:href="#m9f0f8a9e83" y="184.707323"/>
     <use style="fill:#ffffff;stroke:#ffffff;" x="304.010182" xlink:href="#m9f0f8a9e83" y="186.730918"/>
     <use style="fill:#ffffff;stroke:#ffffff;" x="305.227636" xlink:href="#m9f0f8a9e83" y="184.967218"/>
     <use style="fill:#ffffff;stroke:#ffffff;" x="306.445091" xlink:href="#m9f0f8a9e83" y="188.531735"/>
     <use style="fill:#ffffff;stroke:#ffffff;" x="307.662545" xlink:href="#m9f0f8a9e83" y="186.343636"/>
     <use style="fill:#ffffff;stroke:#ffffff;" x="308.88" xlink:href="#m9f0f8a9e83" y="188.959517"/>
     <use style="fill:#ffffff;stroke:#ffffff;" x="310.097455" xlink:href="#m9f0f8a9e83" y="190.372167"/>
     <use style="fill:#ffffff;stroke:#ffffff;" x="311.314909" xlink:href="#m9f0f8a9e83" y="190.847147"/>
     <use style="fill:#ffffff;stroke:#ffffff;" x="312.532364" xlink:href="#m9f0f8a9e83" y="191.326503"/>
     <use style="fill:#ffffff;stroke:#ffffff;" x="313.749818" xlink:href="#m9f0f8a9e83" y="190.817156"/>
     <use style="fill:#ffffff;stroke:#ffffff;" x="314.967273" xlink:href="#m9f0f8a9e83" y="189.837368"/>
     <use style="fill:#ffffff;stroke:#ffffff;" x="316.184727" xlink:href="#m9f0f8a9e83" y="190.315698"/>
     <use style="fill:#ffffff;stroke:#ffffff;" x="317.402182" xlink:href="#m9f0f8a9e83" y="191.535387"/>
     <use style="fill:#ffffff;stroke:#ffffff;" x="318.619636" xlink:href="#m9f0f8a9e83" y="193.658335"/>
     <use style="fill:#ffffff;stroke:#ffffff;" x="319.837091" xlink:href="#m9f0f8a9e83" y="194.295802"/>
     <use style="fill:#ffffff;stroke:#ffffff;" x="321.054545" xlink:href="#m9f0f8a9e83" y="195.361373"/>
     <use style="fill:#ffffff;stroke:#ffffff;" x="322.272" xlink:href="#m9f0f8a9e83" y="196.248183"/>
     <use style="fill:#ffffff;stroke:#ffffff;" x="323.489455" xlink:href="#m9f0f8a9e83" y="194.710209"/>
     <use style="fill:#ffffff;stroke:#ffffff;" x="324.706909" xlink:href="#m9f0f8a9e83" y="193.783654"/>
     <use style="fill:#ffffff;stroke:#ffffff;" x="325.924364" xlink:href="#m9f0f8a9e83" y="194.897841"/>
     <use style="fill:#ffffff;stroke:#ffffff;" x="327.141818" xlink:href="#m9f0f8a9e83" y="195.022958"/>
     <use style="fill:#ffffff;stroke:#ffffff;" x="328.359273" xlink:href="#m9f0f8a9e83" y="196.369804"/>
     <use style="fill:#ffffff;stroke:#ffffff;" x="329.576727" xlink:href="#m9f0f8a9e83" y="197.155058"/>
     <use style="fill:#ffffff;stroke:#ffffff;" x="330.794182" xlink:href="#m9f0f8a9e83" y="196.148126"/>
     <use style="fill:#ffffff;stroke:#ffffff;" x="332.011636" xlink:href="#m9f0f8a9e83" y="198.335935"/>
     <use style="fill:#ffffff;stroke:#ffffff;" x="333.229091" xlink:href="#m9f0f8a9e83" y="196.626174"/>
     <use style="fill:#ffffff;stroke:#ffffff;" x="334.446545" xlink:href="#m9f0f8a9e83" y="201.24214"/>
     <use style="fill:#ffffff;stroke:#ffffff;" x="335.664" xlink:href="#m9f0f8a9e83" y="198.183145"/>
     <use style="fill:#ffffff;stroke:#ffffff;" x="336.881455" xlink:href="#m9f0f8a9e83" y="200.187303"/>
     <use style="fill:#ffffff;stroke:#ffffff;" x="338.098909" xlink:href="#m9f0f8a9e83" y="203.2449"/>
     <use style="fill:#ffffff;stroke:#ffffff;" x="339.316364" xlink:href="#m9f0f8a9e83" y="199.259668"/>
     <use style="fill:#ffffff;stroke:#ffffff;" x="340.533818" xlink:href="#m9f0f8a9e83" y="200.676475"/>
     <use style="fill:#ffffff;stroke:#ffffff;" x="341.751273" xlink:href="#m9f0f8a9e83" y="203.684233"/>
     <use style="fill:#ffffff;stroke:#ffffff;" x="342.968727" xlink:href="#m9f0f8a9e83" y="202.687513"/>
     <use style="fill:#ffffff;stroke:#ffffff;" x="344.186182" xlink:href="#m9f0f8a9e83" y="202.674271"/>
     <use style="fill:#ffffff;stroke:#ffffff;" x="345.403636" xlink:href="#m9f0f8a9e83" y="205.746792"/>
     <use style="fill:#ffffff;stroke:#ffffff;" x="346.621091" xlink:href="#m9f0f8a9e83" y="201.804497"/>
     <use style="fill:#ffffff;stroke:#ffffff;" x="347.838545" xlink:href="#m9f0f8a9e83" y="205.38939"/>
     <use style="fill:#ffffff;stroke:#ffffff;" x="349.056" xlink:href="#m9f0f8a9e83" y="200.949531"/>
     <use style="fill:#ffffff;stroke:#ffffff;" x="350.273455" xlink:href="#m9f0f8a9e83" y="205.888671"/>
     <use style="fill:#ffffff;stroke:#ffffff;" x="351.490909" xlink:href="#m9f0f8a9e83" y="206.915072"/>
     <use style="fill:#ffffff;stroke:#ffffff;" x="352.708364" xlink:href="#m9f0f8a9e83" y="204.810018"/>
     <use style="fill:#ffffff;stroke:#ffffff;" x="353.925818" xlink:href="#m9f0f8a9e83" y="212.07112"/>
     <use style="fill:#ffffff;stroke:#ffffff;" x="355.143273" xlink:href="#m9f0f8a9e83" y="209.970935"/>
     <use style="fill:#ffffff;stroke:#ffffff;" x="356.360727" xlink:href="#m9f0f8a9e83" y="208.182272"/>
     <use style="fill:#ffffff;stroke:#ffffff;" x="357.578182" xlink:href="#m9f0f8a9e83" y="206.107749"/>
     <use style="fill:#ffffff;stroke:#ffffff;" x="358.795636" xlink:href="#m9f0f8a9e83" y="209.533498"/>
     <use style="fill:#ffffff;stroke:#ffffff;" x="360.013091" xlink:href="#m9f0f8a9e83" y="208.994909"/>
     <use style="fill:#ffffff;stroke:#ffffff;" x="361.230545" xlink:href="#m9f0f8a9e83" y="210.391699"/>
     <use style="fill:#ffffff;stroke:#ffffff;" x="362.448" xlink:href="#m9f0f8a9e83" y="210.813348"/>
     <use style="fill:#ffffff;stroke:#ffffff;" x="363.665455" xlink:href="#m9f0f8a9e83" y="210.731436"/>
     <use style="fill:#ffffff;stroke:#ffffff;" x="364.882909" xlink:href="#m9f0f8a9e83" y="213.900822"/>
     <use style="fill:#ffffff;stroke:#ffffff;" x="366.100364" xlink:href="#m9f0f8a9e83" y="213.531563"/>
     <use style="fill:#ffffff;stroke:#ffffff;" x="367.317818" xlink:href="#m9f0f8a9e83" y="210.289862"/>
     <use style="fill:#ffffff;stroke:#ffffff;" x="368.535273" xlink:href="#m9f0f8a9e83" y="214.130235"/>
     <use style="fill:#ffffff;stroke:#ffffff;" x="369.752727" xlink:href="#m9f0f8a9e83" y="211.588612"/>
     <use style="fill:#ffffff;stroke:#ffffff;" x="370.970182" xlink:href="#m9f0f8a9e83" y="212.939474"/>
     <use style="fill:#ffffff;stroke:#ffffff;" x="372.187636" xlink:href="#m9f0f8a9e83" y="213.726179"/>
     <use style="fill:#ffffff;stroke:#ffffff;" x="373.405091" xlink:href="#m9f0f8a9e83" y="216.443285"/>
     <use style="fill:#ffffff;stroke:#ffffff;" x="374.622545" xlink:href="#m9f0f8a9e83" y="217.898326"/>
     <use style="fill:#ffffff;stroke:#ffffff;" x="375.84" xlink:href="#m9f0f8a9e83" y="213.172706"/>
     <use style="fill:#ffffff;stroke:#ffffff;" x="377.057455" xlink:href="#m9f0f8a9e83" y="213.501865"/>
     <use style="fill:#ffffff;stroke:#ffffff;" x="378.274909" xlink:href="#m9f0f8a9e83" y="215.178842"/>
     <use style="fill:#ffffff;stroke:#ffffff;" x="379.492364" xlink:href="#m9f0f8a9e83" y="215.970938"/>
     <use style="fill:#ffffff;stroke:#ffffff;" x="380.709818" xlink:href="#m9f0f8a9e83" y="216.405558"/>
     <use style="fill:#ffffff;stroke:#ffffff;" x="381.927273" xlink:href="#m9f0f8a9e83" y="219.197771"/>
     <use style="fill:#ffffff;stroke:#ffffff;" x="383.144727" xlink:href="#m9f0f8a9e83" y="222.991037"/>
     <use style="fill:#ffffff;stroke:#ffffff;" x="384.362182" xlink:href="#m9f0f8a9e83" y="218.512381"/>
     <use style="fill:#ffffff;stroke:#ffffff;" x="385.579636" xlink:href="#m9f0f8a9e83" y="222.231362"/>
     <use style="fill:#ffffff;stroke:#ffffff;" x="386.797091" xlink:href="#m9f0f8a9e83" y="220.71334"/>
     <use style="fill:#ffffff;stroke:#ffffff;" x="388.014545" xlink:href="#m9f0f8a9e83" y="220.037019"/>
     <use style="fill:#ffffff;stroke:#ffffff;" x="389.232" xlink:href="#m9f0f8a9e83" y="220.404751"/>
     <use style="fill:#ffffff;stroke:#ffffff;" x="390.449455" xlink:href="#m9f0f8a9e83" y="218.973192"/>
     <use style="fill:#ffffff;stroke:#ffffff;" x="391.666909" xlink:href="#m9f0f8a9e83" y="217.123235"/>
     <use style="fill:#ffffff;stroke:#ffffff;" x="392.884364" xlink:href="#m9f0f8a9e83" y="226.127418"/>
     <use style="fill:#ffffff;stroke:#ffffff;" x="394.101818" xlink:href="#m9f0f8a9e83" y="222.385372"/>
     <use style="fill:#ffffff;stroke:#ffffff;" x="395.319273" xlink:href="#m9f0f8a9e83" y="226.229781"/>
     <use style="fill:#ffffff;stroke:#ffffff;" x="396.536727" xlink:href="#m9f0f8a9e83" y="224.398224"/>
     <use style="fill:#ffffff;stroke:#ffffff;" x="397.754182" xlink:href="#m9f0f8a9e83" y="230.319977"/>
     <use style="fill:#ffffff;stroke:#ffffff;" x="398.971636" xlink:href="#m9f0f8a9e83" y="222.667428"/>
     <use style="fill:#ffffff;stroke:#ffffff;" x="400.189091" xlink:href="#m9f0f8a9e83" y="225.473238"/>
     <use style="fill:#ffffff;stroke:#ffffff;" x="401.406545" xlink:href="#m9f0f8a9e83" y="219.460157"/>
     <use style="fill:#ffffff;stroke:#ffffff;" x="402.624" xlink:href="#m9f0f8a9e83" y="223.123326"/>
     <use style="fill:#ffffff;stroke:#ffffff;" x="403.841455" xlink:href="#m9f0f8a9e83" y="231.092065"/>
     <use style="fill:#ffffff;stroke:#ffffff;" x="405.058909" xlink:href="#m9f0f8a9e83" y="218.72611"/>
     <use style="fill:#ffffff;stroke:#ffffff;" x="406.276364" xlink:href="#m9f0f8a9e83" y="260.24389"/>
     <use style="fill:#ffffff;stroke:#ffffff;" x="407.493818" xlink:href="#m9f0f8a9e83" y="219.717556"/>
     <use style="fill:#ffffff;stroke:#ffffff;" x="408.711273" xlink:href="#m9f0f8a9e83" y="234.333208"/>
     <use style="fill:#ffffff;stroke:#ffffff;" x="409.928727" xlink:href="#m9f0f8a9e83" y="228.780806"/>
     <use style="fill:#ffffff;stroke:#ffffff;" x="411.146182" xlink:href="#m9f0f8a9e83" y="224.727503"/>
     <use style="fill:#ffffff;stroke:#ffffff;" x="412.363636" xlink:href="#m9f0f8a9e83" y="226.320469"/>
     <use style="fill:#ffffff;stroke:#ffffff;" x="413.581091" xlink:href="#m9f0f8a9e83" y="227.543167"/>
     <use style="fill:#ffffff;stroke:#ffffff;" x="414.798545" xlink:href="#m9f0f8a9e83" y="239.550269"/>
     <use style="fill:#ffffff;stroke:#ffffff;" x="416.016" xlink:href="#m9f0f8a9e83" y="232.09233"/>
     <use style="fill:#ffffff;stroke:#ffffff;" x="417.233455" xlink:href="#m9f0f8a9e83" y="236.475609"/>
     <use style="fill:#ffffff;stroke:#ffffff;" x="418.450909" xlink:href="#m9f0f8a9e83" y="232.042717"/>
     <use style="fill:#ffffff;stroke:#ffffff;" x="419.668364" xlink:href="#m9f0f8a9e83" y="237.760066"/>
     <use style="fill:#ffffff;stroke:#ffffff;" x="420.885818" xlink:href="#m9f0f8a9e83" y="237.905478"/>
     <use style="fill:#ffffff;stroke:#ffffff;" x="422.103273" xlink:href="#m9f0f8a9e83" y="229.176623"/>
     <use style="fill:#ffffff;stroke:#ffffff;" x="423.320727" xlink:href="#m9f0f8a9e83" y="232.280894"/>
     <use style="fill:#ffffff;stroke:#ffffff;" x="424.538182" xlink:href="#m9f0f8a9e83" y="236.047392"/>
     <use style="fill:#ffffff;stroke:#ffffff;" x="425.755636" xlink:href="#m9f0f8a9e83" y="237.120235"/>
     <use style="fill:#ffffff;stroke:#ffffff;" x="426.973091" xlink:href="#m9f0f8a9e83" y="241.313177"/>
     <use style="fill:#ffffff;stroke:#ffffff;" x="428.190545" xlink:href="#m9f0f8a9e83" y="237.58752"/>
     <use style="fill:#ffffff;stroke:#ffffff;" x="429.408" xlink:href="#m9f0f8a9e83" y="242.0192"/>
     <use style="fill:#ffffff;stroke:#ffffff;" x="430.625455" xlink:href="#m9f0f8a9e83" y="242.989733"/>
     <use style="fill:#ffffff;stroke:#ffffff;" x="431.842909" xlink:href="#m9f0f8a9e83" y="239.913259"/>
     <use style="fill:#ffffff;stroke:#ffffff;" x="433.060364" xlink:href="#m9f0f8a9e83" y="237.948063"/>
     <use style="fill:#ffffff;stroke:#ffffff;" x="434.277818" xlink:href="#m9f0f8a9e83" y="242.750546"/>
     <use style="fill:#ffffff;stroke:#ffffff;" x="435.495273" xlink:href="#m9f0f8a9e83" y="242.033836"/>
     <use style="fill:#ffffff;stroke:#ffffff;" x="436.712727" xlink:href="#m9f0f8a9e83" y="239.8159"/>
     <use style="fill:#ffffff;stroke:#ffffff;" x="437.930182" xlink:href="#m9f0f8a9e83" y="243.138582"/>
     <use style="fill:#ffffff;stroke:#ffffff;" x="439.147636" xlink:href="#m9f0f8a9e83" y="249.216212"/>
     <use style="fill:#ffffff;stroke:#ffffff;" x="440.365091" xlink:href="#m9f0f8a9e83" y="240.69081"/>
     <use style="fill:#ffffff;stroke:#ffffff;" x="441.582545" xlink:href="#m9f0f8a9e83" y="247.228438"/>
     <use style="fill:#ffffff;stroke:#ffffff;" x="442.8" xlink:href="#m9f0f8a9e83" y="242.822844"/>
     <use style="fill:#ffffff;stroke:#ffffff;" x="444.017455" xlink:href="#m9f0f8a9e83" y="245.527389"/>
     <use style="fill:#ffffff;stroke:#ffffff;" x="445.234909" xlink:href="#m9f0f8a9e83" y="248.323906"/>
     <use style="fill:#ffffff;stroke:#ffffff;" x="446.452364" xlink:href="#m9f0f8a9e83" y="245.882809"/>
     <use style="fill:#ffffff;stroke:#ffffff;" x="447.669818" xlink:href="#m9f0f8a9e83" y="253.874385"/>
     <use style="fill:#ffffff;stroke:#ffffff;" x="448.887273" xlink:href="#m9f0f8a9e83" y="244.477009"/>
     <use style="fill:#ffffff;stroke:#ffffff;" x="450.104727" xlink:href="#m9f0f8a9e83" y="250.809026"/>
     <use style="fill:#ffffff;stroke:#ffffff;" x="451.322182" xlink:href="#m9f0f8a9e83" y="252.253643"/>
     <use style="fill:#ffffff;stroke:#ffffff;" x="452.539636" xlink:href="#m9f0f8a9e83" y="247.903787"/>
     <use style="fill:#ffffff;stroke:#ffffff;" x="453.757091" xlink:href="#m9f0f8a9e83" y="248.816811"/>
     <use style="fill:#ffffff;stroke:#ffffff;" x="454.974545" xlink:href="#m9f0f8a9e83" y="250.267695"/>
     <use style="fill:#ffffff;stroke:#ffffff;" x="456.192" xlink:href="#m9f0f8a9e83" y="252.339805"/>
     <use style="fill:#ffffff;stroke:#ffffff;" x="457.409455" xlink:href="#m9f0f8a9e83" y="251.366609"/>
     <use style="fill:#ffffff;stroke:#ffffff;" x="458.626909" xlink:href="#m9f0f8a9e83" y="261.691525"/>
     <use style="fill:#ffffff;stroke:#ffffff;" x="459.844364" xlink:href="#m9f0f8a9e83" y="252.741482"/>
     <use style="fill:#ffffff;stroke:#ffffff;" x="461.061818" xlink:href="#m9f0f8a9e83" y="257.02893"/>
     <use style="fill:#ffffff;stroke:#ffffff;" x="462.279273" xlink:href="#m9f0f8a9e83" y="255.80378"/>
     <use style="fill:#ffffff;stroke:#ffffff;" x="463.496727" xlink:href="#m9f0f8a9e83" y="250.936027"/>
     <use style="fill:#ffffff;stroke:#ffffff;" x="464.714182" xlink:href="#m9f0f8a9e83" y="254.329833"/>
     <use style="fill:#ffffff;stroke:#ffffff;" x="465.931636" xlink:href="#m9f0f8a9e83" y="256.433165"/>
     <use style="fill:#ffffff;stroke:#ffffff;" x="467.149091" xlink:href="#m9f0f8a9e83" y="260.779715"/>
     <use style="fill:#ffffff;stroke:#ffffff;" x="468.366545" xlink:href="#m9f0f8a9e83" y="263.015504"/>
     <use style="fill:#ffffff;stroke:#ffffff;" x="469.584" xlink:href="#m9f0f8a9e83" y="262.214468"/>
     <use style="fill:#ffffff;stroke:#ffffff;" x="470.801455" xlink:href="#m9f0f8a9e83" y="261.038277"/>
     <use style="fill:#ffffff;stroke:#ffffff;" x="472.018909" xlink:href="#m9f0f8a9e83" y="263.657568"/>
     <use style="fill:#ffffff;stroke:#ffffff;" x="473.236364" xlink:href="#m9f0f8a9e83" y="258.570312"/>
     <use style="fill:#ffffff;stroke:#ffffff;" x="474.453818" xlink:href="#m9f0f8a9e83" y="267.594488"/>
     <use style="fill:#ffffff;stroke:#ffffff;" x="475.671273" xlink:href="#m9f0f8a9e83" y="269.175464"/>
     <use style="fill:#ffffff;stroke:#ffffff;" x="476.888727" xlink:href="#m9f0f8a9e83" y="260.820501"/>
     <use style="fill:#ffffff;stroke:#ffffff;" x="478.106182" xlink:href="#m9f0f8a9e83" y="266.970478"/>
     <use style="fill:#ffffff;stroke:#ffffff;" x="479.323636" xlink:href="#m9f0f8a9e83" y="268.512338"/>
     <use style="fill:#ffffff;stroke:#ffffff;" x="480.541091" xlink:href="#m9f0f8a9e83" y="267.829458"/>
     <use style="fill:#ffffff;stroke:#ffffff;" x="481.758545" xlink:href="#m9f0f8a9e83" y="270.790629"/>
     <use style="fill:#ffffff;stroke:#ffffff;" x="482.976" xlink:href="#m9f0f8a9e83" y="270.592742"/>
     <use style="fill:#ffffff;stroke:#ffffff;" x="484.193455" xlink:href="#m9f0f8a9e83" y="267.422081"/>
     <use style="fill:#ffffff;stroke:#ffffff;" x="485.410909" xlink:href="#m9f0f8a9e83" y="267.958144"/>
     <use style="fill:#ffffff;stroke:#ffffff;" x="486.628364" xlink:href="#m9f0f8a9e83" y="271.676663"/>
     <use style="fill:#ffffff;stroke:#ffffff;" x="487.845818" xlink:href="#m9f0f8a9e83" y="270.429461"/>
     <use style="fill:#ffffff;stroke:#ffffff;" x="489.063273" xlink:href="#m9f0f8a9e83" y="274.738961"/>
     <use style="fill:#ffffff;stroke:#ffffff;" x="490.280727" xlink:href="#m9f0f8a9e83" y="272.893717"/>
     <use style="fill:#ffffff;stroke:#ffffff;" x="491.498182" xlink:href="#m9f0f8a9e83" y="276.884691"/>
     <use style="fill:#ffffff;stroke:#ffffff;" x="492.715636" xlink:href="#m9f0f8a9e83" y="274.282025"/>
     <use style="fill:#ffffff;stroke:#ffffff;" x="493.933091" xlink:href="#m9f0f8a9e83" y="276.525095"/>
     <use style="fill:#ffffff;stroke:#ffffff;" x="495.150545" xlink:href="#m9f0f8a9e83" y="277.17218"/>
     <use style="fill:#ffffff;stroke:#ffffff;" x="496.368" xlink:href="#m9f0f8a9e83" y="275.500658"/>
     <use style="fill:#ffffff;stroke:#ffffff;" x="497.585455" xlink:href="#m9f0f8a9e83" y="277.283694"/>
     <use style="fill:#ffffff;stroke:#ffffff;" x="498.802909" xlink:href="#m9f0f8a9e83" y="276.989447"/>
     <use style="fill:#ffffff;stroke:#ffffff;" x="500.020364" xlink:href="#m9f0f8a9e83" y="283.903642"/>
     <use style="fill:#ffffff;stroke:#ffffff;" x="501.237818" xlink:href="#m9f0f8a9e83" y="283.394009"/>
     <use style="fill:#ffffff;stroke:#ffffff;" x="502.455273" xlink:href="#m9f0f8a9e83" y="280.977222"/>
     <use style="fill:#ffffff;stroke:#ffffff;" x="503.672727" xlink:href="#m9f0f8a9e83" y="284.440551"/>
     <use style="fill:#ffffff;stroke:#ffffff;" x="504.890182" xlink:href="#m9f0f8a9e83" y="278.999114"/>
     <use style="fill:#ffffff;stroke:#ffffff;" x="506.107636" xlink:href="#m9f0f8a9e83" y="283.742823"/>
     <use style="fill:#ffffff;stroke:#ffffff;" x="507.325091" xlink:href="#m9f0f8a9e83" y="283.097655"/>
     <use style="fill:#ffffff;stroke:#ffffff;" x="508.542545" xlink:href="#m9f0f8a9e83" y="285.053634"/>
     <use style="fill:#ffffff;stroke:#ffffff;" x="509.76" xlink:href="#m9f0f8a9e83" y="284.526267"/>
     <use style="fill:#ffffff;stroke:#ffffff;" x="510.977455" xlink:href="#m9f0f8a9e83" y="288.235569"/>
     <use style="fill:#ffffff;stroke:#ffffff;" x="512.194909" xlink:href="#m9f0f8a9e83" y="289.69068"/>
     <use style="fill:#ffffff;stroke:#ffffff;" x="513.412364" xlink:href="#m9f0f8a9e83" y="288.9712"/>
     <use style="fill:#ffffff;stroke:#ffffff;" x="514.629818" xlink:href="#m9f0f8a9e83" y="289.81395"/>
     <use style="fill:#ffffff;stroke:#ffffff;" x="515.847273" xlink:href="#m9f0f8a9e83" y="289.490237"/>
     <use style="fill:#ffffff;stroke:#ffffff;" x="517.064727" xlink:href="#m9f0f8a9e83" y="292.758826"/>
     <use style="fill:#ffffff;stroke:#ffffff;" x="518.282182" xlink:href="#m9f0f8a9e83" y="287.096866"/>
     <use style="fill:#ffffff;stroke:#ffffff;" x="519.499636" xlink:href="#m9f0f8a9e83" y="290.902302"/>
     <use style="fill:#ffffff;stroke:#ffffff;" x="520.717091" xlink:href="#m9f0f8a9e83" y="293.691054"/>
     <use style="fill:#ffffff;stroke:#ffffff;" x="521.934545" xlink:href="#m9f0f8a9e83" y="297.577523"/>
     <use style="fill:#ffffff;stroke:#ffffff;" x="523.152" xlink:href="#m9f0f8a9e83" y="294.580527"/>
     <use style="fill:#ffffff;stroke:#ffffff;" x="524.369455" xlink:href="#m9f0f8a9e83" y="300.772523"/>
     <use style="fill:#ffffff;stroke:#ffffff;" x="525.586909" xlink:href="#m9f0f8a9e83" y="295.902106"/>
     <use style="fill:#ffffff;stroke:#ffffff;" x="526.804364" xlink:href="#m9f0f8a9e83" y="298.51112"/>
     <use style="fill:#ffffff;stroke:#ffffff;" x="528.021818" xlink:href="#m9f0f8a9e83" y="299.704586"/>
     <use style="fill:#ffffff;stroke:#ffffff;" x="529.239273" xlink:href="#m9f0f8a9e83" y="297.889316"/>
     <use style="fill:#ffffff;stroke:#ffffff;" x="530.456727" xlink:href="#m9f0f8a9e83" y="301.110382"/>
     <use style="fill:#ffffff;stroke:#ffffff;" x="531.674182" xlink:href="#m9f0f8a9e83" y="300.951882"/>
     <use style="fill:#ffffff;stroke:#ffffff;" x="532.891636" xlink:href="#m9f0f8a9e83" y="302.791184"/>
     <use style="fill:#ffffff;stroke:#ffffff;" x="534.109091" xlink:href="#m9f0f8a9e83" y="304.824086"/>
     <use style="fill:#ffffff;stroke:#ffffff;" x="535.326545" xlink:href="#m9f0f8a9e83" y="302.754219"/>
     <use style="fill:#ffffff;stroke:#ffffff;" x="536.544" xlink:href="#m9f0f8a9e83" y="303.100772"/>
     <use style="fill:#ffffff;stroke:#ffffff;" x="537.761455" xlink:href="#m9f0f8a9e83" y="306.06201"/>
     <use style="fill:#ffffff;stroke:#ffffff;" x="538.978909" xlink:href="#m9f0f8a9e83" y="306.081436"/>
     <use style="fill:#ffffff;stroke:#ffffff;" x="540.196364" xlink:href="#m9f0f8a9e83" y="309.79656"/>
     <use style="fill:#ffffff;stroke:#ffffff;" x="541.413818" xlink:href="#m9f0f8a9e83" y="310.47666"/>
     <use style="fill:#ffffff;stroke:#ffffff;" x="542.631273" xlink:href="#m9f0f8a9e83" y="308.36499"/>
     <use style="fill:#ffffff;stroke:#ffffff;" x="543.848727" xlink:href="#m9f0f8a9e83" y="305.6423"/>
     <use style="fill:#ffffff;stroke:#ffffff;" x="545.066182" xlink:href="#m9f0f8a9e83" y="308.856204"/>
     <use style="fill:#ffffff;stroke:#ffffff;" x="546.283636" xlink:href="#m9f0f8a9e83" y="311.753071"/>
     <use style="fill:#ffffff;stroke:#ffffff;" x="547.501091" xlink:href="#m9f0f8a9e83" y="314.307255"/>
     <use style="fill:#ffffff;stroke:#ffffff;" x="548.718545" xlink:href="#m9f0f8a9e83" y="310.650624"/>
     <use style="fill:#ffffff;stroke:#ffffff;" x="549.936" xlink:href="#m9f0f8a9e83" y="316.590623"/>
     <use style="fill:#ffffff;stroke:#ffffff;" x="551.153455" xlink:href="#m9f0f8a9e83" y="316.516848"/>
     <use style="fill:#ffffff;stroke:#ffffff;" x="552.370909" xlink:href="#m9f0f8a9e83" y="319.445384"/>
     <use style="fill:#ffffff;stroke:#ffffff;" x="553.588364" xlink:href="#m9f0f8a9e83" y="318.122299"/>
     <use style="fill:#ffffff;stroke:#ffffff;" x="554.805818" xlink:href="#m9f0f8a9e83" y="318.474836"/>
     <use style="fill:#ffffff;stroke:#ffffff;" x="556.023273" xlink:href="#m9f0f8a9e83" y="319.957373"/>
     <use style="fill:#ffffff;stroke:#ffffff;" x="557.240727" xlink:href="#m9f0f8a9e83" y="314.061121"/>
     <use style="fill:#ffffff;stroke:#ffffff;" x="558.458182" xlink:href="#m9f0f8a9e83" y="322.253726"/>
     <use style="fill:#ffffff;stroke:#ffffff;" x="559.675636" xlink:href="#m9f0f8a9e83" y="318.96315"/>
     <use style="fill:#ffffff;stroke:#ffffff;" x="560.893091" xlink:href="#m9f0f8a9e83" y="320.327565"/>
     <use style="fill:#ffffff;stroke:#ffffff;" x="562.110545" xlink:href="#m9f0f8a9e83" y="325.820392"/>
     <use style="fill:#ffffff;stroke:#ffffff;" x="563.328" xlink:href="#m9f0f8a9e83" y="325.53699"/>
     <use style="fill:#ffffff;stroke:#ffffff;" x="564.545455" xlink:href="#m9f0f8a9e83" y="327.694034"/>
     <use style="fill:#ffffff;stroke:#ffffff;" x="565.762909" xlink:href="#m9f0f8a9e83" y="325.930554"/>
     <use style="fill:#ffffff;stroke:#ffffff;" x="566.980364" xlink:href="#m9f0f8a9e83" y="329.102071"/>
     <use style="fill:#ffffff;stroke:#ffffff;" x="568.197818" xlink:href="#m9f0f8a9e83" y="326.831413"/>
     <use style="fill:#ffffff;stroke:#ffffff;" x="569.415273" xlink:href="#m9f0f8a9e83" y="324.862485"/>
     <use style="fill:#ffffff;stroke:#ffffff;" x="570.632727" xlink:href="#m9f0f8a9e83" y="325.057426"/>
     <use style="fill:#ffffff;stroke:#ffffff;" x="571.850182" xlink:href="#m9f0f8a9e83" y="329.795713"/>
     <use style="fill:#ffffff;stroke:#ffffff;" x="573.067636" xlink:href="#m9f0f8a9e83" y="330.995576"/>
     <use style="fill:#ffffff;stroke:#ffffff;" x="574.285091" xlink:href="#m9f0f8a9e83" y="332.589256"/>
     <use style="fill:#ffffff;stroke:#ffffff;" x="575.502545" xlink:href="#m9f0f8a9e83" y="331.802199"/>
     <use style="fill:#ffffff;stroke:#ffffff;" x="576.72" xlink:href="#m9f0f8a9e83" y="335.766547"/>
     <use style="fill:#ffffff;stroke:#ffffff;" x="577.937455" xlink:href="#m9f0f8a9e83" y="332.790768"/>
     <use style="fill:#ffffff;stroke:#ffffff;" x="579.154909" xlink:href="#m9f0f8a9e83" y="335.321601"/>
     <use style="fill:#ffffff;stroke:#ffffff;" x="580.372364" xlink:href="#m9f0f8a9e83" y="336.341461"/>
     <use style="fill:#ffffff;stroke:#ffffff;" x="581.589818" xlink:href="#m9f0f8a9e83" y="332.314293"/>
     <use style="fill:#ffffff;stroke:#ffffff;" x="582.807273" xlink:href="#m9f0f8a9e83" y="341.577247"/>
     <use style="fill:#ffffff;stroke:#ffffff;" x="584.024727" xlink:href="#m9f0f8a9e83" y="338.415519"/>
     <use style="fill:#ffffff;stroke:#ffffff;" x="585.242182" xlink:href="#m9f0f8a9e83" y="338.333744"/>
     <use style="fill:#ffffff;stroke:#ffffff;" x="586.459636" xlink:href="#m9f0f8a9e83" y="339.917187"/>
     <use style="fill:#ffffff;stroke:#ffffff;" x="587.677091" xlink:href="#m9f0f8a9e83" y="338.950633"/>
     <use style="fill:#ffffff;stroke:#ffffff;" x="588.894545" xlink:href="#m9f0f8a9e83" y="344.818578"/>
     <use style="fill:#ffffff;stroke:#ffffff;" x="590.112" xlink:href="#m9f0f8a9e83" y="339.111526"/>
     <use style="fill:#ffffff;stroke:#ffffff;" x="591.329455" xlink:href="#m9f0f8a9e83" y="346.220672"/>
     <use style="fill:#ffffff;stroke:#ffffff;" x="592.546909" xlink:href="#m9f0f8a9e83" y="347.454181"/>
     <use style="fill:#ffffff;stroke:#ffffff;" x="593.764364" xlink:href="#m9f0f8a9e83" y="342.390765"/>
     <use style="fill:#ffffff;stroke:#ffffff;" x="594.981818" xlink:href="#m9f0f8a9e83" y="343.533023"/>
     <use style="fill:#ffffff;stroke:#ffffff;" x="596.199273" xlink:href="#m9f0f8a9e83" y="344.236714"/>
     <use style="fill:#ffffff;stroke:#ffffff;" x="597.416727" xlink:href="#m9f0f8a9e83" y="347.664989"/>
     <use style="fill:#ffffff;stroke:#ffffff;" x="598.634182" xlink:href="#m9f0f8a9e83" y="346.122603"/>
     <use style="fill:#ffffff;stroke:#ffffff;" x="599.851636" xlink:href="#m9f0f8a9e83" y="353.003642"/>
     <use style="fill:#ffffff;stroke:#ffffff;" x="601.069091" xlink:href="#m9f0f8a9e83" y="351.010028"/>
     <use style="fill:#ffffff;stroke:#ffffff;" x="602.286545" xlink:href="#m9f0f8a9e83" y="347.815264"/>
     <use style="fill:#ffffff;stroke:#ffffff;" x="603.504" xlink:href="#m9f0f8a9e83" y="349.805086"/>
     <use style="fill:#ffffff;stroke:#ffffff;" x="604.721455" xlink:href="#m9f0f8a9e83" y="355.84534"/>
     <use style="fill:#ffffff;stroke:#ffffff;" x="605.938909" xlink:href="#m9f0f8a9e83" y="353.479558"/>
     <use style="fill:#ffffff;stroke:#ffffff;" x="607.156364" xlink:href="#m9f0f8a9e83" y="355.268402"/>
     <use style="fill:#ffffff;stroke:#ffffff;" x="608.373818" xlink:href="#m9f0f8a9e83" y="356.195521"/>
     <use style="fill:#ffffff;stroke:#ffffff;" x="609.591273" xlink:href="#m9f0f8a9e83" y="357.532005"/>
     <use style="fill:#ffffff;stroke:#ffffff;" x="610.808727" xlink:href="#m9f0f8a9e83" y="353.475429"/>
     <use style="fill:#ffffff;stroke:#ffffff;" x="612.026182" xlink:href="#m9f0f8a9e83" y="354.378556"/>
     <use style="fill:#ffffff;stroke:#ffffff;" x="613.243636" xlink:href="#m9f0f8a9e83" y="357.004767"/>
     <use style="fill:#ffffff;stroke:#ffffff;" x="614.461091" xlink:href="#m9f0f8a9e83" y="355.421431"/>
     <use style="fill:#ffffff;stroke:#ffffff;" x="615.678545" xlink:href="#m9f0f8a9e83" y="361.798053"/>
     <use style="fill:#ffffff;stroke:#ffffff;" x="616.896" xlink:href="#m9f0f8a9e83" y="361.466867"/>
     <use style="fill:#ffffff;stroke:#ffffff;" x="618.113455" xlink:href="#m9f0f8a9e83" y="360.314227"/>
     <use style="fill:#ffffff;stroke:#ffffff;" x="619.330909" xlink:href="#m9f0f8a9e83" y="367.848028"/>
     <use style="fill:#ffffff;stroke:#ffffff;" x="620.548364" xlink:href="#m9f0f8a9e83" y="359.772027"/>
     <use style="fill:#ffffff;stroke:#ffffff;" x="621.765818" xlink:href="#m9f0f8a9e83" y="365.106682"/>
     <use style="fill:#ffffff;stroke:#ffffff;" x="622.983273" xlink:href="#m9f0f8a9e83" y="361.297632"/>
     <use style="fill:#ffffff;stroke:#ffffff;" x="624.200727" xlink:href="#m9f0f8a9e83" y="367.198591"/>
     <use style="fill:#ffffff;stroke:#ffffff;" x="625.418182" xlink:href="#m9f0f8a9e83" y="370.623815"/>
     <use style="fill:#ffffff;stroke:#ffffff;" x="626.635636" xlink:href="#m9f0f8a9e83" y="366.85276"/>
     <use style="fill:#ffffff;stroke:#ffffff;" x="627.853091" xlink:href="#m9f0f8a9e83" y="368.715525"/>
     <use style="fill:#ffffff;stroke:#ffffff;" x="629.070545" xlink:href="#m9f0f8a9e83" y="369.857559"/>
     <use style="fill:#ffffff;stroke:#ffffff;" x="630.288" xlink:href="#m9f0f8a9e83" y="373.078721"/>
     <use style="fill:#ffffff;stroke:#ffffff;" x="631.505455" xlink:href="#m9f0f8a9e83" y="366.273976"/>
     <use style="fill:#ffffff;stroke:#ffffff;" x="632.722909" xlink:href="#m9f0f8a9e83" y="375.616893"/>
     <use style="fill:#ffffff;stroke:#ffffff;" x="633.940364" xlink:href="#m9f0f8a9e83" y="372.48454"/>
     <use style="fill:#ffffff;stroke:#ffffff;" x="635.157818" xlink:href="#m9f0f8a9e83" y="372.732015"/>
     <use style="fill:#ffffff;stroke:#ffffff;" x="636.375273" xlink:href="#m9f0f8a9e83" y="373.608863"/>
     <use style="fill:#ffffff;stroke:#ffffff;" x="637.592727" xlink:href="#m9f0f8a9e83" y="374.006521"/>
     <use style="fill:#ffffff;stroke:#ffffff;" x="638.810182" xlink:href="#m9f0f8a9e83" y="374.325043"/>
     <use style="fill:#ffffff;stroke:#ffffff;" x="640.027636" xlink:href="#m9f0f8a9e83" y="373.448212"/>
     <use style="fill:#ffffff;stroke:#ffffff;" x="641.245091" xlink:href="#m9f0f8a9e83" y="374.839384"/>
     <use style="fill:#ffffff;stroke:#ffffff;" x="642.462545" xlink:href="#m9f0f8a9e83" y="382.090832"/>
     <use style="fill:#ffffff;stroke:#ffffff;" x="643.68" xlink:href="#m9f0f8a9e83" y="377.781953"/>
     <use style="fill:#ffffff;stroke:#ffffff;" x="644.897455" xlink:href="#m9f0f8a9e83" y="380.946409"/>
     <use style="fill:#ffffff;stroke:#ffffff;" x="646.114909" xlink:href="#m9f0f8a9e83" y="383.256591"/>
     <use style="fill:#ffffff;stroke:#ffffff;" x="647.332364" xlink:href="#m9f0f8a9e83" y="378.779278"/>
     <use style="fill:#ffffff;stroke:#ffffff;" x="648.549818" xlink:href="#m9f0f8a9e83" y="384.652406"/>
     <use style="fill:#ffffff;stroke:#ffffff;" x="649.767273" xlink:href="#m9f0f8a9e83" y="386.669957"/>
     <use style="fill:#ffffff;stroke:#ffffff;" x="650.984727" xlink:href="#m9f0f8a9e83" y="388.462428"/>
     <use style="fill:#ffffff;stroke:#ffffff;" x="652.202182" xlink:href="#m9f0f8a9e83" y="384.71644"/>
     <use style="fill:#ffffff;stroke:#ffffff;" x="653.419636" xlink:href="#m9f0f8a9e83" y="387.035636"/>
     <use style="fill:#ffffff;stroke:#ffffff;" x="654.637091" xlink:href="#m9f0f8a9e83" y="389.37569"/>
     <use style="fill:#ffffff;stroke:#ffffff;" x="655.854545" xlink:href="#m9f0f8a9e83" y="385.416476"/>
     <use style="fill:#ffffff;stroke:#ffffff;" x="657.072" xlink:href="#m9f0f8a9e83" y="387.120941"/>
     <use style="fill:#ffffff;stroke:#ffffff;" x="658.289455" xlink:href="#m9f0f8a9e83" y="392.272864"/>
     <use style="fill:#ffffff;stroke:#ffffff;" x="659.506909" xlink:href="#m9f0f8a9e83" y="395.512708"/>
     <use style="fill:#ffffff;stroke:#ffffff;" x="660.724364" xlink:href="#m9f0f8a9e83" y="393.423057"/>
     <use style="fill:#ffffff;stroke:#ffffff;" x="661.941818" xlink:href="#m9f0f8a9e83" y="393.588432"/>
     <use style="fill:#ffffff;stroke:#ffffff;" x="663.159273" xlink:href="#m9f0f8a9e83" y="394.934541"/>
     <use style="fill:#ffffff;stroke:#ffffff;" x="664.376727" xlink:href="#m9f0f8a9e83" y="388.492455"/>
     <use style="fill:#ffffff;stroke:#ffffff;" x="665.594182" xlink:href="#m9f0f8a9e83" y="396.985268"/>
     <use style="fill:#ffffff;stroke:#ffffff;" x="666.811636" xlink:href="#m9f0f8a9e83" y="395.163787"/>
     <use style="fill:#ffffff;stroke:#ffffff;" x="668.029091" xlink:href="#m9f0f8a9e83" y="401.308556"/>
     <use style="fill:#ffffff;stroke:#ffffff;" x="669.246545" xlink:href="#m9f0f8a9e83" y="405.503937"/>
     <use style="fill:#ffffff;stroke:#ffffff;" x="670.464" xlink:href="#m9f0f8a9e83" y="404.811634"/>
     <use style="fill:#ffffff;stroke:#ffffff;" x="671.681455" xlink:href="#m9f0f8a9e83" y="400.870852"/>
     <use style="fill:#ffffff;stroke:#ffffff;" x="672.898909" xlink:href="#m9f0f8a9e83" y="397.58467"/>
     <use style="fill:#ffffff;stroke:#ffffff;" x="674.116364" xlink:href="#m9f0f8a9e83" y="409.374934"/>
     <use style="fill:#ffffff;stroke:#ffffff;" x="675.333818" xlink:href="#m9f0f8a9e83" y="405.007304"/>
     <use style="fill:#ffffff;stroke:#ffffff;" x="676.551273" xlink:href="#m9f0f8a9e83" y="407.954846"/>
     <use style="fill:#ffffff;stroke:#ffffff;" x="677.768727" xlink:href="#m9f0f8a9e83" y="408.618585"/>
     <use style="fill:#ffffff;stroke:#ffffff;" x="678.986182" xlink:href="#m9f0f8a9e83" y="409.160317"/>
     <use style="fill:#ffffff;stroke:#ffffff;" x="680.203636" xlink:href="#m9f0f8a9e83" y="410.375836"/>
     <use style="fill:#ffffff;stroke:#ffffff;" x="681.421091" xlink:href="#m9f0f8a9e83" y="415.398537"/>
     <use style="fill:#ffffff;stroke:#ffffff;" x="682.638545" xlink:href="#m9f0f8a9e83" y="409.953429"/>
     <use style="fill:#ffffff;stroke:#ffffff;" x="683.856" xlink:href="#m9f0f8a9e83" y="405.33928"/>
     <use style="fill:#ffffff;stroke:#ffffff;" x="685.073455" xlink:href="#m9f0f8a9e83" y="413.127129"/>
     <use style="fill:#ffffff;stroke:#ffffff;" x="686.290909" xlink:href="#m9f0f8a9e83" y="413.210154"/>
     <use style="fill:#ffffff;stroke:#ffffff;" x="687.508364" xlink:href="#m9f0f8a9e83" y="420.465885"/>
     <use style="fill:#ffffff;stroke:#ffffff;" x="688.725818" xlink:href="#m9f0f8a9e83" y="417.428515"/>
     <use style="fill:#ffffff;stroke:#ffffff;" x="689.943273" xlink:href="#m9f0f8a9e83" y="416.102638"/>
     <use style="fill:#ffffff;stroke:#ffffff;" x="691.160727" xlink:href="#m9f0f8a9e83" y="420.639196"/>
     <use style="fill:#ffffff;stroke:#ffffff;" x="692.378182" xlink:href="#m9f0f8a9e83" y="413.50368"/>
     <use style="fill:#ffffff;stroke:#ffffff;" x="693.595636" xlink:href="#m9f0f8a9e83" y="434.15237"/>
     <use style="fill:#ffffff;stroke:#ffffff;" x="694.813091" xlink:href="#m9f0f8a9e83" y="429.852295"/>
     <use style="fill:#ffffff;stroke:#ffffff;" x="696.030545" xlink:href="#m9f0f8a9e83" y="419.843137"/>
     <use style="fill:#ffffff;stroke:#ffffff;" x="697.248" xlink:href="#m9f0f8a9e83" y="424.255193"/>
     <use style="fill:#ffffff;stroke:#ffffff;" x="698.465455" xlink:href="#m9f0f8a9e83" y="430.45962"/>
     <use style="fill:#ffffff;stroke:#ffffff;" x="699.682909" xlink:href="#m9f0f8a9e83" y="426.933298"/>
     <use style="fill:#ffffff;stroke:#ffffff;" x="700.900364" xlink:href="#m9f0f8a9e83" y="430.761675"/>
     <use style="fill:#ffffff;stroke:#ffffff;" x="702.117818" xlink:href="#m9f0f8a9e83" y="435.455997"/>
     <use style="fill:#ffffff;stroke:#ffffff;" x="703.335273" xlink:href="#m9f0f8a9e83" y="428.927486"/>
     <use style="fill:#ffffff;stroke:#ffffff;" x="704.552727" xlink:href="#m9f0f8a9e83" y="432.254786"/>
     <use style="fill:#ffffff;stroke:#ffffff;" x="705.770182" xlink:href="#m9f0f8a9e83" y="431.598855"/>
     <use style="fill:#ffffff;stroke:#ffffff;" x="706.987636" xlink:href="#m9f0f8a9e83" y="435.408341"/>
     <use style="fill:#ffffff;stroke:#ffffff;" x="708.205091" xlink:href="#m9f0f8a9e83" y="443.561312"/>
     <use style="fill:#ffffff;stroke:#ffffff;" x="709.422545" xlink:href="#m9f0f8a9e83" y="433.914863"/>
     <use style="fill:#ffffff;stroke:#ffffff;" x="710.64" xlink:href="#m9f0f8a9e83" y="444.868305"/>
     <use style="fill:#ffffff;stroke:#ffffff;" x="711.857455" xlink:href="#m9f0f8a9e83" y="442.085531"/>
     <use style="fill:#ffffff;stroke:#ffffff;" x="713.074909" xlink:href="#m9f0f8a9e83" y="446.332557"/>
     <use style="fill:#ffffff;stroke:#ffffff;" x="714.292364" xlink:href="#m9f0f8a9e83" y="446.621892"/>
     <use style="fill:#ffffff;stroke:#ffffff;" x="715.509818" xlink:href="#m9f0f8a9e83" y="444.545117"/>
     <use style="fill:#ffffff;stroke:#ffffff;" x="716.727273" xlink:href="#m9f0f8a9e83" y="452.210113"/>
     <use style="fill:#ffffff;stroke:#ffffff;" x="717.944727" xlink:href="#m9f0f8a9e83" y="451.373569"/>
     <use style="fill:#ffffff;stroke:#ffffff;" x="719.162182" xlink:href="#m9f0f8a9e83" y="450.952039"/>
     <use style="fill:#ffffff;stroke:#ffffff;" x="720.379636" xlink:href="#m9f0f8a9e83" y="453.499501"/>
     <use style="fill:#ffffff;stroke:#ffffff;" x="721.597091" xlink:href="#m9f0f8a9e83" y="455.267126"/>
     <use style="fill:#ffffff;stroke:#ffffff;" x="722.814545" xlink:href="#m9f0f8a9e83" y="457.744085"/>
     <use style="fill:#ffffff;stroke:#ffffff;" x="724.032" xlink:href="#m9f0f8a9e83" y="463.826915"/>
     <use style="fill:#ffffff;stroke:#ffffff;" x="725.249455" xlink:href="#m9f0f8a9e83" y="451.936219"/>
     <use style="fill:#ffffff;stroke:#ffffff;" x="726.466909" xlink:href="#m9f0f8a9e83" y="466.774193"/>
     <use style="fill:#ffffff;stroke:#ffffff;" x="727.684364" xlink:href="#m9f0f8a9e83" y="471.222166"/>
     <use style="fill:#ffffff;stroke:#ffffff;" x="728.901818" xlink:href="#m9f0f8a9e83" y="462.526562"/>
     <use style="fill:#ffffff;stroke:#ffffff;" x="730.119273" xlink:href="#m9f0f8a9e83" y="472.019508"/>
     <use style="fill:#ffffff;stroke:#ffffff;" x="731.336727" xlink:href="#m9f0f8a9e83" y="474.244047"/>
     <use style="fill:#ffffff;stroke:#ffffff;" x="732.554182" xlink:href="#m9f0f8a9e83" y="462.724256"/>
     <use style="fill:#ffffff;stroke:#ffffff;" x="733.771636" xlink:href="#m9f0f8a9e83" y="471.184341"/>
     <use style="fill:#ffffff;stroke:#ffffff;" x="734.989091" xlink:href="#m9f0f8a9e83" y="472.093473"/>
     <use style="fill:#ffffff;stroke:#ffffff;" x="736.206545" xlink:href="#m9f0f8a9e83" y="477.711192"/>
     <use style="fill:#ffffff;stroke:#ffffff;" x="737.424" xlink:href="#m9f0f8a9e83" y="474.152409"/>
     <use style="fill:#ffffff;stroke:#ffffff;" x="738.641455" xlink:href="#m9f0f8a9e83" y="475.666162"/>
     <use style="fill:#ffffff;stroke:#ffffff;" x="739.858909" xlink:href="#m9f0f8a9e83" y="480.026936"/>
     <use style="fill:#ffffff;stroke:#ffffff;" x="741.076364" xlink:href="#m9f0f8a9e83" y="489.286437"/>
     <use style="fill:#ffffff;stroke:#ffffff;" x="742.293818" xlink:href="#m9f0f8a9e83" y="489.046386"/>
     <use style="fill:#ffffff;stroke:#ffffff;" x="743.511273" xlink:href="#m9f0f8a9e83" y="478.401416"/>
     <use style="fill:#ffffff;stroke:#ffffff;" x="744.728727" xlink:href="#m9f0f8a9e83" y="488.747005"/>
     <use style="fill:#ffffff;stroke:#ffffff;" x="745.946182" xlink:href="#m9f0f8a9e83" y="482.188853"/>
     <use style="fill:#ffffff;stroke:#ffffff;" x="747.163636" xlink:href="#m9f0f8a9e83" y="492.48"/>
    </g>
   </g>
   <g id="patch_3">
    <path d="M 108 512.64 
L 108 69.12 
" style="fill:none;stroke:#ffffff;stroke-linecap:square;stroke-linejoin:miter;stroke-width:0.8;"/>
   </g>
   <g id="patch_4">
    <path d="M 777.6 512.64 
L 777.6 69.12 
" style="fill:none;stroke:#ffffff;stroke-linecap:square;stroke-linejoin:miter;stroke-width:0.8;"/>
   </g>
   <g id="patch_5">
    <path d="M 108 512.64 
L 777.6 512.64 
" style="fill:none;stroke:#ffffff;stroke-linecap:square;stroke-linejoin:miter;stroke-width:0.8;"/>
   </g>
   <g id="patch_6">
    <path d="M 108 69.12 
L 777.6 69.12 
" style="fill:none;stroke:#ffffff;stroke-linecap:square;stroke-linejoin:miter;stroke-width:0.8;"/>
   </g>
   <g id="text_16">
    <!-- f_0_Bicubic_b_0.00_c_1.00_ar_1.78_steps_1 -->
    <g style="fill:#ffffff;" transform="translate(311.95875 63.12)scale(0.12 -0.12)">
     <defs>
      <path d="M 37.109375 75.984375 
L 37.109375 68.5 
L 28.515625 68.5 
Q 23.6875 68.5 21.796875 66.546875 
Q 19.921875 64.59375 19.921875 59.515625 
L 19.921875 54.6875 
L 34.71875 54.6875 
L 34.71875 47.703125 
L 19.921875 47.703125 
L 19.921875 0 
L 10.890625 0 
L 10.890625 47.703125 
L 2.296875 47.703125 
L 2.296875 54.6875 
L 10.890625 54.6875 
L 10.890625 58.5 
Q 10.890625 67.625 15.140625 71.796875 
Q 19.390625 75.984375 28.609375 75.984375 
z
" id="DejaVuSans-102"/>
      <path d="M 50.984375 -16.609375 
L 50.984375 -23.578125 
L -0.984375 -23.578125 
L -0.984375 -16.609375 
z
" id="DejaVuSans-95"/>
      <path d="M 19.671875 34.8125 
L 19.671875 8.109375 
L 35.5 8.109375 
Q 43.453125 8.109375 47.28125 11.40625 
Q 51.125 14.703125 51.125 21.484375 
Q 51.125 28.328125 47.28125 31.5625 
Q 43.453125 34.8125 35.5 34.8125 
z
M 19.671875 64.796875 
L 19.671875 42.828125 
L 34.28125 42.828125 
Q 41.5 42.828125 45.03125 45.53125 
Q 48.578125 48.25 48.578125 53.8125 
Q 48.578125 59.328125 45.03125 62.0625 
Q 41.5 64.796875 34.28125 64.796875 
z
M 9.8125 72.90625 
L 35.015625 72.90625 
Q 46.296875 72.90625 52.390625 68.21875 
Q 58.5 63.53125 58.5 54.890625 
Q 58.5 48.1875 55.375 44.234375 
Q 52.25 40.28125 46.1875 39.3125 
Q 53.46875 37.75 57.5 32.78125 
Q 61.53125 27.828125 61.53125 20.40625 
Q 61.53125 10.640625 54.890625 5.3125 
Q 48.25 0 35.984375 0 
L 9.8125 0 
z
" id="DejaVuSans-66"/>
      <path d="M 48.78125 52.59375 
L 48.78125 44.1875 
Q 44.96875 46.296875 41.140625 47.34375 
Q 37.3125 48.390625 33.40625 48.390625 
Q 24.65625 48.390625 19.8125 42.84375 
Q 14.984375 37.3125 14.984375 27.296875 
Q 14.984375 17.28125 19.8125 11.734375 
Q 24.65625 6.203125 33.40625 6.203125 
Q 37.3125 6.203125 41.140625 7.25 
Q 44.96875 8.296875 48.78125 10.40625 
L 48.78125 2.09375 
Q 45.015625 0.34375 40.984375 -0.53125 
Q 36.96875 -1.421875 32.421875 -1.421875 
Q 20.0625 -1.421875 12.78125 6.34375 
Q 5.515625 14.109375 5.515625 27.296875 
Q 5.515625 40.671875 12.859375 48.328125 
Q 20.21875 56 33.015625 56 
Q 37.15625 56 41.109375 55.140625 
Q 45.0625 54.296875 48.78125 52.59375 
z
" id="DejaVuSans-99"/>
      <path d="M 8.5 21.578125 
L 8.5 54.6875 
L 17.484375 54.6875 
L 17.484375 21.921875 
Q 17.484375 14.15625 20.5 10.265625 
Q 23.53125 6.390625 29.59375 6.390625 
Q 36.859375 6.390625 41.078125 11.03125 
Q 45.3125 15.671875 45.3125 23.6875 
L 45.3125 54.6875 
L 54.296875 54.6875 
L 54.296875 0 
L 45.3125 0 
L 45.3125 8.40625 
Q 42.046875 3.421875 37.71875 1 
Q 33.40625 -1.421875 27.6875 -1.421875 
Q 18.265625 -1.421875 13.375 4.4375 
Q 8.5 10.296875 8.5 21.578125 
z
M 31.109375 56 
z
" id="DejaVuSans-117"/>
      <path d="M 48.6875 27.296875 
Q 48.6875 37.203125 44.609375 42.84375 
Q 40.53125 48.484375 33.40625 48.484375 
Q 26.265625 48.484375 22.1875 42.84375 
Q 18.109375 37.203125 18.109375 27.296875 
Q 18.109375 17.390625 22.1875 11.75 
Q 26.265625 6.109375 33.40625 6.109375 
Q 40.53125 6.109375 44.609375 11.75 
Q 48.6875 17.390625 48.6875 27.296875 
z
M 18.109375 46.390625 
Q 20.953125 51.265625 25.265625 53.625 
Q 29.59375 56 35.59375 56 
Q 45.5625 56 51.78125 48.09375 
Q 58.015625 40.1875 58.015625 27.296875 
Q 58.015625 14.40625 51.78125 6.484375 
Q 45.5625 -1.421875 35.59375 -1.421875 
Q 29.59375 -1.421875 25.265625 0.953125 
Q 20.953125 3.328125 18.109375 8.203125 
L 18.109375 0 
L 9.078125 0 
L 9.078125 75.984375 
L 18.109375 75.984375 
z
" id="DejaVuSans-98"/>
      <path d="M 10.6875 12.40625 
L 21 12.40625 
L 21 0 
L 10.6875 0 
z
" id="DejaVuSans-46"/>
      <path d="M 44.28125 53.078125 
L 44.28125 44.578125 
Q 40.484375 46.53125 36.375 47.5 
Q 32.28125 48.484375 27.875 48.484375 
Q 21.1875 48.484375 17.84375 46.4375 
Q 14.5 44.390625 14.5 40.28125 
Q 14.5 37.15625 16.890625 35.375 
Q 19.28125 33.59375 26.515625 31.984375 
L 29.59375 31.296875 
Q 39.15625 29.25 43.1875 25.515625 
Q 47.21875 21.78125 47.21875 15.09375 
Q 47.21875 7.46875 41.1875 3.015625 
Q 35.15625 -1.421875 24.609375 -1.421875 
Q 20.21875 -1.421875 15.453125 -0.5625 
Q 10.6875 0.296875 5.421875 2 
L 5.421875 11.28125 
Q 10.40625 8.6875 15.234375 7.390625 
Q 20.0625 6.109375 24.8125 6.109375 
Q 31.15625 6.109375 34.5625 8.28125 
Q 37.984375 10.453125 37.984375 14.40625 
Q 37.984375 18.0625 35.515625 20.015625 
Q 33.0625 21.96875 24.703125 23.78125 
L 21.578125 24.515625 
Q 13.234375 26.265625 9.515625 29.90625 
Q 5.8125 33.546875 5.8125 39.890625 
Q 5.8125 47.609375 11.28125 51.796875 
Q 16.75 56 26.8125 56 
Q 31.78125 56 36.171875 55.265625 
Q 40.578125 54.546875 44.28125 53.078125 
z
" id="DejaVuSans-115"/>
      <path d="M 18.109375 8.203125 
L 18.109375 -20.796875 
L 9.078125 -20.796875 
L 9.078125 54.6875 
L 18.109375 54.6875 
L 18.109375 46.390625 
Q 20.953125 51.265625 25.265625 53.625 
Q 29.59375 56 35.59375 56 
Q 45.5625 56 51.78125 48.09375 
Q 58.015625 40.1875 58.015625 27.296875 
Q 58.015625 14.40625 51.78125 6.484375 
Q 45.5625 -1.421875 35.59375 -1.421875 
Q 29.59375 -1.421875 25.265625 0.953125 
Q 20.953125 3.328125 18.109375 8.203125 
z
M 48.6875 27.296875 
Q 48.6875 37.203125 44.609375 42.84375 
Q 40.53125 48.484375 33.40625 48.484375 
Q 26.265625 48.484375 22.1875 42.84375 
Q 18.109375 37.203125 18.109375 27.296875 
Q 18.109375 17.390625 22.1875 11.75 
Q 26.265625 6.109375 33.40625 6.109375 
Q 40.53125 6.109375 44.609375 11.75 
Q 48.6875 17.390625 48.6875 27.296875 
z
" id="DejaVuSans-112"/>
     </defs>
     <use xlink:href="#DejaVuSans-102"/>
     <use x="35.205078" xlink:href="#DejaVuSans-95"/>
     <use x="85.205078" xlink:href="#DejaVuSans-48"/>
     <use x="148.828125" xlink:href="#DejaVuSans-95"/>
     <use x="198.828125" xlink:href="#DejaVuSans-66"/>
     <use x="267.431641" xlink:href="#DejaVuSans-105"/>
     <use x="295.214844" xlink:href="#DejaVuSans-99"/>
     <use x="350.195312" xlink:href="#DejaVuSans-117"/>
     <use x="413.574219" xlink:href="#DejaVuSans-98"/>
     <use x="477.050781" xlink:href="#DejaVuSans-105"/>
     <use x="504.833984" xlink:href="#DejaVuSans-99"/>
     <use x="559.814453" xlink:href="#DejaVuSans-95"/>
     <use x="609.814453" xlink:href="#DejaVuSans-98"/>
     <use x="673.291016" xlink:href="#DejaVuSans-95"/>
     <use x="723.291016" xlink:href="#DejaVuSans-48"/>
     <use x="786.914062" xlink:href="#DejaVuSans-46"/>
     <use x="818.701172" xlink:href="#DejaVuSans-48"/>
     <use x="882.324219" xlink:href="#DejaVuSans-48"/>
     <use x="945.947266" xlink:href="#DejaVuSans-95"/>
     <use x="995.947266" xlink:href="#DejaVuSans-99"/>
     <use x="1050.927734" xlink:href="#DejaVuSans-95"/>
     <use x="1100.927734" xlink:href="#DejaVuSans-49"/>
     <use x="1164.550781" xlink:href="#DejaVuSans-46"/>
     <use x="1196.337891" xlink:href="#DejaVuSans-48"/>
     <use x="1259.960938" xlink:href="#DejaVuSans-48"/>
     <use x="1323.583984" xlink:href="#DejaVuSans-95"/>
     <use x="1373.583984" xlink:href="#DejaVuSans-97"/>
     <use x="1434.863281" xlink:href="#DejaVuSans-114"/>
     <use x="1475.976562" xlink:href="#DejaVuSans-95"/>
     <use x="1525.976562" xlink:href="#DejaVuSans-49"/>
     <use x="1589.599609" xlink:href="#DejaVuSans-46"/>
     <use x="1621.386719" xlink:href="#DejaVuSans-55"/>
     <use x="1685.009766" xlink:href="#DejaVuSans-56"/>
     <use x="1748.632812" xlink:href="#DejaVuSans-95"/>
     <use x="1798.632812" xlink:href="#DejaVuSans-115"/>
     <use x="1850.732422" xlink:href="#DejaVuSans-116"/>
     <use x="1889.941406" xlink:href="#DejaVuSans-101"/>
     <use x="1951.464844" xlink:href="#DejaVuSans-112"/>
     <use x="2014.941406" xlink:href="#DejaVuSans-115"/>
     <use x="2067.041016" xlink:href="#DejaVuSans-95"/>
     <use x="2117.041016" xlink:href="#DejaVuSans-49"/>
    </g>
   </g>
  </g>
 </g>
 <defs>
  <clipPath id="pbfbab2c726">
   <rect height="443.52" width="669.6" x="108" y="69.12"/>
  </clipPath>
 </defs>
</svg>
